<svg xmlns="http://www.w3.org/2000/svg" viewBox="0 0 750 500"><g id="freepik--background-simple--inject-5"><path d="M621.85,43.61c-23.1-14-51.36-21.15-77.6-14.7-51,12.53-77.73,68.87-122.6,96.16-31.35,19.07-59,24.06-95.69,22.87s-79.2-20.92-115.8-18.19-79.24,27.89-103,55.87a98.46,98.46,0,0,0-21.28,81c1.16,6.07,2.13,21.54,6.28,29.4,24.5,46.4,73.78,85.27,126.2,87.73l128.55,9.47c5.15.38,10.33.58,15.49.6,85.41.25,136.21-8,196.05-32.67,61.68-25.47,113.89-77.89,129.88-142.68S678.9,78.25,621.85,43.61Z" style="fill:#f5f5f5"></path></g><g id="freepik--Floor--inject-5"><path d="M720.16,452.5c0,.14-154.54.26-345.14.26s-345.18-.12-345.18-.26,154.51-.26,345.18-.26S720.16,452.35,720.16,452.5Z" style="fill:#263238"></path></g><g id="freepik--Blocks--inject-5"><polygon points="646.2 452.51 561.93 452.54 562.65 368.28 646.91 369 646.2 452.51" style="fill:#DB5461"></polygon><g style="opacity:0.4"><path d="M646.82,379.06s-13.51,9.22-30.24,20.49-30.33,20.36-30.36,20.31,13.5-9.22,30.24-20.49S646.79,379,646.82,379.06Z" style="fill:#fff"></path></g><g style="opacity:0.4"><path d="M646.05,398.47S632.54,407.7,615.81,419s-30.33,20.37-30.36,20.32,13.51-9.22,30.24-20.49S646,398.43,646.05,398.47Z" style="fill:#fff"></path></g><g style="opacity:0.4"><path d="M646.5,417.23s-11.71,8-26.22,17.78-26.3,17.66-26.34,17.61,11.71-8,26.22-17.78S646.46,417.18,646.5,417.23Z" style="fill:#fff"></path></g><g style="opacity:0.4"><path d="M629,368.85s-9.6,6.59-21.52,14.61S585.86,398,585.83,397.9s9.6-6.59,21.52-14.62S628.94,368.8,629,368.85Z" style="fill:#fff"></path></g><g style="opacity:0.4"><path d="M646.1,437.37c0,.05-4.89,3.6-11,7.93S624,453.11,624,453.07s4.88-3.6,11-7.94S646.07,437.32,646.1,437.37Z" style="fill:#fff"></path></g><rect x="502.24" y="368.13" width="84.26" height="84.26" transform="translate(3.51 -4.62) rotate(0.49)" style="fill:#DB5461"></rect><rect x="502.24" y="368.13" width="84.26" height="84.26" transform="translate(3.51 -4.62) rotate(0.49)" style="fill:#fff;opacity:0.2"></rect><rect x="645.58" y="369.23" width="82.92" height="83.43" transform="translate(3.52 -5.83) rotate(0.49)" style="fill:#263238"></rect><polygon points="669.01 452.62 586.09 452.5 586.8 368.37 669.72 369.08 669.01 452.62" style="fill:#455a64"></polygon><path d="M728.73,379.48s-13.29,9.08-29.76,20.17-29.85,20-29.88,20,13.29-9.08,29.76-20.17S728.7,379.43,728.73,379.48Z" style="fill:#455a64"></path><path d="M728,398.59c0,.05-13.29,9.08-29.76,20.16s-29.84,20.05-29.88,20,13.3-9.08,29.77-20.17S727.94,398.54,728,398.59Z" style="fill:#455a64"></path><path d="M728.41,417.05c0,.05-11.52,7.88-25.8,17.5s-25.88,17.37-25.92,17.32,11.52-7.88,25.8-17.5S728.38,417,728.41,417.05Z" style="fill:#455a64"></path><path d="M711.17,369.43c0,.05-9.45,6.49-21.17,14.38S668.74,398.07,668.71,398s9.45-6.48,21.17-14.38S711.14,369.38,711.17,369.43Z" style="fill:#455a64"></path><path d="M728,436.87c0,.05-4.81,3.54-10.81,7.8s-10.9,7.69-10.93,7.64,4.81-3.54,10.81-7.8S728,436.82,728,436.87Z" style="fill:#455a64"></path><path d="M238.75,197.85V287h76.66a44.56,44.56,0,1,1,89.11,0h76V197.85Z" style="fill:#DB5461"></path><path d="M238.75,197.85V287h76.66a44.56,44.56,0,1,1,89.11,0h76V197.85Z" style="opacity:0.4"></path><path d="M183.61,197.85V287h76.66a44.56,44.56,0,1,1,89.11,0h76V197.85Z" style="fill:#DB5461"></path><path d="M480.56,202.65s-12.21,8.5-27.34,18.87-27.41,18.75-27.45,18.7,12.21-8.49,27.34-18.87S480.52,202.6,480.56,202.65Z" style="fill:#DB5461"></path><path d="M481,219.67c0,.05-12.21,8.49-27.33,18.87s-27.42,18.75-27.45,18.7,12.2-8.5,27.33-18.87S481,219.62,481,219.67Z" style="fill:#DB5461"></path><path d="M480.46,237.33s-12.2,8.49-27.33,18.87-27.42,18.74-27.45,18.7S437.88,266.4,453,256,480.43,237.28,480.46,237.33Z" style="fill:#DB5461"></path><path d="M480,254.38c0,.05-10.58,7.38-23.7,16.37S432.55,287,432.51,287s10.58-7.38,23.7-16.38S480,254.33,480,254.38Z" style="fill:#DB5461"></path><path d="M457.92,197.85l-.32.24-.93.67-3.46,2.41-11.44,7.88-11.48,7.84-3.49,2.35-1,.63a3.33,3.33,0,0,1-.34.21,3.34,3.34,0,0,1,.32-.24l.93-.67,3.45-2.4,11.45-7.89L453.13,201l3.49-2.35,1-.63Z" style="fill:#DB5461"></path><path d="M326.07,247.64s-12.78,8.88-28.61,19.74S268.77,287,268.73,287s12.78-8.89,28.61-19.75S326,247.59,326.07,247.64Z" style="fill:#DB5461"></path><path d="M318.77,270l-.24.19-.71.51-2.64,1.85-8.74,6-8.77,6L295,286.32l-.73.48L294,287l.24-.19.71-.51,2.64-1.85,8.74-6,8.77-6,2.67-1.79.73-.48Z" style="fill:#DB5461"></path><path d="M303.43,242.83s-8.87,6.21-19.88,13.77-20,13.64-20,13.59,8.87-6.21,19.89-13.76S303.4,242.79,303.43,242.83Z" style="fill:#DB5461"></path><path d="M480.81,272.69c0,.05-4.41,3.32-9.92,7.3s-10,7.19-10.05,7.14,4.41-3.32,9.92-7.3S480.77,272.64,480.81,272.69Z" style="fill:#DB5461"></path><rect x="416.49" y="286.96" width="76.61" height="76.61" style="fill:#263238"></rect><rect x="361.9" y="286.96" width="76.61" height="76.61" style="fill:#455a64"></rect><path d="M493.1,296.1s-12.21,8.5-27.33,18.87-27.42,18.75-27.45,18.7,12.2-8.49,27.33-18.87S493.07,296.05,493.1,296.1Z" style="fill:#455a64"></path><path d="M492.55,313.76c0,.05-12.2,8.5-27.33,18.87s-27.42,18.75-27.45,18.7,12.2-8.49,27.33-18.87S492.52,313.71,492.55,313.76Z" style="fill:#455a64"></path><path d="M493.1,330.81c0,.05-10.58,7.38-23.69,16.38s-23.78,16.25-23.81,16.2S456.17,356,469.29,347,493.07,330.76,493.1,330.81Z" style="fill:#455a64"></path><path d="M476.8,287s-8.67,6.07-19.44,13.46-19.53,13.33-19.56,13.28,8.67-6.07,19.44-13.46S476.77,286.91,476.8,287Z" style="fill:#455a64"></path><path d="M492.9,349.12c0,.05-4.41,3.32-9.92,7.31s-10,7.18-10.05,7.13,4.41-3.31,9.92-7.3S492.86,349.08,492.9,349.12Z" style="fill:#455a64"></path><rect x="247.61" y="286.96" width="76.61" height="76.61" style="fill:#263238"></rect><rect x="193.01" y="286.96" width="76.61" height="76.61" style="fill:#455a64"></rect><path d="M324.22,296.1S312,304.6,296.88,315s-27.41,18.75-27.45,18.7,12.21-8.49,27.34-18.87S324.18,296.05,324.22,296.1Z" style="fill:#455a64"></path><path d="M323.67,313.76c0,.05-12.21,8.5-27.33,18.87s-27.42,18.75-27.45,18.7,12.2-8.49,27.33-18.87S323.64,313.71,323.67,313.76Z" style="fill:#455a64"></path><path d="M324.22,330.81c0,.05-10.58,7.38-23.7,16.38s-23.78,16.25-23.81,16.2S287.29,356,300.41,347,324.18,330.76,324.22,330.81Z" style="fill:#455a64"></path><path d="M307.91,287s-8.67,6.07-19.44,13.46S269,313.75,268.91,313.7s8.67-6.07,19.45-13.46S307.88,286.91,307.91,287Z" style="fill:#455a64"></path><path d="M324,349.12c0,.05-4.41,3.32-9.92,7.31s-10,7.18-10,7.13,4.41-3.31,9.92-7.3S324,349.08,324,349.12Z" style="fill:#455a64"></path><rect x="425.42" y="363.56" width="54.05" height="89.11" style="fill:#DB5461"></rect><rect x="425.42" y="363.56" width="54.05" height="89.11" style="opacity:0.4"></rect><rect x="183.61" y="363.56" width="241.81" height="89.11" style="fill:#DB5461"></rect><path d="M479,368.65s-11.89,8.45-26.61,18.77-26.7,18.64-26.73,18.59,11.87-8.44,26.61-18.77S479,368.6,479,368.65Z" style="fill:#DB5461"></path><path d="M479.47,385.57c0,.05-11.88,8.45-26.61,18.77s-26.7,18.65-26.73,18.6,11.88-8.45,26.61-18.77S479.44,385.53,479.47,385.57Z" style="fill:#DB5461"></path><path d="M478.94,403.14s-11.89,8.45-26.61,18.77-26.7,18.64-26.73,18.59,11.88-8.44,26.61-18.77S478.9,403.09,478.94,403.14Z" style="fill:#DB5461"></path><path d="M478.5,420.1s-10.29,7.34-23.06,16.28-23.16,16.17-23.19,16.12,10.29-7.34,23.07-16.29S478.47,420.05,478.5,420.1Z" style="fill:#DB5461"></path><path d="M457,363.87l-.3.24-.91.66-3.37,2.4L441.26,375l-11.18,7.8-3.4,2.34-.93.63a3.47,3.47,0,0,1-.33.2l.31-.24.91-.66,3.36-2.39,11.14-7.85,11.18-7.79,3.4-2.34.93-.63Z" style="fill:#DB5461"></path><path d="M479.27,438.31c0,.05-4.29,3.3-9.66,7.26s-9.74,7.15-9.78,7.1,4.29-3.3,9.66-7.26S479.24,438.26,479.27,438.31Z" style="fill:#DB5461"></path><polygon points="233.73 197.93 506.71 197.53 370.02 62.12 308.68 62.21 233.73 197.93" style="fill:#DB5461"></polygon><polygon points="172.39 198.02 445.37 197.62 308.68 62.21 172.39 198.02" style="fill:#DB5461"></polygon><g style="opacity:0.4"><path d="M450.32,141.67l-.36.26-1,.74-3.84,2.69-12.74,8.8-12.77,8.75-3.88,2.63-1.07.71c-.24.16-.37.23-.37.23a4.09,4.09,0,0,1,.35-.27l1-.74,3.85-2.68,12.73-8.8L445,145.24l3.89-2.63,1.06-.71A4,4,0,0,1,450.32,141.67Z" style="fill:#fff"></path><path d="M463.36,154.87l-.35.27-1,.74-3.85,2.68-12.74,8.8-12.77,8.75-3.88,2.63-1.06.71-.38.24.35-.27,1-.74,3.85-2.69,12.74-8.8L458,158.44l3.88-2.63,1.06-.71Z" style="fill:#fff"></path><path d="M476,167.54l-.35.27-1,.74-3.85,2.69c-3.33,2.3-7.8,5.38-12.73,8.8l-12.78,8.74-3.88,2.64-1.06.7-.38.24.35-.27,1-.74,3.85-2.69,12.74-8.8,12.77-8.74,3.88-2.64,1.06-.7Z" style="fill:#fff"></path><path d="M489.68,180.66s-.08.07-.23.19l-.7.5-2.58,1.82-8.55,5.92L469,195l-2.61,1.76-.72.47-.26.15.24-.19.69-.5,2.58-1.81,8.55-5.93c3.31-2.25,6.29-4.3,8.59-5.87l2.62-1.76c.26-.17.5-.32.71-.47Z" style="fill:#fff"></path><path d="M437,128.46l-.36.27-1,.74-3.84,2.69L419,141l-12.77,8.75c-1.59,1.08-2.9,2-3.88,2.64l-1.07.7-.37.24a4.09,4.09,0,0,1,.35-.27l1-.74,3.85-2.69,12.73-8.8L431.68,132l3.89-2.63,1.06-.7Z" style="fill:#fff"></path><path d="M423.7,115.26l-.36.27-1,.74L418.45,119l-12.73,8.8L393,136.5l-3.88,2.63-1.07.71c-.24.16-.37.23-.37.23a4.09,4.09,0,0,1,.35-.27l1-.74,3.85-2.68,12.73-8.8,12.77-8.75,3.89-2.63,1.06-.71A4,4,0,0,1,423.7,115.26Z" style="fill:#fff"></path><path d="M410.39,102.05s-.12.1-.36.27l-1,.74-3.85,2.69-12.73,8.8-12.77,8.75-3.88,2.63-1.07.7-.37.24a4.09,4.09,0,0,1,.35-.27l1-.74,3.85-2.69,12.73-8.8,12.77-8.74L409,103l1.06-.7Z" style="fill:#fff"></path><path d="M397.08,88.85l-.36.27-1,.74-3.85,2.68-12.73,8.8-12.77,8.75-3.88,2.63-1.07.71c-.24.16-.37.23-.37.23l.35-.26,1-.74,3.85-2.69,12.73-8.8,12.77-8.75,3.89-2.63,1.06-.71A4,4,0,0,1,397.08,88.85Z" style="fill:#fff"></path><path d="M383.77,75.65l-.36.26-1,.74-3.85,2.69-12.73,8.8L353,96.89l-3.88,2.63-1.07.71a4,4,0,0,1-.38.23l.36-.27,1-.74,3.85-2.68L365.67,88l12.77-8.75,3.89-2.63,1.06-.71A4,4,0,0,1,383.77,75.65Z" style="fill:#fff"></path><path d="M370.46,62.44l-.36.27-1,.74-3.85,2.69-12.73,8.79-12.77,8.75c-1.59,1.08-2.9,2-3.88,2.64l-1.07.7-.38.24s.12-.1.36-.27l1-.74,3.85-2.69,12.73-8.8L365.13,66,369,63.38l1.06-.7Z" style="fill:#fff"></path><path d="M337.68,62.63s-3.66,2.64-8.24,5.8-8.33,5.67-8.37,5.62,3.66-2.64,8.25-5.8S337.65,62.58,337.68,62.63Z" style="fill:#fff"></path></g><polygon points="172.39 198.02 445.37 197.62 308.68 62.21 172.39 198.02" style="fill:#fff;opacity:0.2"></polygon></g><g id="freepik--character-2--inject-5"><path d="M553.82,448l-.2-8.59-16.11.26.16,12.58,1,.05c4.45.17,22.63.57,25.58-.38C567.55,450.88,553.82,448,553.82,448Z" style="fill:#DB5461"></path><g style="opacity:0.4"><path d="M560.53,449.66s4.82,1.3,4.23,2.1-19,1.09-27.09.51l0-.36,21.45-.15S559.59,449.71,560.53,449.66Z" style="fill:#fff"></path></g><path d="M537.43,451.9a1.07,1.07,0,0,0,.28,0l.8,0,2.93.08c2.47.05,5.89.07,9.66,0s7.2-.18,9.67-.3l2.92-.17.8-.06.27,0h-.27l-.8,0-2.93.11c-2.47.09-5.88.19-9.66.25s-7.19.05-9.66,0l-2.93,0h-1.08Z" style="fill:#263238"></path><path d="M559.14,452a6.28,6.28,0,0,1,.52-1.41,7.2,7.2,0,0,1,1-1.14,2.24,2.24,0,0,0-1.14,1A2.17,2.17,0,0,0,559.14,452Z" style="fill:#263238"></path><path d="M554.35,449.67s.27-.25.5-.63a1.78,1.78,0,0,0,.33-.72s-.27.25-.5.62S554.3,449.64,554.35,449.67Z" style="fill:#263238"></path><path d="M553,449s.29-.13.57-.39.46-.49.42-.53-.28.14-.56.39S553,449,553,449Z" style="fill:#263238"></path><path d="M552.19,447.49c0,.06.37.1.84.1a2,2,0,0,0,.84-.1c0-.06-.38-.1-.84-.1A1.92,1.92,0,0,0,552.19,447.49Z" style="fill:#263238"></path><path d="M551.89,446.43a1.7,1.7,0,0,0,.94.25,1.57,1.57,0,0,0,1-.14,4.48,4.48,0,0,0-.95-.05A4.39,4.39,0,0,0,551.89,446.43Z" style="fill:#263238"></path><path d="M554.87,448.26a3.12,3.12,0,0,0,1,0A5.54,5.54,0,0,0,557,448a2.54,2.54,0,0,0,.62-.27.52.52,0,0,0,.25-.32.4.4,0,0,0-.16-.41,1.89,1.89,0,0,0-2.34.59,1.78,1.78,0,0,0-.32.69.67.67,0,0,0,0,.28,3.46,3.46,0,0,1,.46-.89,1.86,1.86,0,0,1,.88-.58,1.55,1.55,0,0,1,1.23.06c.17.12.11.31-.08.43a2.66,2.66,0,0,1-.57.25,7.68,7.68,0,0,1-1.06.3C555.27,448.22,554.87,448.22,554.87,448.26Z" style="fill:#263238"></path><path d="M555.14,448.3a1,1,0,0,0,.11-.72,1.87,1.87,0,0,0-.29-.75,1,1,0,0,0-.87-.51.41.41,0,0,0-.32.48,1.2,1.2,0,0,0,.19.46,3,3,0,0,0,.5.62,1.54,1.54,0,0,0,.59.41s-.2-.18-.49-.51a3.11,3.11,0,0,1-.45-.61c-.14-.22-.25-.61,0-.66s.53.22.69.43a1.58,1.58,0,0,1,.3.67A3,3,0,0,1,555.14,448.3Z" style="fill:#263238"></path><path d="M537.69,447.49s.46-.05,1.19,0a5.06,5.06,0,0,1,4.28,3.29c.25.69.28,1.15.32,1.15a.84.84,0,0,0,0-.33,4.27,4.27,0,0,0-.18-.86,5,5,0,0,0-1.67-2.38,4.94,4.94,0,0,0-2.72-1,3.85,3.85,0,0,0-.89,0A1.09,1.09,0,0,0,537.69,447.49Z" style="fill:#263238"></path><path d="M539.26,440.76a25.44,25.44,0,0,0-.09,3.31,27.24,27.24,0,0,0,.11,3.31,54.83,54.83,0,0,0,0-6.62Z" style="fill:#263238"></path><path d="M545.51,450.45a9.26,9.26,0,0,0,2.35.19,8.93,8.93,0,0,0,2.35-.22c0-.06-1.05,0-2.35,0S545.51,450.39,545.51,450.45Z" style="fill:#263238"></path><path d="M542.35,450.49s.09.22.2.46.17.46.23.45.08-.25,0-.53S542.38,450.45,542.35,450.49Z" style="fill:#263238"></path><path d="M541.14,449s.07.2.24.37.33.27.37.23-.07-.2-.24-.37S541.18,449,541.14,449Z" style="fill:#263238"></path><path d="M539.42,448.38c0,.06.23.05.47.13s.41.2.45.17-.1-.26-.39-.36S539.41,448.33,539.42,448.38Z" style="fill:#263238"></path><path d="M538.21,448.08c0,.05.07.13.21.18s.26.05.27,0-.07-.13-.2-.18S538.23,448,538.21,448.08Z" style="fill:#263238"></path><g style="opacity:0.30000000000000004"><polygon points="537.71 447.06 553.79 446.54 553.74 444.6 537.57 446.04 537.71 447.06"></polygon></g><path d="M568.78,446.24l2.73-8.16-15.24-5.21-4.12,11.88.92.39c4.13,1.67,21.1,8.21,24.2,8.32C580.73,453.59,568.78,446.24,568.78,446.24Z" style="fill:#DB5461"></path><g style="opacity:0.4"><path d="M574.54,450.05s4.09,2.87,3.27,3.42-18.22-5.41-25.66-8.72l.14-.33,20.23,7.13S573.64,449.79,574.54,450.05Z" style="fill:#fff"></path></g><path d="M552.05,444.33l.26.12.73.3,2.73,1.07c2.31.89,5.52,2.07,9.09,3.3s6.83,2.27,9.19,3l2.81.83.77.21.27.07a1.4,1.4,0,0,0-.26-.1l-.76-.25L574.1,452c-2.36-.76-5.61-1.82-9.18-3.05s-6.78-2.38-9.1-3.24l-2.75-1-.75-.27A1,1,0,0,0,552.05,444.33Z" style="fill:#263238"></path><path d="M572.44,451.79a6.48,6.48,0,0,1,1-1.15,6.82,6.82,0,0,1,1.3-.73,2.57,2.57,0,0,0-2.27,1.88Z" style="fill:#263238"></path><path d="M568.72,448s.34-.15.68-.42.6-.53.56-.58-.34.15-.68.42S568.69,447.92,568.72,448Z" style="fill:#263238"></path><path d="M567.71,446.89c0,.05.32,0,.66-.17s.61-.31.59-.36-.32,0-.66.18S567.69,446.84,567.71,446.89Z" style="fill:#263238"></path><path d="M567.43,445.19c0,.05.32.21.76.37a1.8,1.8,0,0,0,.82.19c0-.05-.32-.22-.76-.37A1.85,1.85,0,0,0,567.43,445.19Z" style="fill:#263238"></path><path d="M567.51,444.08s.29.35.79.56a1.62,1.62,0,0,0,1,.19,6,6,0,0,0-.88-.37A5.14,5.14,0,0,0,567.51,444.08Z" style="fill:#263238"></path><path d="M569.7,446.81a2.82,2.82,0,0,0,1,.33,5.75,5.75,0,0,0,1.12.13,2.69,2.69,0,0,0,.68,0,.54.54,0,0,0,.35-.22.41.41,0,0,0,0-.44,1.9,1.9,0,0,0-2.4-.24,1.7,1.7,0,0,0-.54.54.63.63,0,0,0-.12.26,3.13,3.13,0,0,1,.73-.68,1.92,1.92,0,0,1,1-.26,1.64,1.64,0,0,1,1.14.48c.11.17,0,.33-.22.38a3.33,3.33,0,0,1-.63,0,7.08,7.08,0,0,1-1.1-.08C570.08,446.91,569.71,446.78,569.7,446.81Z" style="fill:#263238"></path><path d="M569.93,447s.24-.18.35-.64a1.72,1.72,0,0,0,0-.81,1.06,1.06,0,0,0-.65-.78.41.41,0,0,0-.45.35,1,1,0,0,0,0,.5,3.12,3.12,0,0,0,.26.75,1.63,1.63,0,0,0,.43.59s-.14-.25-.3-.65a3.77,3.77,0,0,1-.21-.73c-.06-.25,0-.65.23-.61s.42.39.5.63a1.58,1.58,0,0,1,.06.73A3.59,3.59,0,0,1,569.93,447Z" style="fill:#263238"></path><path d="M553.79,440.27s.45.11,1.12.42a5.1,5.1,0,0,1,2.9,4.55c0,.74-.12,1.18-.09,1.19a.86.86,0,0,0,.11-.31,4.13,4.13,0,0,0,.11-.87,4.87,4.87,0,0,0-3-4.68,4.12,4.12,0,0,0-.84-.27A.92.92,0,0,0,553.79,440.27Z" style="fill:#263238"></path><path d="M557.55,434.47a28.63,28.63,0,0,0-1.21,3.08,30.83,30.83,0,0,0-1,3.15,28.63,28.63,0,0,0,1.21-3.08A29.13,29.13,0,0,0,557.55,434.47Z" style="fill:#263238"></path><path d="M560.14,445.7a9.49,9.49,0,0,0,2.15,1,9.13,9.13,0,0,0,2.29.59c0-.06-1-.34-2.22-.77S560.17,445.65,560.14,445.7Z" style="fill:#263238"></path><path d="M557.16,444.67s0,.24,0,.5,0,.49.06.5.16-.21.13-.52S557.2,444.64,557.16,444.67Z" style="fill:#263238"></path><path d="M556.51,442.88s0,.22.1.43.23.37.27.35,0-.22-.09-.43S556.56,442.86,556.51,442.88Z" style="fill:#263238"></path><path d="M555.12,441.69c0,.06.2.12.39.28s.32.33.37.31,0-.28-.25-.46S555.12,441.64,555.12,441.69Z" style="fill:#263238"></path><path d="M554.08,441s0,.15.13.24.23.13.27.09,0-.15-.14-.24S554.11,441,554.08,441Z" style="fill:#263238"></path><g style="opacity:0.30000000000000004"><polygon points="553.95 439.87 569.26 444.83 569.87 442.99 554.16 438.86 553.95 439.87"></polygon></g><path d="M580.26,287.07l-19,.82h0l-29.07-.82,3.32,159.33,23.42-.78s0-1.76,0-4.88l12.37,3.2s23.31-47.87,28.33-68.27C603.86,358.65,580.26,287.07,580.26,287.07ZM558.89,416.4c-.39-36.77,1.25-99.31,1.79-107,0,0,14.34,55.06,14.47,59.4C575.24,371.48,565.17,396.9,558.89,416.4Z" style="fill:#263238"></path><path d="M558.78,406a10.58,10.58,0,0,1,.09,1.54c0,1.07,0,2.49.08,4.22.06,3.55.09,8.47.11,13.9s0,10.34,0,13.9c0,1.72,0,3.14-.06,4.21a10,10,0,0,1-.08,1.54,10.58,10.58,0,0,1-.09-1.54c0-1.07,0-2.49-.09-4.22-.05-3.55-.09-8.47-.1-13.9s0-10.34,0-13.89c0-1.73,0-3.15.06-4.22A10,10,0,0,1,558.78,406Z" style="fill:#455a64"></path><path d="M547.5,289.23a2.3,2.3,0,0,1,0,.82,9.92,9.92,0,0,1-.46,2.2,10.69,10.69,0,0,1-11.67,7.27,9.32,9.32,0,0,1-2.18-.55,2.49,2.49,0,0,1-.73-.36,24.42,24.42,0,0,0,2.94.6,10.84,10.84,0,0,0,11.34-7.07A22.58,22.58,0,0,0,547.5,289.23Z" style="fill:#455a64"></path><path d="M562.79,289.47a3.17,3.17,0,0,1,.09.83c0,.54.06,1.32.09,2.28,0,1.92.09,4.58.11,7.52v4.14a6,6,0,0,1-.77,3.34,2.88,2.88,0,0,1-1.93,1.28c-.57.06-.85-.1-.84-.12a4.06,4.06,0,0,0,.81-.06A2.75,2.75,0,0,0,562,307.4a6,6,0,0,0,.63-3.17c0-1.28,0-2.67,0-4.13,0-2.94,0-5.59,0-7.52,0-1,0-1.74.05-2.27A3.21,3.21,0,0,1,562.79,289.47Z" style="fill:#455a64"></path><path d="M582,299.39a1.88,1.88,0,0,1-.64,0,10.29,10.29,0,0,1-1.74-.28,14.34,14.34,0,0,1-5.22-2.48,14.06,14.06,0,0,1-3.83-4.33,9.2,9.2,0,0,1-.75-1.6c-.14-.39-.2-.61-.17-.62s.41.82,1.19,2.05a15.87,15.87,0,0,0,8.87,6.68C581.1,299.22,582,299.31,582,299.39Z" style="fill:#455a64"></path><path d="M558.57,291.06c0,.07-.54.16-.85.87a1.43,1.43,0,0,0,0,1.21,1.3,1.3,0,0,0,2.3-.38,1.43,1.43,0,0,0-.37-1.15c-.51-.57-1.08-.47-1.07-.55s.11-.1.36-.09a1.5,1.5,0,0,1,.95.41,1.71,1.71,0,0,1,.56,1.45,1.71,1.71,0,0,1-3.12.5,1.72,1.72,0,0,1,.08-1.55,1.5,1.5,0,0,1,.76-.69C558.43,291,558.57,291,558.57,291.06Z" style="fill:#455a64"></path><path d="M531,291.78c-.68-6,.27-28.83.27-28.83-.85-10.87-4.5-22.7-5.14-30.6-2.19-26.72,18.8-25.94,18.8-25.94l6.79-.77c7,5.06,14.28,8.42,15.47,15.85L582,289.23Z" style="fill:#455a64"></path><path d="M534.93,208.05a13.61,13.61,0,0,0,2.93.34l7.07.45c2.76.17,5.25.35,7.06.52a20,20,0,0,0,2.93.19,11.26,11.26,0,0,0-2.88-.63c-1.8-.28-4.3-.53-7.07-.7s-5.28-.24-7.1-.27A15,15,0,0,0,534.93,208.05Z" style="fill:#263238"></path><g style="opacity:0.2"><polygon points="533.32 235.58 563.24 258.37 560.02 242.22 533.32 235.58"></polygon></g><path d="M580.89,284.13c0,.15-11.25.66-25.13,1.15s-25.15.77-25.16.63,11.25-.66,25.14-1.15S580.88,284,580.89,284.13Z" style="fill:#fafafa"></path><path d="M580.34,281.61c0,.15-11.14.66-24.9,1.14s-24.91.77-24.92.62,11.14-.65,24.9-1.14S580.33,281.47,580.34,281.61Z" style="fill:#fafafa"></path><path d="M548.9,168a9.64,9.64,0,0,0,1.63-7.24,7.9,7.9,0,0,0-4.55-5.73,6.71,6.71,0,0,0-7.09,1.25c-1.6,1.55-2.4,4-4.46,4.88-1.91.8-4.49,0-5.92,1.5-.81.85-.9,2.17-1.58,3.14-.86,1.24-2.47,1.67-3.71,2.54a6.09,6.09,0,0,0-2.5,5.56c.26,2.27,1.76,4.16,3.09,6s2.57,4,2.2,6.28" style="fill:#263238"></path><path d="M535.68,210.07,522.93,176l.82-1.13c5.54-7.62,8-11.76,17.31-10.64h0a12.71,12.71,0,0,1,9.55,8c1.86,4.91,4.24,11.38,5.37,15.43,2,7.19-4.81,10.42-4.81,10.42L554,209.58Z" style="fill:#ffbe9d"></path><path d="M549.57,177.19a1.08,1.08,0,1,1,1.45-.5A1.09,1.09,0,0,1,549.57,177.19Z" style="fill:#263238"></path><path d="M551,174.85c-.08.16-.94-.18-1.93.11s-1.55,1-1.7.91,0-.3.22-.63a2.53,2.53,0,0,1,2.89-.81C550.83,174.58,551,174.78,551,174.85Z" style="fill:#263238"></path><path d="M540.16,179a1.08,1.08,0,1,1-1.34.76A1.09,1.09,0,0,1,540.16,179Z" style="fill:#263238"></path><path d="M540.78,178.64c-.07.16-.94-.18-1.93.11s-1.55,1-1.7.91,0-.29.22-.62a2.55,2.55,0,0,1,1.31-.89,2.59,2.59,0,0,1,1.59.07C540.65,178.38,540.82,178.57,540.78,178.64Z" style="fill:#263238"></path><path d="M547,186a5.36,5.36,0,0,1,1.5-.8c.25-.11.44-.23.41-.37a1.49,1.49,0,0,0-.4-.69c-.45-.57-.9-1.16-1.37-1.77a28.7,28.7,0,0,1-3.25-4.78A28.68,28.68,0,0,1,547.6,182l1.33,1.81a1.7,1.7,0,0,1,.46,1,.7.7,0,0,1-.33.54,1.38,1.38,0,0,1-.42.19A4.82,4.82,0,0,1,547,186Z" style="fill:#263238"></path><path d="M551.17,198A18,18,0,0,1,541,198s3.62,4.55,10.58,1.8Z" style="fill:#eb996e"></path><path d="M547,173.94a1.46,1.46,0,0,0,1.61.08c.59-.25,1.09-.7,1.06-1.22s-.86-.89-1.79-.5S546.62,173.57,547,173.94Z" style="fill:#263238"></path><path d="M537.05,177.39c.44.29,1.11.07,1.78-.16s1.3-.55,1.43-1.06c0-.25-.12-.53-.52-.7a2.26,2.26,0,0,0-2.76,1.05C536.8,176.91,536.85,177.23,537.05,177.39Z" style="fill:#263238"></path><path d="M542.86,187.15c-.15.06.42,1.21,1.81,1.75s2.57.11,2.51-.05-1.11,0-2.29-.53S543,187,542.86,187.15Z" style="fill:#263238"></path><path d="M548.9,168c-1.85,2.12-5.87,2.81-8.62,2.21-1.94-.43-3.94-1.58-5.79-.86s-2.34,2.22-2.39,4.07a3.84,3.84,0,0,1-4,3.58c1.09,3.48,2.22,6,1.92,9.51-.06.63-.77,1.27-1.13,1.78a1.42,1.42,0,0,1-1.63.59,2.17,2.17,0,0,1-1-1.49c-1-3.47-2.61-7.07-3.64-10.54a7.48,7.48,0,0,1,.09-3.87,7.89,7.89,0,0,1,2.63-3.68,37.34,37.34,0,0,1,7.05-5.69,12.63,12.63,0,0,1,8.72-1.7c3,.63,6.71,2.29,7.16,5.29" style="fill:#263238"></path><path d="M527.89,184.19c-.14,0-5.41.34-3.71,5.2,1.48,4.2,5.9,2.05,5.87,1.91S527.89,184.19,527.89,184.19Z" style="fill:#ffbe9d"></path><path d="M527.9,189.71s-.06.07-.17.16a.79.79,0,0,1-.55.16c-.49-.05-1-.67-1.27-1.43a2.49,2.49,0,0,1-.06-1.11.9.9,0,0,1,.41-.71.4.4,0,0,1,.49.09c.09.11.08.2.1.2s.08-.09,0-.26a.47.47,0,0,0-.24-.22.58.58,0,0,0-.43,0,1.11,1.11,0,0,0-.61.86,2.67,2.67,0,0,0,0,1.25c.25.84.89,1.53,1.55,1.55a.82.82,0,0,0,.64-.28C527.92,189.82,527.92,189.72,527.9,189.71Z" style="fill:#eb996e"></path><path d="M670.23,220.86l4.12-.41c2.4-.45,5.86-1.53,7.7-3,1-.81,1.62-1.54,1.42-2.31A1.54,1.54,0,0,0,681.7,214s2.47-.61,1.68-2.35c-.54-1.17-2.41-.56-2.41-.56s3.08-1.46,2.68-2.87a1.35,1.35,0,0,0-1.25-1.05c1.54-1.16,1.42-2,.88-2.62-.68-.81-2-.6-3-.22l-3.37,1.3c-2.09.81-3.61,2.08-1.72-1.35s2-6.79,1.45-7.72a1.22,1.22,0,0,0-2.19.75,14.18,14.18,0,0,1-1.21,3.76,9.19,9.19,0,0,1-1.73,2.65c-.85.91-1.61,1.64-2.27,2.25l-3.35,3.87Z" style="fill:#ffbe9d"></path><rect x="559.18" y="197.7" width="70.49" height="70.49" transform="matrix(-0.98, 0.18, -0.18, -0.98, 1221, 355.45)" style="fill:#DB5461"></rect><rect x="559.18" y="197.7" width="70.49" height="70.49" transform="matrix(-0.98, 0.18, -0.18, -0.98, 1221, 355.45)" style="opacity:0.4"></rect><path d="M554.94,212.87c0-.05,12.53,5.5,27.93,12.39s27.88,12.52,27.86,12.58-12.53-5.5-27.94-12.39S554.91,212.93,554.94,212.87Z" style="fill:#DB5461"></path><path d="M558.35,228.77c0-.05,12.53,5.49,27.94,12.38s27.87,12.53,27.85,12.58-12.53-5.49-27.94-12.39S558.33,228.82,558.35,228.77Z" style="fill:#DB5461"></path><path d="M560.67,244.29S571.54,249,584.9,255s24.17,10.87,24.15,10.92-10.87-4.75-24.24-10.73S560.64,244.35,560.67,244.29Z" style="fill:#DB5461"></path><path d="M568.18,201.9c0-.05,8.94,3.89,19.91,8.8s19.84,8.92,19.81,9-8.93-3.89-19.9-8.79S568.16,202,568.18,201.9Z" style="fill:#DB5461"></path><path d="M563.88,260.84c0-.06,4.62,2.09,10.27,4.79s10.2,4.93,10.18,5-4.62-2.09-10.27-4.79S563.85,260.89,563.88,260.84Z" style="fill:#DB5461"></path><rect x="608.6" y="188.69" width="70.49" height="70.49" transform="matrix(-0.98, 0.18, -0.18, -0.98, 1317.42, 328.7)" style="fill:#DB5461"></rect><path d="M680.58,204.31,676.42,206a4.17,4.17,0,0,0-1.43.79,1.44,1.44,0,0,0-.46,1.48,1.47,1.47,0,0,0,1.32.85,4.3,4.3,0,0,0,1.61-.34l4.52-1.57" style="fill:#ffbe9d"></path><path d="M679.9,207.83l-4.44,1.75a4.47,4.47,0,0,0-1.53.84,1.52,1.52,0,0,0-.48,1.59,1.55,1.55,0,0,0,1.4.9,4.6,4.6,0,0,0,1.71-.36l4.82-1.68" style="fill:#ffbe9d"></path><path d="M680,211.24l-3.73,1.47a3.87,3.87,0,0,0-1.29.71,1.16,1.16,0,0,0,.78,2.09,4,4,0,0,0,1.44-.3l4.05-1.41" style="fill:#ffbe9d"></path><path d="M681.48,213.71l-3.74,1.47a3.9,3.9,0,0,0-1.28.7,1.16,1.16,0,0,0,.77,2.09,3.66,3.66,0,0,0,1.45-.3l4.05-1.41" style="fill:#ffbe9d"></path><path d="M682.73,206.86a10.29,10.29,0,0,1-3,1.34,10.73,10.73,0,0,1-3.18.84,10.29,10.29,0,0,1,3-1.34A10.73,10.73,0,0,1,682.73,206.86Z" style="fill:#eb996e"></path><path d="M681.47,210.83a7.32,7.32,0,0,1-2.68,1.28,7.62,7.62,0,0,1-2.91.61,10.1,10.1,0,0,1,2.75-1.11A9.92,9.92,0,0,1,681.47,210.83Z" style="fill:#eb996e"></path><path d="M681.91,213.82c.05.14-.85.53-2,.89a4.93,4.93,0,0,1-2.15.39c0-.14.85-.54,2-.89A4.76,4.76,0,0,1,681.91,213.82Z" style="fill:#eb996e"></path><path d="M641.31,197.76c-1.5-1.71-8.93,4.19-9.59,4.64s-1.34-.49-.72-.87c.89-.54,10.15-6.46,8.7-8.15-.81-.94-2.36.67-2.36.67s-8.26,6.17-8.92,5.35,4.06-4.62,5.74-5.79,1.79-2.41.67-2.72c-.76-.21-6,3.23-7.64,4.42s-6.07,4.54-5.23,1.11.2-6.38-.53-7.06-1.93.09-1.73,1.17a12.57,12.57,0,0,1-.18,3.55,8.31,8.31,0,0,1-.89,2.71c-.23.43-.45.81-.66,1.18-5.94,3.23-39,21.19-42.46,22.87-3.83,1.85-33.23-6.15-33.23-6.15l-4.58,18.38s29.16,9.55,36.66,10c6.11.37,37.57-22.6,48.95-31.08h0a133,133,0,0,0,13-5.88c4.59-2.57,4.37-3,4-3.46-1-1.3-8.24,4.2-7.38,2.12S642.46,199.07,641.31,197.76Z" style="fill:#ffbe9d"></path><path d="M536.39,236.34l26.19,9,5.08-24.89s-10.33-3.71-20.12-6.68c-7.09-2.15-17.87,0-18.77,7.36h0C526,229.21,531.1,234.32,536.39,236.34Z" style="fill:#455a64"></path><path d="M560.91,244.75a27.22,27.22,0,0,0,.81-3.63c.46-2.25,1.15-5.34,2-8.75s1.56-6.49,2.05-8.74a21.81,21.81,0,0,0,.64-3.67,25.25,25.25,0,0,0-1.07,3.56c-.59,2.22-1.4,5.29-2.22,8.71s-1.44,6.54-1.79,8.81A18.6,18.6,0,0,0,560.91,244.75Z" style="fill:#263238"></path><path d="M530.69,233s-.38-.56-1-1.61a13.1,13.1,0,0,1-1.5-4.82,12.24,12.24,0,0,1,1.35-7.24,12.76,12.76,0,0,1,6.76-5.85,13.74,13.74,0,0,1,4.66-.78,21.63,21.63,0,0,1,4.41.43,53.65,53.65,0,0,1,7.27,2.19c2.05.73,3.71,1.31,4.87,1.67.58.18,1,.3,1.35.39a1.47,1.47,0,0,0,.48.09,13,13,0,0,0-1.75-.7l-4.8-1.85a49.15,49.15,0,0,0-7.31-2.32,17.43,17.43,0,0,0-9.38.33,13.17,13.17,0,0,0-7,6.14,12.78,12.78,0,0,0,.43,12.43,10,10,0,0,0,.82,1.15A2,2,0,0,0,530.69,233Z" style="fill:#263238"></path><path d="M564.19,219.25c.14,0-1.32,5.46-3.27,12.1s-3.64,12-3.78,12,1.33-5.46,3.28-12.1S564.06,219.21,564.19,219.25Z" style="fill:#fafafa"></path><path d="M561.68,218.58c.13,0-1.41,5.37-3.44,11.9s-3.81,11.78-3.94,11.74,1.4-5.37,3.44-11.9S561.54,218.54,561.68,218.58Z" style="fill:#fafafa"></path></g><g id="freepik--character-1--inject-5"><path d="M169.46,238.19c-31.43,6.57-63.55,6.2-102,1.42L85.1,166.7c37,4.49,64,5.53,98,.82Z" style="fill:#e0e0e0"></path><path d="M146,191.81s0,.23-.11.68-.22,1.13-.38,2c-.36,1.75-.87,4.28-1.53,7.49l-5.61,27,0,.17h-.18l-11.59.1h-.28l.05-.28c1.13-6.41,2.38-13.45,3.68-20.81v0A7.24,7.24,0,0,0,127,202a10.72,10.72,0,0,0-7.26-1.12,9.23,9.23,0,0,0-3.82,1.66,10.41,10.41,0,0,0-2.72,3.12,11.35,11.35,0,0,0-.86,1.88c-.23.64-.35,1.33-.52,2l-.93,4c-1.23,5.34-2.43,10.49-3.56,15.4l0,.18h-.19l-14.18,0h-.28l.07-.27c3-11.3,5.46-20.67,7.2-27.25l2-7.59c.23-.85.42-1.51.55-2s.21-.67.21-.67,0,.23-.15.69-.28,1.15-.49,2l-1.92,7.61c-1.7,6.59-4.12,16-7,27.3l-.21-.28,14.18,0-.24.19c1.13-4.91,2.31-10.06,3.53-15.41.31-1.33.62-2.68.93-4a20.81,20.81,0,0,1,.53-2.06,12.86,12.86,0,0,1,.9-2,10.78,10.78,0,0,1,2.85-3.28,9.81,9.81,0,0,1,4-1.76,11.14,11.14,0,0,1,7.63,1.19,7,7,0,0,1,2.53,2.92,8.67,8.67,0,0,1,.8,3.71h0v0L126.83,229l-.23-.27,11.59-.06-.21.17c2.41-11.18,4.4-20.43,5.79-26.91.7-3.2,1.26-5.72,1.64-7.47q.28-1.26.45-2C146,192,146,191.81,146,191.81Z" style="fill:#263238"></path><path d="M101.59,191.61a.75.75,0,0,1,.24,0l.7,0,2.71-.05,10-.08,15-.06c5.65,0,11.89-.05,18.48,0l-.12.49-3.46-1.76L126,180.36h.2L106.69,189l-5.56,2.4-1.48.62a4.29,4.29,0,0,1-.52.19,2.55,2.55,0,0,1,.49-.26l1.45-.69,5.51-2.52L126,179.94l.1-.05.1.05,19.11,9.73,3.46,1.77,1,.51-1.11,0c-6.59-.1-12.83-.07-18.48-.09l-15-.06-10-.08-2.71,0-.7,0Z" style="fill:#263238"></path><path d="M146,191.81a2.76,2.76,0,0,1,.64-.09l1.84-.15,6.74-.44h.26l-.06.25-4.1,18.5L147,229l0,.15h-.15L140.5,229l-1.71-.07a2.41,2.41,0,0,1-.6-.06,3.56,3.56,0,0,1,.6,0l1.71,0,6.29,0-.18.15c1.1-5,2.59-11.72,4.23-19.13,1.63-7.12,3.12-13.6,4.24-18.48l.19.24-6.75.27-1.84,0A2.53,2.53,0,0,1,146,191.81Z" style="fill:#263238"></path><path d="M156.28,191.33a6.1,6.1,0,0,1-1.19-.51l-3.17-1.55c-2.66-1.33-6.33-3.2-10.36-5.29l-6.91-3.62.1,0c-2.58,0-4.74,0-6.25-.09a14.77,14.77,0,0,1-2.38-.14,15.77,15.77,0,0,1,2.38-.13c1.51,0,3.67-.07,6.25-.09h.06l.05,0,6.94,3.57c4,2.09,7.67,4,10.29,5.42l3.09,1.7A5.47,5.47,0,0,1,156.28,191.33Z" style="fill:#263238"></path><path d="M149.52,218.47c0,.14-4.68.23-10.45.19a103.21,103.21,0,0,1-10.44-.33c0-.14,4.68-.23,10.45-.19A103.39,103.39,0,0,1,149.52,218.47Z" style="fill:#263238"></path><path d="M151.47,208.18a104.31,104.31,0,0,1-10.58.23c-5.85,0-10.59-.14-10.59-.28s4.74-.25,10.59-.24S151.47,208,151.47,208.18Z" style="fill:#263238"></path><path d="M118.41,218.44c0,.14-5.1.23-11.39.19s-11.39-.19-11.39-.33,5.1-.23,11.39-.19S118.42,218.29,118.41,218.44Z" style="fill:#263238"></path><path d="M120.69,208.15c0,.15-5.09.25-11.37.24S98,208.24,98,208.1s5.09-.25,11.37-.24S120.69,208,120.69,208.15Z" style="fill:#263238"></path><path d="M127.43,202a1.2,1.2,0,0,1-.41.06l-.49,0c-.19,0-.41.08-.66.12a5.59,5.59,0,0,0-1.67.69,6.65,6.65,0,0,0-1.71,1.66,9.93,9.93,0,0,0-1.29,2.61c-.33,1-.5,2.13-.77,3.31-.52,2.36-1.08,4.95-1.67,7.67-.9,4-1.73,7.7-2.43,10.83l0,.17h-.18l-6.58-.09-1.84-.06a2.32,2.32,0,0,1-.64-.07,2.69,2.69,0,0,1,.64-.06l1.84-.06,6.58-.1-.21.17c.68-3.13,1.48-6.85,2.35-10.84.6-2.71,1.18-5.3,1.71-7.66.29-1.17.46-2.31.83-3.35a10.05,10.05,0,0,1,1.41-2.69,6.72,6.72,0,0,1,1.85-1.69,5.29,5.29,0,0,1,1.78-.64,6.71,6.71,0,0,1,.69-.07l.5,0A1.91,1.91,0,0,1,127.43,202Z" style="fill:#263238"></path><path d="M165.84,180.15c.14,0-2.35,11.06-5.56,24.61s-5.93,24.52-6.07,24.49,2.35-11.05,5.56-24.61S165.7,180.12,165.84,180.15Z" style="fill:#263238"></path><path d="M163,229.32a63.21,63.21,0,0,1-8.2.08,66.84,66.84,0,0,1-8.19-.45,64.57,64.57,0,0,1,8.2-.07A65.77,65.77,0,0,1,163,229.32Z" style="fill:#263238"></path><path d="M155.59,230.75c-.13.07-.59-.62-1.18-1.43s-1.11-1.46-1-1.57.8.4,1.43,1.26S155.72,230.69,155.59,230.75Z" style="fill:#263238"></path><path d="M167.36,208a60.36,60.36,0,0,1-7.9.3,60.58,60.58,0,0,1-7.91-.21,59.59,59.59,0,0,1,7.91-.31A61.45,61.45,0,0,1,167.36,208Z" style="fill:#263238"></path><path d="M160.4,207.16c.09.11-.4.65-1.1,1.2s-1.33.9-1.42.78.4-.64,1.1-1.19S160.31,207.05,160.4,207.16Z" style="fill:#263238"></path><path d="M169.67,192.24a54.6,54.6,0,0,1-7.45-.07,54,54,0,0,1-7.44-.59,54.76,54.76,0,0,1,7.46.07A51.9,51.9,0,0,1,169.67,192.24Z" style="fill:#263238"></path><path d="M165.17,191.05c.07.13-.55.57-1.38,1s-1.55.64-1.62.51.56-.57,1.38-1S165.11,190.92,165.17,191.05Z" style="fill:#263238"></path><path d="M169.19,181.24c0,.14-7.72,0-17.23-.28s-17.21-.66-17.21-.81,7.72,0,17.23.29S169.19,181.1,169.19,181.24Z" style="fill:#263238"></path><path d="M168,179.8c.08.12-.81.86-2,1.66a6.64,6.64,0,0,1-2.28,1.22c-.08-.12.81-.86,2-1.66A6.73,6.73,0,0,1,168,179.8Z" style="fill:#263238"></path><path d="M92.22,203.11c-3.29-5.56-4.24-13-5.07-19.38-.39-3-1.08-7.31,1-9.2,2.28-2,2.49-5.13,5.11-6.69a8,8,0,0,1,8.61.09" style="fill:#263238"></path><path d="M101.34,222.81h0a8.92,8.92,0,0,0,9.62-8.53c.2-4.85.38-9.77.38-9.77s7.37-.66,7.92-7.95.36-24.1.36-24.1h0A25.39,25.39,0,0,0,94,174l.38,25.65,0,13.79C94.33,218.1,96.73,222.44,101.34,222.81Z" style="fill:#b78876"></path><path d="M112,187.65a3.74,3.74,0,0,0-5-1.1,4.24,4.24,0,0,0-1.43,5.29,5.58,5.58,0,0,0,3.57,2.71,2.78,2.78,0,0,1,2.18,3c-.21,1.83-3.26,2.5-4.63,4-2.15,2.35-6.84,3.33-10,3.7s-2.73.39-4.53-2.17a9.78,9.78,0,0,1-1.76-5.92q-.13-8.06-.28-16.11a22.89,22.89,0,0,1,.38-5.79,7.74,7.74,0,0,1,3.07-4.77c1.77-1.16,4-1.25,6-1.9,2.52-.81,4.67-2.48,7-3.68s5.26-1.91,7.63-.71c1.7.85,2.84,2.56,4.49,3.5,2.35,1.35,5.56,1.05,6.69,4.52a5.89,5.89,0,0,1-.05,3.71c-1.61,4.7-7.45,6.59-11.65,4.54-.09.8.69,2.57-.15,5.09-.28.81-.37,2-1.63,2.06" style="fill:#263238"></path><path d="M110.71,192.19s0,.14-.1.32a1.1,1.1,0,0,1-.82.4,2,2,0,0,1-1.88-2,2.15,2.15,0,0,1,.54-1.54,2.2,2.2,0,0,1,1.14-.65c.75-.16,1.19.12,1.15.17s-.44,0-1,.18a1.84,1.84,0,0,0-1.26,1.82,1.7,1.7,0,0,0,1.37,1.67A1.37,1.37,0,0,0,110.71,192.19Z" style="fill:#aa6550"></path><path d="M89.73,182.81A9.05,9.05,0,0,0,83.49,178a7.63,7.63,0,0,0-7.28,2.64,6.63,6.63,0,0,0-.35,7.6c1.76,2.57,5.13,3.38,8.21,3.79a12.67,12.67,0,0,1-9,4.3,8.17,8.17,0,0,0,8.33.42l-5,4.26a11.18,11.18,0,0,0,9.23-19.93" style="fill:#263238"></path><path d="M85.1,191.72a5.11,5.11,0,0,0,2.43-.42,6.22,6.22,0,0,0,3.26-4.72,6.71,6.71,0,0,0-1.72-5.53,13,13,0,0,0-1.95-1.6s.26,0,.66.23a6.09,6.09,0,0,1,1.55,1.11,6.69,6.69,0,0,1,2,5.86,6.33,6.33,0,0,1-3.62,5,3.92,3.92,0,0,1-1.91.3C85.32,191.87,85.09,191.75,85.1,191.72Z" style="fill:#DB5461"></path><path d="M74.57,184.37c-.06,0,.38-1,1.91-1.73a10.41,10.41,0,0,1,6.2-.36,13.63,13.63,0,0,1,5.66,2.6,11,11,0,0,1,1.39,1.28c.29.34.43.54.41.56s-.73-.66-2-1.54a15.14,15.14,0,0,0-5.54-2.39,11.07,11.07,0,0,0-6,.19A6,6,0,0,0,74.57,184.37Z" style="fill:#455a64"></path><path d="M76.76,189.26c0-.08.69.08,1.78.1A9.29,9.29,0,0,0,86,185.92c.69-.85,1-1.46,1.08-1.43a3.66,3.66,0,0,1-.79,1.65,8.48,8.48,0,0,1-7.73,3.58A3.64,3.64,0,0,1,76.76,189.26Z" style="fill:#455a64"></path><path d="M87.83,199.07c0-.07.68-.52,1.61-1.5a10.11,10.11,0,0,0,2.53-9.7c-.34-1.31-.76-2.05-.68-2.1a4.88,4.88,0,0,1,1,2,9.61,9.61,0,0,1-2.62,10.07A5,5,0,0,1,87.83,199.07Z" style="fill:#455a64"></path><path d="M103.19,170.2a5.85,5.85,0,0,0-6.1-.52,7.78,7.78,0,0,0-3,2.72,17.39,17.39,0,0,0-2.35,7.12,17.92,17.92,0,0,1-.58,3.13,20.38,20.38,0,0,1,.21-3.18,16.36,16.36,0,0,1,2.29-7.36,7.92,7.92,0,0,1,3.22-2.87,6.36,6.36,0,0,1,3.48-.52,4.9,4.9,0,0,1,2.21.87C103,169.92,103.21,170.19,103.19,170.2Z" style="fill:#455a64"></path><path d="M123.69,177.71a5.88,5.88,0,0,0,.88-.51,2.35,2.35,0,0,0,.84-2.38,2.43,2.43,0,0,0-1-1.42,3.64,3.64,0,0,0-2.06-.34A6.16,6.16,0,0,1,121,173a3,3,0,0,1-1.25-.57,14.38,14.38,0,0,1-1.85-2,8.8,8.8,0,0,0-4.26-2.51,9.69,9.69,0,0,0-4.09-.22A12.52,12.52,0,0,0,106,169a3.08,3.08,0,0,1,.84-.64,8.35,8.35,0,0,1,2.69-1,9.58,9.58,0,0,1,4.27.11,9.05,9.05,0,0,1,4.52,2.63,16.08,16.08,0,0,0,1.78,1.93,3.21,3.21,0,0,0,2.2.56,4,4,0,0,1,2.3.46,2.69,2.69,0,0,1,1.17,1.7,2.39,2.39,0,0,1-.23,1.68,2.66,2.66,0,0,1-.84,1,2,2,0,0,1-.73.32C123.78,177.73,123.69,177.73,123.69,177.71Z" style="fill:#455a64"></path><path d="M104.13,197.93a2.76,2.76,0,0,1-1.06-.41,5.78,5.78,0,0,1-2.66-6.82,5.89,5.89,0,0,1,1.42-2.4,10.74,10.74,0,0,1,2.39-1.75c.87-.5,1.72-1,2.49-1.46a8.14,8.14,0,0,0,1.92-1.76,8.71,8.71,0,0,0,1.73-4.06,10.89,10.89,0,0,0-.29-4.12s.07.08.15.26a4.38,4.38,0,0,1,.28.8,7.91,7.91,0,0,1,.23,3.11,8.8,8.8,0,0,1-1.72,4.3,8.31,8.31,0,0,1-2,1.89c-.79.54-1.66,1-2.51,1.49a10.68,10.68,0,0,0-2.29,1.66,5.62,5.62,0,0,0-1.33,2.19,5.57,5.57,0,0,0,.33,4.28,6,6,0,0,0,2,2.22C103.77,197.75,104.15,197.88,104.13,197.93Z" style="fill:#455a64"></path><path d="M91.53,187.2c0-.11,1.37.16,3.53-.07a17.12,17.12,0,0,0,7.87-2.84,13.23,13.23,0,0,0,5.29-6.36,6.32,6.32,0,0,0,.11-3.43,2.23,2.23,0,0,1,.36.9,5.54,5.54,0,0,1-.12,2.64c-.57,2.19-2.53,4.78-5.35,6.68a16.11,16.11,0,0,1-8.13,2.77,13.62,13.62,0,0,1-2.62-.08A3.24,3.24,0,0,1,91.53,187.2Z" style="fill:#455a64"></path><path d="M174.75,229l-4.37,4.84-21.63,25.51a12,12,0,0,1-20.37-3.5l-7.53-16.14,12.83-7.22c.61.47,7.29,13.49,7.29,13.49,1.95-.62,24-22.77,24-22.77h0l.28-1.4c.11-.57.23-1.21.34-1.94a7.53,7.53,0,0,0-.05-2.55,11.72,11.72,0,0,0-.89-3.05c-.48-.85.29-1.85,1.08-1.49s2.18,2.66,2.49,5.79,2.87-.08,3.86-1.56c1.31-2,3.9-.79,2.95,1.58a1.7,1.7,0,0,1,1.17.77,2.92,2.92,0,0,1,.12,2.28,7.77,7.77,0,0,1,.19,3A11.46,11.46,0,0,1,174.75,229Z" style="fill:#b78876"></path><polygon points="112.17 350.49 133.03 446.71 148.77 446.35 135.06 354.33 112.17 350.49" style="fill:#b78876"></polygon><path d="M150.92,448l-.07-1.76-17.82.51.15,5.81,1.11,0c4.9.12,24.94.3,28.19-.71C166.09,450.71,150.92,448,150.92,448Z" style="fill:#DB5461"></path><g style="opacity:0.6000000000000001"><path d="M139.61,452.21a5.66,5.66,0,0,0-2.37-3.45,6.3,6.3,0,0,0-4.18-1.09l.13,4.61Z" style="fill:#fff"></path></g><g style="opacity:0.6000000000000001"><path d="M158.34,449.55s5.33,1.27,4.7,2.1-20.9,1.36-29.86.87l0-.37,23.64-.44S157.31,449.61,158.34,449.55Z" style="fill:#fff"></path></g><path d="M132.92,452.14l.31,0,.88,0,3.22.05c2.73,0,6.5,0,10.66-.11s7.92-.28,10.64-.44l3.22-.21.88-.07.3,0h-.3l-.88,0-3.23.14c-2.72.12-6.48.27-10.64.38s-7.92.15-10.65.17h-3.22l-.88,0Z" style="fill:#263238"></path><path d="M156.84,452a7.21,7.21,0,0,1,.56-1.45,7,7,0,0,1,1.06-1.17,2.38,2.38,0,0,0-1.25,1.07A2.13,2.13,0,0,0,156.84,452Z" style="fill:#263238"></path><path d="M151.53,449.64c.05,0,.29-.26.54-.65s.41-.72.36-.75-.3.26-.54.65S151.48,449.61,151.53,449.64Z" style="fill:#263238"></path><path d="M150.07,449s.32-.14.62-.41.5-.5.46-.54-.31.14-.61.4S150,448.93,150.07,449Z" style="fill:#263238"></path><path d="M149.12,447.44a2.34,2.34,0,0,0,.93.08,2.41,2.41,0,0,0,.92-.11,4.13,4.13,0,0,0-1.85,0Z" style="fill:#263238"></path><path d="M148.77,446.35a2,2,0,0,0,1,.25,1.93,1.93,0,0,0,1.07-.16,6.21,6.21,0,0,0-1.06,0A5.8,5.8,0,0,0,148.77,446.35Z" style="fill:#263238"></path><path d="M152.09,448.18a3.75,3.75,0,0,0,1.14,0,7.51,7.51,0,0,0,1.2-.28,3.64,3.64,0,0,0,.69-.29.56.56,0,0,0,.27-.34.4.4,0,0,0-.18-.42,2.2,2.2,0,0,0-2.57.64,1.73,1.73,0,0,0-.35.72.6.6,0,0,0,0,.29,2.78,2.78,0,0,1,.49-.92,2,2,0,0,1,1-.62,1.93,1.93,0,0,1,1.36.05c.18.12.12.32-.08.44a3.52,3.52,0,0,1-.63.27,9.15,9.15,0,0,1-1.17.32C152.52,448.14,152.09,448.15,152.09,448.18Z" style="fill:#263238"></path><path d="M152.39,448.23a1.05,1.05,0,0,0,.1-.74,1.6,1.6,0,0,0-.33-.77,1.15,1.15,0,0,0-1-.51.41.41,0,0,0-.33.49,1,1,0,0,0,.21.47,3.18,3.18,0,0,0,.55.63,1.61,1.61,0,0,0,.67.41s-.23-.18-.56-.51a3.74,3.74,0,0,1-.5-.62c-.16-.22-.28-.62,0-.68a1.07,1.07,0,0,1,.76.43,1.67,1.67,0,0,1,.34.68A4.56,4.56,0,0,1,152.39,448.23Z" style="fill:#263238"></path><path d="M133.15,447.62s.5-.06,1.31,0a5.91,5.91,0,0,1,2.89,1,5.4,5.4,0,0,1,1.86,2.3c.29.7.33,1.18.37,1.17s0-.12,0-.33a3.89,3.89,0,0,0-.22-.89,5.08,5.08,0,0,0-1.87-2.41,5.73,5.73,0,0,0-3-1,4.57,4.57,0,0,0-1,.05A.94.94,0,0,0,133.15,447.62Z" style="fill:#263238"></path><path d="M141.8,450.55a15.71,15.71,0,0,0,5.18-.09c0-.06-1.16,0-2.59.06S141.8,450.49,141.8,450.55Z" style="fill:#263238"></path><path d="M138.32,450.63s.1.23.23.47.19.46.26.46.08-.26-.07-.54S138.36,450.59,138.32,450.63Z" style="fill:#263238"></path><path d="M137,449.15s.08.21.27.38.38.27.42.23-.08-.21-.27-.38S137,449.11,137,449.15Z" style="fill:#263238"></path><path d="M135.07,448.51c0,.05.25.05.51.12s.45.21.5.17-.11-.26-.44-.36S135.05,448.46,135.07,448.51Z" style="fill:#263238"></path><path d="M133.72,448.22s.09.13.23.18.29.05.31,0-.08-.13-.23-.18S133.74,448.16,133.72,448.22Z" style="fill:#263238"></path><polygon points="73.65 347.24 68.58 441.2 84.07 444.94 95.69 349.22 73.65 347.24" style="fill:#b78876"></polygon><polygon points="68.12 440.84 65.48 452.44 83.31 452.44 84.07 444.89 68.12 440.84" style="fill:#DB5461"></polygon><path d="M83.67,450.76a13.38,13.38,0,0,1-2.59.15c-1.61,0-3.83,0-6.27-.12l-6.26-.27a14.42,14.42,0,0,1-2.59-.2,12.26,12.26,0,0,1,2.6-.14c1.61,0,3.82,0,6.27.12l6.25.26A14.42,14.42,0,0,1,83.67,450.76Z" style="fill:#263238"></path><path d="M76.12,443.1a14.34,14.34,0,0,1,0,3.76,15.05,15.05,0,0,1-.49,3.72,14.06,14.06,0,0,1,0-3.76A14.24,14.24,0,0,1,76.12,443.1Z" style="fill:#263238"></path><g style="opacity:0.6000000000000001"><polyline points="65.48 452.44 83.31 452.44 83.48 450.76 65.8 450.32 65.48 452.24" style="fill:#fff"></polyline></g><path d="M65.82,245.45l-6,14.24a8.09,8.09,0,0,0,5.23,10.14h0a8.08,8.08,0,0,0,10.13-5.09L80,250.69Z" style="fill:#b78876"></path><path d="M82.13,275.77s-10.87,18.17-10.87,29L63.87,421.63,93.33,425l7.16-114.46s24.09,116.16,25.11,116.16,26.83-1.7,26.83-1.7L124.58,276.35Z" style="fill:#263238"></path><path d="M147,425.13c-.14,0-6.11-33.25-13.34-74.33s-13-74.4-12.84-74.42,6.12,33.25,13.35,74.33S147.13,425.11,147,425.13Z" style="fill:#e0e0e0"></path><path d="M138.31,426.73c-.14,0-6-33.62-13.17-75.13s-12.81-75.2-12.66-75.22,6,33.61,13.17,75.13S138.45,426.7,138.31,426.73Z" style="fill:#e0e0e0"></path><path d="M130.47,426.45c-.14,0-6.78-33.74-14.83-75.4s-14.46-75.48-14.31-75.51,6.77,33.73,14.82,75.41S130.61,426.42,130.47,426.45Z" style="fill:#e0e0e0"></path><path d="M89.41,424.58c-.15,0,1.46-33.29,3.58-74.31s4-74.3,4.1-74.3-1.46,33.28-3.58,74.32S89.55,424.58,89.41,424.58Z" style="fill:#e0e0e0"></path><path d="M90.41,275.77s0,.12-.16.35l-.48,1c-.4.9-1,2.24-1.63,4a61.49,61.49,0,0,0-3.54,15.44c-1,13.4-1.88,32-3,52.44s-2.07,39-2.78,52.47c-.37,6.69-.67,12.11-.88,15.89l-.26,4.33-.08,1.12a1.65,1.65,0,0,1,0,.38,2.21,2.21,0,0,1,0-.38l0-1.13.17-4.33.71-15.9c.63-13.43,1.54-32,2.63-52.48s2.06-39,3.14-52.45A59.59,59.59,0,0,1,88,281.07c.68-1.76,1.29-3.09,1.73-4,.22-.44.4-.77.52-1A2.33,2.33,0,0,1,90.41,275.77Z" style="fill:#e0e0e0"></path><path d="M83.37,275.54a1.32,1.32,0,0,1-.13.36c-.1.26-.24.61-.42,1-.38.91-1,2.24-1.6,4a86.57,86.57,0,0,0-4.14,15.25c-.58,3.29-1.06,6.92-1.41,10.83s-.55,8.11-.75,12.53c-.33,8.85-1.14,18.55-1.86,28.73-1.51,20.37-2.88,38.8-3.88,52.17-.52,6.65-.94,12-1.23,15.8l-.37,4.3-.1,1.11a2,2,0,0,1-.06.38,1.83,1.83,0,0,1,0-.38l.06-1.12c.06-1,.15-2.46.26-4.3.26-3.77.62-9.16,1.07-15.82,1-13.37,2.28-31.81,3.73-52.17.72-10.19,1.55-19.88,1.9-28.72.21-4.42.44-8.62.8-12.55s.87-7.56,1.47-10.86A83.77,83.77,0,0,1,81,280.87c.65-1.76,1.28-3.07,1.69-4l.47-1A2,2,0,0,1,83.37,275.54Z" style="fill:#e0e0e0"></path><path d="M112.48,313.5c0,.14-5.76-1.14-12.79-2.86S87,307.42,87,307.28s5.75,1.14,12.78,2.86S112.51,313.36,112.48,313.5Z" style="fill:#455a64"></path><path d="M82.13,275.77,87.21,261l-3.53-17.88L80.92,251l-17.05-6.26s11-22.08,11.6-23.24c5-10.6,18.49-10.6,18.49-10.6l17.12.45a18.72,18.72,0,0,1,14.71,5.7c4.9,4.94,15.4,27.67,15.4,27.67l-15.4,8.1-5.5-10.28,1,14.06,3.55,21.42Z" style="fill:#DB5461"></path><path d="M117.88,216c0,.05-.48.07-1.26.39a5.88,5.88,0,0,0-2.61,2.33,7.76,7.76,0,0,0-1.06,5.05,19.59,19.59,0,0,0,2,6.18c2,4.25,3.74,8.13,5,10.94l1.46,3.34a7.33,7.33,0,0,1,.47,1.25,6.21,6.21,0,0,1-.66-1.17l-1.6-3.27c-1.35-2.77-3.15-6.61-5.14-10.87a19.63,19.63,0,0,1-2-6.35,8,8,0,0,1,1.23-5.29,5.82,5.82,0,0,1,2.85-2.33,3.68,3.68,0,0,1,1-.21C117.76,216,117.88,216,117.88,216Z" style="fill:#263238"></path><path d="M87.38,261.84c-.15,0-2.2-9.25-4.59-20.72s-4.21-20.8-4.07-20.83,2.19,9.25,4.58,20.72S87.52,261.81,87.38,261.84Z" style="fill:#263238"></path><g style="opacity:0.2"><path d="M88.64,260.69c3.21,2.41,8,1.6,11.91.95A17.22,17.22,0,0,0,110.92,256a7,7,0,0,0,1.92-4.9c-.15-1.8-1.74-3.53-3.53-3.32-2,.25-3,2.55-4,4.36A15.9,15.9,0,0,1,88.71,260S88.07,260.26,88.64,260.69Z"></path></g><path d="M113.1,247.92a4.16,4.16,0,0,1,0,1.23,11.85,11.85,0,0,1-.83,3.27,15.86,15.86,0,0,1-7.48,8A22,22,0,0,1,94,262.57a25.53,25.53,0,0,1-3.34-.34,5.37,5.37,0,0,1-1.19-.28c0-.1,1.73.22,4.54.25a22.94,22.94,0,0,0,10.55-2.26,16.09,16.09,0,0,0,7.38-7.67A18,18,0,0,0,113.1,247.92Z" style="fill:#263238"></path><g style="opacity:0.2"><path d="M113.1,225.83c1,8.07,2.31,14.7,4,22.66.83,3.91,1.83,8,4.54,10.95l-1.56-17.9Z"></path></g></g></svg>