<svg xmlns="http://www.w3.org/2000/svg" viewBox="0 0 500 500"><g id="freepik--Floor--inject-442"><path d="M442.77,438.07c0,.14-92.34.26-206.23.26s-206.26-.12-206.26-.26,92.33-.26,206.26-.26S442.77,437.93,442.77,438.07Z" style="fill:#263238"></path></g><g id="freepik--Character--inject-442"><path d="M404.43,358.51c-5.8.72-31.19-.28-31.19-.28l-9.68,1.28-4.88-24.84c6.42-1.59,18.48-6.53,20-8.06a26.41,26.41,0,0,0,3.93-4.53,27.84,27.84,0,0,0,3.26-6.73c.5-2.25,3.42-2.78,4.24-.9s-.38,8.1-4.8,14.06,12,3,16.12,2h0a5.45,5.45,0,0,1,1.63,8.3L402,340.13Z" style="fill:#ffbe9d"></path><path d="M382.05,352c-.1,0-.3-.66-1-1.61a6.63,6.63,0,0,0-3.87-2.52l-.87-.18.75-.5a11.06,11.06,0,0,0,2.76-2.64,12.43,12.43,0,0,0,2.39-6.94c.09-1.92-.32-3.1-.17-3.13a5.83,5.83,0,0,1,.75,3.13,11.84,11.84,0,0,1-2.33,7.42,10.75,10.75,0,0,1-3,2.79l-.12-.68a6.6,6.6,0,0,1,4.08,3C382.07,351.22,382.12,352,382.05,352Z" style="fill:#eb996e"></path><path d="M390.84,316l-1.38,22.81a37.54,37.54,0,0,1-5.78,16.65,19.21,19.21,0,0,1-1.33,1.76c-2.75,3.15-5,8.65-5,16.16v64.66c.67.13,35,.22,35.77,0l0-64.23s.78-9.66-4.65-16.17c-3.83-4.58-6.59-10.05-6.87-18.72-.15-4.79-.88-23-.88-23Z" style="fill:#DB5461"></path><path d="M390.84,316l-1.38,22.81a37.54,37.54,0,0,1-5.78,16.65,19.21,19.21,0,0,1-1.33,1.76c-2.75,3.15-5,8.65-5,16.16v64.66c.67.13,35,.22,35.77,0l0-64.23s.78-9.66-4.65-16.17c-3.83-4.58-6.59-10.05-6.87-18.72-.15-4.79-.88-23-.88-23Z" style="opacity:0.2"></path><rect x="385.76" y="375.34" width="27.31" height="38.06" style="fill:#ebebeb"></rect><g style="opacity:0.30000000000000004"><path d="M390.73,340a3.21,3.21,0,0,0-.42,2.88,3.16,3.16,0,0,0,2.12,2A4.19,4.19,0,0,0,394,352a3.8,3.8,0,0,0,1.4,4.76,5.85,5.85,0,0,0,5.24.33A13.38,13.38,0,0,0,405,354l.27-.3L404,350.86l-2.27-16.92Z"></path></g><path d="M401.42,330.89a31.29,31.29,0,0,0-9.7,7.09c-1,1.08-2,2.49-1.57,3.9s2.18,2.14,3.66,1.87a9,9,0,0,0,3.88-2.19c1.17-.95,4-3.41,4.13-3.14a68.51,68.51,0,0,0-7.56,6.91c-.95.93-1.95,2.09-1.77,3.41.23,1.71,3,2.38,4.29,1.25s4.44-3.59,4.44-3.59c.25.05-4.32,4-5.4,6-.54,1-.86,2.38,0,3.09s2.3,0,3.24-.75l4.35-3.45a4.7,4.7,0,0,0,2-2.6c.2-1.11-.74-4.06-1.76-3.59a5.81,5.81,0,0,0,2.16-3.62c0-1.7-1.4-3.18-2.82-3" style="fill:#ffbe9d"></path><path d="M396.36,398.61a1.3,1.3,0,0,1,.71.12,3,3,0,0,1,1.5,1.31,2.89,2.89,0,0,1,.06,2.94,3.3,3.3,0,0,1-3.21,1.63,3.25,3.25,0,0,1-2.58-2.5,2.88,2.88,0,0,1,.91-2.8,3,3,0,0,1,1.82-.8,1.29,1.29,0,0,1,.72.09s-.26,0-.69.11a3.06,3.06,0,0,0-1.59.87,2.54,2.54,0,0,0-.71,2.42,2.64,2.64,0,0,0,4.91.74,2.54,2.54,0,0,0,0-2.53,3.21,3.21,0,0,0-1.26-1.3C396.6,398.71,396.35,398.66,396.36,398.61Z" style="fill:#263238"></path><path d="M395.88,392.69a1.34,1.34,0,0,1,.72.12,3,3,0,0,1,1.5,1.31,2.87,2.87,0,0,1,0,2.94,3.1,3.1,0,0,1-5.79-.87,2.88,2.88,0,0,1,.92-2.79,2.93,2.93,0,0,1,1.81-.81,1.23,1.23,0,0,1,.72.09c0,.05-.26,0-.69.11a3.06,3.06,0,0,0-1.59.87,2.53,2.53,0,0,0-.7,2.42,2.64,2.64,0,0,0,4.91.74,2.55,2.55,0,0,0,0-2.52,3,3,0,0,0-1.27-1.3C396.12,392.79,395.87,392.74,395.88,392.69Z" style="fill:#263238"></path><path d="M401.17,395.09s.27,0,.71.12a3,3,0,0,1,1.5,1.3,2.91,2.91,0,0,1,.06,2.95,3.1,3.1,0,0,1-5.79-.87,2.89,2.89,0,0,1,.91-2.8,3.1,3.1,0,0,1,1.82-.81c.47,0,.72.07.72.1a6.24,6.24,0,0,1-.69.1,3.17,3.17,0,0,0-1.59.88,2.51,2.51,0,0,0-.7,2.42,2.64,2.64,0,0,0,4.91.74,2.56,2.56,0,0,0,0-2.53,3.15,3.15,0,0,0-1.26-1.3A6.87,6.87,0,0,1,401.17,395.09Z" style="fill:#263238"></path><path d="M400.7,389.13s.27-.05.71.12a3,3,0,0,1,1.5,1.3,2.89,2.89,0,0,1,.06,2.94,3.1,3.1,0,0,1-5.79-.86,2.89,2.89,0,0,1,.91-2.8,3.1,3.1,0,0,1,1.82-.81c.48,0,.73.07.72.1a6.24,6.24,0,0,1-.69.1,3.06,3.06,0,0,0-1.59.87,2.53,2.53,0,0,0-.7,2.43,2.81,2.81,0,0,0,2.19,2.09,2.84,2.84,0,0,0,2.72-1.36,2.54,2.54,0,0,0,0-2.52,3,3,0,0,0-1.26-1.3A6.87,6.87,0,0,1,400.7,389.13Z" style="fill:#263238"></path><path d="M406.07,391.71a1.3,1.3,0,0,1,.71.12,3,3,0,0,1,1.5,1.31,2.89,2.89,0,0,1,.06,2.94,3.1,3.1,0,0,1-5.79-.87,2.88,2.88,0,0,1,.91-2.79,3,3,0,0,1,1.82-.81,1.29,1.29,0,0,1,.72.09c0,.05-.26,0-.69.11a3.06,3.06,0,0,0-1.59.87,2.55,2.55,0,0,0-.71,2.42,2.65,2.65,0,0,0,4.92.74,2.54,2.54,0,0,0,0-2.52,3,3,0,0,0-1.26-1.3C406.31,391.81,406.06,391.76,406.07,391.71Z" style="fill:#263238"></path><path d="M395.29,386.76s.27-.05.72.11a3,3,0,0,1,1.5,1.31,2.89,2.89,0,0,1,.06,2.94,3.1,3.1,0,0,1-5.8-.87,2.88,2.88,0,0,1,.92-2.79,3,3,0,0,1,1.82-.81,1.29,1.29,0,0,1,.72.09c0,.05-.26,0-.7.11a3.14,3.14,0,0,0-1.59.87,2.54,2.54,0,0,0-.7,2.42,2.64,2.64,0,0,0,4.91.74,2.52,2.52,0,0,0,0-2.52,3.08,3.08,0,0,0-1.26-1.3C395.54,386.85,395.29,386.8,395.29,386.76Z" style="fill:#263238"></path><path d="M401.64,389.29a4.56,4.56,0,0,0,.11-2.85c.46-.07,1.09,0,1.21.41a.87.87,0,0,1,0,.5,5.92,5.92,0,0,1-1.11,2" style="fill:#263238"></path><path d="M410.26,391.76a9.84,9.84,0,0,0-.79-2.36,2.87,2.87,0,0,0-2-1.43,2.13,2.13,0,0,0-1.42.24,1.2,1.2,0,0,0-.65,1.18c.07.44.66.51,1,.24a.89.89,0,0,0,.06-1.16,1.4,1.4,0,0,0-1.08-.58,2.52,2.52,0,0,0-1.17.2c-.69.29-1.25.65-1.65.84s-.62.29-.63.26.17-.19.54-.44a12.72,12.72,0,0,1,1.6-1,2.91,2.91,0,0,1,1.34-.29,1.83,1.83,0,0,1,1.45.74,1.37,1.37,0,0,1-.14,1.82,1.28,1.28,0,0,1-1,.27,1,1,0,0,1-.81-.79,1.69,1.69,0,0,1,.9-1.73,2.61,2.61,0,0,1,1.75-.28,3.21,3.21,0,0,1,2.28,1.73,4.84,4.84,0,0,1,.51,1.85A1.47,1.47,0,0,1,410.26,391.76Z" style="fill:#263238"></path><path d="M395.64,381s-.26.17-.54.61a2.45,2.45,0,0,0-.19,2.08A3.63,3.63,0,0,0,397,386a2.62,2.62,0,0,0,1.79.05,1.55,1.55,0,0,0,1.12-1.32,1,1,0,0,0-.3-.79,1,1,0,0,0-.79-.23,1.33,1.33,0,0,0-1.19,1.05,2.33,2.33,0,0,0,.27,1.58,3.84,3.84,0,0,0,1,1.11,4.92,4.92,0,0,0,1.91,1,.94.94,0,0,0,.71-.27s-.08.42-.71.47a2,2,0,0,1-1-.29,8,8,0,0,1-1.14-.67,4,4,0,0,1-1.16-1.18,2.67,2.67,0,0,1-.35-1.91,1.72,1.72,0,0,1,.54-1,1.88,1.88,0,0,1,1.06-.48,1.45,1.45,0,0,1,1.66,1.55,2,2,0,0,1-1.47,1.78,3,3,0,0,1-2.14-.09,3.89,3.89,0,0,1-2.28-2.61,2.53,2.53,0,0,1,.38-2.3C395.31,381,395.64,381,395.64,381Z" style="fill:#263238"></path><path d="M408.42,387.93a8.21,8.21,0,0,1,1.25.36,4.29,4.29,0,0,0,1.46.18,2.24,2.24,0,0,0,1.61-.77l.13.33-1.65-.22-.84-.1.79-.33a2.75,2.75,0,0,0,1.52-1.68c0-.19,0-.27-.07-.26s-.28.1-.48.22l-1.28.72-.81.45.46-.81.15-.29a3.11,3.11,0,0,0,.2-1.75,1.16,1.16,0,0,0-.29-.66c-.08-.08-.26,0-.47.26a5.43,5.43,0,0,0-1.46,2.77l-.06.33-.26-.18c-.49-.34-.95-.66-1.39-.95l.28-.17a4.67,4.67,0,0,0,.9,2.29c.37.47.63.68.6.71s-.32-.13-.75-.59a4.44,4.44,0,0,1-1.11-2.37l-.05-.39.33.21,1.42.9-.33.14a5.71,5.71,0,0,1,1.52-3,2,2,0,0,1,.4-.34.66.66,0,0,1,.69,0,1.45,1.45,0,0,1,.53,1,3.5,3.5,0,0,1-.23,2.06,2.69,2.69,0,0,1-.17.34l-.35-.36,1.28-.71a1.4,1.4,0,0,1,.81-.28.57.57,0,0,1,.45.38.86.86,0,0,1,0,.47,3.1,3.1,0,0,1-1.85,2l0-.44,1.64.26.37.06-.23.27a2.51,2.51,0,0,1-1.92.85,4.17,4.17,0,0,1-1.55-.28A3.84,3.84,0,0,1,408.42,387.93Z" style="fill:#263238"></path><path d="M392.21,316V304.47s4.87-.8,7,0l.32,11.51Z" style="fill:#455a64"></path><rect x="377.34" y="375.34" width="3.82" height="38.06" style="fill:#ebebeb"></rect><path d="M264,251.82l35.67,84,64.91-4.43,4.3,30.13s-76.18,26.1-90.86,17c-9.88-6.13-32.8-65.18-32.8-65.18Z" style="fill:#DB5461"></path><path d="M211.9,222.81H179.83s-57.09,6.79-52.13,61.54c2.9,32,12.48,80.18,18,113.47,3.9,23.58,6.92,40.39,6.92,40.39l136.3-.14-14.74-51.8-11.47-126a43.9,43.9,0,0,0-43.43-37.49Z" style="fill:#DB5461"></path><path d="M288.91,438.07a6,6,0,0,1-.37-1c-.21-.68-.52-1.64-.9-2.88-.77-2.54-1.86-6.21-3.23-10.78-2.71-9.2-6.46-22.13-10.73-37v-.07c-.8-5.4-1.61-11.16-2.32-17.11-1.18-9.76-2.05-19.08-2.83-27.55s-1.5-16.1-2.19-22.49-1.32-11.56-1.76-15.13c-.21-1.76-.37-3.14-.49-4.12a7.08,7.08,0,0,1-.1-1.44,8.1,8.1,0,0,1,.31,1.41c.16,1,.39,2.34.69,4.09.55,3.56,1.31,8.71,2.08,15.11s1.59,14,2.42,22.48,1.73,17.78,2.9,27.52c.71,5.93,1.51,11.69,2.29,17.08l0-.06C278.87,401,282.49,414,285,423.25c1.25,4.61,2.25,8.3,2.94,10.87.32,1.25.57,2.23.74,2.92A4.62,4.62,0,0,1,288.91,438.07Z" style="fill:#263238"></path><path d="M290.93,347.49c-.25-.11,1-3.38,3.53-6.83s5.26-5.64,5.44-5.44-2.14,2.68-4.6,6S291.2,347.62,290.93,347.49Z" style="fill:#263238"></path><path d="M299.48,351.08c-.25.09-1.49-3.29-1.47-7.68s1.25-7.77,1.5-7.68-.46,3.46-.46,7.68S299.78,351,299.48,351.08Z" style="fill:#263238"></path><path d="M220.54,281.14a6,6,0,0,1-1.31.16l-3.59.22c-3,.17-7.22.37-11.85.55s-8.83.32-11.86.4l-3.6.06a7.21,7.21,0,0,1-1.32,0,6.29,6.29,0,0,1,1.32-.16l3.59-.22c3-.17,7.22-.36,11.85-.55s8.82-.32,11.85-.39l3.6-.07A7.21,7.21,0,0,1,220.54,281.14Z" style="fill:#fafafa"></path><path d="M148.71,341c0,.15-2.64.42-5.88.92s-5.86,1-5.89.88a23.56,23.56,0,0,1,5.81-1.39A23.87,23.87,0,0,1,148.71,341Z" style="fill:#fafafa"></path><path d="M265.25,334.76a77.91,77.91,0,0,1-8.9.42,77.07,77.07,0,0,1-8.91-.1,77.91,77.91,0,0,1,8.9-.42A77,77,0,0,1,265.25,334.76Z" style="fill:#fafafa"></path><path d="M282.68,301.32a67.75,67.75,0,0,1-7.64,3.17,68,68,0,0,1-7.82,2.68,63.6,63.6,0,0,1,7.64-3.17A63.67,63.67,0,0,1,282.68,301.32Z" style="fill:#fafafa"></path><path d="M298.62,335.94a6.64,6.64,0,0,1-1,.71c-.68.44-1.68,1-2.94,1.69a63.84,63.84,0,0,1-10.29,4.33,63,63,0,0,1-10.89,2.47c-1.42.18-2.57.29-3.37.33a5.17,5.17,0,0,1-1.24,0,5.75,5.75,0,0,1,1.22-.22c.79-.1,1.94-.27,3.34-.5a77.27,77.27,0,0,0,10.78-2.59A76.3,76.3,0,0,0,294.49,338c1.28-.63,2.3-1.16,3-1.53A5.59,5.59,0,0,1,298.62,335.94Z" style="fill:#fafafa"></path><path d="M311.6,376.43a10.49,10.49,0,0,1-.68-1.49c-.21-.48-.45-1.08-.7-1.79s-.55-1.5-.81-2.41a60.51,60.51,0,0,1-1.64-6.42,62.63,62.63,0,0,1-1-16.17,59.19,59.19,0,0,1,.81-6.57c.15-.93.35-1.76.51-2.5s.31-1.35.46-1.86a8.59,8.59,0,0,1,.49-1.56,10.54,10.54,0,0,1-.29,1.61c-.12.51-.25,1.14-.38,1.87s-.31,1.57-.43,2.5c-.29,1.85-.53,4.07-.69,6.54a75,75,0,0,0,0,8.06,72.35,72.35,0,0,0,1,8c.47,2.44,1,4.61,1.52,6.41.24.91.52,1.71.74,2.42s.43,1.32.61,1.81A10,10,0,0,1,311.6,376.43Z" style="fill:#fafafa"></path><path d="M344.65,367.82a6.62,6.62,0,0,1-.78-1.08c-.24-.36-.52-.8-.82-1.34s-.66-1.13-1-1.82a40,40,0,0,1-2.12-5,44.51,44.51,0,0,1-1.7-6.41,45.85,45.85,0,0,1-.67-6.6,40.33,40.33,0,0,1,.23-5.41c.06-.77.19-1.45.29-2.06a14.83,14.83,0,0,1,.29-1.54,7.8,7.8,0,0,1,.35-1.29c.1,0-.31,1.88-.56,4.92a45.31,45.31,0,0,0-.12,5.36,47.89,47.89,0,0,0,.7,6.52,50.09,50.09,0,0,0,1.64,6.35,45.19,45.19,0,0,0,2,5C343.7,366.18,344.74,367.77,344.65,367.82Z" style="fill:#fafafa"></path><path d="M162.05,379.34a14,14,0,0,1-2.71.78,68,68,0,0,1-6.7,1.2c-2.64.35-5,.52-6.78.57a13.33,13.33,0,0,1-2.82-.06,18.6,18.6,0,0,1,2.8-.31c1.72-.14,4.11-.37,6.73-.71s5-.75,6.7-1.05A16.87,16.87,0,0,1,162.05,379.34Z" style="fill:#fafafa"></path><path d="M270.92,376.55c0,.14-8.07.13-18,0s-18-.41-18-.55,8.07-.13,18,0S270.92,376.41,270.92,376.55Z" style="fill:#fafafa"></path><path d="M281,410.14l-.34,0-1,0-3.84.08c-1.67,0-3.72.08-6.09.15s-5.07.14-8.05.26c-11.93.42-28.41,1.35-46.6,2.37s-34.69,1.78-46.64,2.06c-6,.13-10.8.2-14.14.18l-3.85,0-1,0-.34,0,.34,0,1,0,3.85-.07c3.34,0,8.17-.17,14.13-.35,11.94-.37,28.42-1.18,46.62-2.21s34.67-1.89,46.62-2.22c3-.09,5.68-.16,8.06-.19s4.41-.07,6.08-.05h3.85l1,0A1.44,1.44,0,0,1,281,410.14Z" style="fill:#fafafa"></path><path d="M179.51,235.52a31.64,31.64,0,0,1-3.55.82c-2.2.47-5.23,1.16-8.55,2.06s-6.27,1.83-8.41,2.54a31.38,31.38,0,0,1-3.49,1.08,4,4,0,0,1,.88-.44c.58-.25,1.43-.59,2.49-1,2.11-.8,5.07-1.79,8.4-2.7s6.38-1.53,8.61-1.91c1.11-.19,2-.33,2.64-.4A3.47,3.47,0,0,1,179.51,235.52Z" style="fill:#fafafa"></path><path d="M242.65,235.55c-.06.15-2.46-.68-5.54-1.06s-5.62-.17-5.64-.33a18.43,18.43,0,0,1,11.18,1.39Z" style="fill:#fafafa"></path><path d="M133.33,289.36s26.54,84.44,43.36,99.79,45.22,7.74,50.56-2.88,42.38-122,42.38-122l-40.51-14.35-29,88.3-20.54-78.92s-15.38-27.1-36.13-14.11S133.33,289.36,133.33,289.36Z" style="fill:#DB5461"></path><path d="M136.6,299.39a3.31,3.31,0,0,1,.12.33c.07.24.18.57.32,1,.28.91.69,2.23,1.22,4L143,320c2.07,6.62,4.62,14.71,7.75,24.05,1.56,4.66,3.28,9.64,5.21,14.87A108.73,108.73,0,0,0,163,375a57.73,57.73,0,0,0,11.88,15.13,36.9,36.9,0,0,0,18.41,9.18,34,34,0,0,0,10.93,0,32.73,32.73,0,0,0,10.68-3.59,45.92,45.92,0,0,0,9.41-6.89,44.27,44.27,0,0,0,4.08-4.35,34,34,0,0,0,3.44-4.94,24.52,24.52,0,0,0,2.39-5.58l1.89-6,3.86-12.13q3.88-12.27,7.95-25c5.41-17,11-34.59,16.74-52.62l4.5-14.16.32.65L232,250.64l.67-.33c-2.48,7.85-5.44,15.35-8.34,22.7l-8.67,21.53c-5.63,14-11,27.43-15.12,40.32l-.48,1.48-.37-1.51c-4.63-18.82-8.56-36.1-12.74-51.23q-1.56-5.67-3.19-10.92c-1.08-3.5-2.21-6.84-3.5-10-2.56-6.23-5.95-11.62-10.28-15.16a24.89,24.89,0,0,0-13.52-5.63,27.16,27.16,0,0,0-10.89,1,26,26,0,0,0-6.2,2.82c-.65.41-1.12.77-1.45,1s-.5.32-.5.32l.46-.38c.32-.23.77-.61,1.42-1a25.58,25.58,0,0,1,6.19-3,27.26,27.26,0,0,1,11-1.16,25.27,25.27,0,0,1,13.81,5.64c4.44,3.58,7.91,9,10.52,15.31,1.32,3.14,2.47,6.5,3.57,10s2.19,7.14,3.24,10.93c4.24,15.13,8.24,32.42,12.9,51.21l-.84,0c4.14-12.94,9.45-26.37,15.07-40.41q4.22-10.53,8.64-21.53c2.89-7.35,5.83-14.85,8.28-22.64l.17-.51.5.18,37.45,14.07.47.17-.15.47q-2.25,7-4.51,14.16c-5.74,18-11.35,35.62-16.76,52.62l-8,25q-1.95,6.13-3.87,12.13l-1.9,6-.48,1.48-.58,1.48a28.27,28.27,0,0,1-1.42,2.8,34,34,0,0,1-3.54,5.06,43.83,43.83,0,0,1-4.17,4.43,46.24,46.24,0,0,1-9.62,7,33.21,33.21,0,0,1-11,3.67,35.12,35.12,0,0,1-11.21,0,37.75,37.75,0,0,1-18.8-9.44,58.08,58.08,0,0,1-12-15.37,108.37,108.37,0,0,1-7-16.27c-1.91-5.25-3.6-10.24-5.14-14.92-3.08-9.36-5.58-17.47-7.59-24.11s-3.51-11.81-4.51-15.32c-.49-1.75-.87-3.09-1.12-4q-.18-.66-.27-1A1.36,1.36,0,0,1,136.6,299.39Z" style="fill:#263238"></path><path d="M183.49,270.66a1.89,1.89,0,0,1-.52,0l-1.49-.07c-1.29-.07-3.16-.15-5.47-.19a124.38,124.38,0,0,0-35.65,4.47c-2.23.61-4,1.14-5.25,1.54l-1.42.43a3.19,3.19,0,0,1-.51.12,1.91,1.91,0,0,1,.47-.22l1.4-.53c1.21-.45,3-1,5.21-1.7A111.85,111.85,0,0,1,176,270c2.32.09,4.19.22,5.47.36l1.49.17A1.85,1.85,0,0,1,183.49,270.66Z" style="fill:#fafafa"></path><path d="M191.25,298.5c0,.14-11.43,2.6-25.59,5.49S140,309.12,140,309s11.43-2.6,25.59-5.5S191.22,298.36,191.25,298.5Z" style="fill:#fafafa"></path><path d="M248.82,323.72a9.84,9.84,0,0,1-1.37-.79c-.86-.55-2.12-1.31-3.69-2.23a109,109,0,0,0-12.68-6.35,110.4,110.4,0,0,0-13.42-4.61c-1.76-.48-3.18-.84-4.17-1.08a10.37,10.37,0,0,1-1.53-.42,8.75,8.75,0,0,1,1.57.23c1,.17,2.45.48,4.22.91a91.61,91.61,0,0,1,13.53,4.49A93.26,93.26,0,0,1,244,320.38c1.55,1,2.78,1.78,3.61,2.38A9.25,9.25,0,0,1,248.82,323.72Z" style="fill:#fafafa"></path><path d="M258.11,293.75a10.21,10.21,0,0,1-1-1.18,32.33,32.33,0,0,0-2.84-3.05,39.62,39.62,0,0,0-11.53-7.32A87,87,0,0,0,229.64,278l-4.06-1a9.65,9.65,0,0,1-1.48-.42,7.57,7.57,0,0,1,1.52.22c1,.18,2.38.46,4.11.84a75.7,75.7,0,0,1,13.23,4,37.09,37.09,0,0,1,11.58,7.54,24.81,24.81,0,0,1,2.75,3.19,10.75,10.75,0,0,1,.63.95A1.29,1.29,0,0,1,258.11,293.75Z" style="fill:#fafafa"></path><path d="M199.52,330.87a1.71,1.71,0,0,1-.5.14l-1.44.29-5.3,1c-4.48.9-10.63,2.26-17.34,4.1s-12.7,3.81-17,5.32l-5.09,1.81-1.39.49a2.37,2.37,0,0,1-.49.14,1.67,1.67,0,0,1,.45-.24l1.36-.58c1.17-.49,2.89-1.17,5-2,4.28-1.6,10.27-3.62,17-5.47s12.91-3.16,17.41-4c2.24-.41,4.07-.7,5.34-.87l1.45-.19A2.89,2.89,0,0,1,199.52,330.87Z" style="fill:#fafafa"></path><path d="M198.17,400.59a3.07,3.07,0,0,1-.37-.59l-1-1.75-.68-1.28c-.24-.47-.45-1-.71-1.56-.48-1.14-1.1-2.4-1.58-3.88-.25-.73-.52-1.5-.8-2.3s-.47-1.66-.73-2.54c-.53-1.75-.87-3.67-1.28-5.69a64,64,0,0,1,1-26.52c.56-2,1-3.87,1.71-5.57.32-.86.58-1.7.92-2.48s.66-1.52,1-2.23a40.9,40.9,0,0,1,1.87-3.75c.29-.54.55-1.05.82-1.51l.78-1.21,1.08-1.68a4.21,4.21,0,0,1,.41-.56,2.84,2.84,0,0,1-.32.62l-1,1.72-.73,1.24c-.26.46-.5,1-.78,1.52-.54,1.1-1.24,2.32-1.8,3.76l-.94,2.23c-.32.77-.57,1.62-.88,2.47-.65,1.7-1.11,3.58-1.65,5.54a65.16,65.16,0,0,0-1,26.33c.39,2,.71,3.92,1.22,5.66.24.87.43,1.73.69,2.53s.53,1.56.77,2.3c.45,1.48,1.05,2.74,1.5,3.88.24.57.44,1.1.66,1.58l.64,1.29c.36.74.64,1.33.87,1.79A4.3,4.3,0,0,1,198.17,400.59Z" style="fill:#fafafa"></path><path d="M241.1,353.85a1.53,1.53,0,0,1-.47,0l-1.35-.08a20.34,20.34,0,0,1-2.13-.23c-.83-.13-1.78-.22-2.81-.47s-2.16-.45-3.35-.81-2.45-.76-3.76-1.23a47.73,47.73,0,0,1-15.4-9.43c-1-1-2-1.86-2.79-2.8-.41-.47-.83-.9-1.2-1.34l-1-1.29c-.68-.81-1.2-1.62-1.68-2.3s-.86-1.3-1.15-1.81l-.66-1.18a2,2,0,0,1-.21-.43s.12.12.3.38l.75,1.12a20.39,20.39,0,0,0,1.21,1.75c.5.67,1,1.45,1.73,2.24l1.05,1.26c.37.43.79.85,1.21,1.3.81.92,1.8,1.79,2.8,2.75a54.21,54.21,0,0,0,7.19,5.36,53.39,53.39,0,0,0,8.05,4c1.3.48,2.52.94,3.71,1.26s2.29.64,3.31.87,2,.39,2.77.54,1.53.25,2.11.32l1.34.17A1.54,1.54,0,0,1,241.1,353.85Z" style="fill:#fafafa"></path><g style="opacity:0.4"><path d="M186.89,284.77a1.74,1.74,0,0,1-.53.08l-1.52.1c-1.32.07-3.23.21-5.58.42a148,148,0,0,0-36,7.77c-2.23.78-4,1.44-5.25,1.92l-1.43.53a1.72,1.72,0,0,1-.51.15,2.26,2.26,0,0,1,.47-.25l1.39-.62c1.21-.53,3-1.25,5.21-2.08A131.33,131.33,0,0,1,179.23,285c2.36-.16,4.28-.24,5.6-.25h1.53Z"></path></g><g style="opacity:0.4"><path d="M193.81,317.17a1.76,1.76,0,0,1-.48.12l-1.37.24-5.06.83c-4.26.72-10.13,1.82-16.55,3.3S158.16,324.73,154,326l-4.91,1.46-1.33.39a1.75,1.75,0,0,1-.48.1s.15-.09.44-.2l1.31-.48c1.14-.42,2.8-1,4.86-1.63,4.13-1.31,9.89-2.95,16.33-4.44s12.33-2.52,16.62-3.15c2.14-.32,3.88-.55,5.08-.68l1.39-.14A1.87,1.87,0,0,1,193.81,317.17Z"></path></g><g style="opacity:0.2"><path d="M144.22,324.74c3.6,19.19,10.28,44.95,17.78,63,3.06,7.34,6.81,13.42,13.24,18.09,7.63,5.54,16,6.78,25.42,6.88A77.69,77.69,0,0,0,220,410.14c6.55-1.57,12-8.06,16.07-13.4,4.95-6.46,7.06-19.59,7.95-27.67,2.28-20.92,2.56-17.28,4.85-38.2-3.74,10.48-5.54,15.8-8.82,27.86s-5,17.7-12.75,27.54a38.28,38.28,0,0,1-33.44,14c-15-1.64-26.17-14-32.09-27.89s-11.1-33-17.25-46.79"></path></g><g style="opacity:0.4"><path d="M197.51,336.81a2.3,2.3,0,0,1-.41.34l-1.21.9c-1.07.77-2.58,1.91-4.42,3.37s-4,3.27-6.26,5.36-4.68,4.51-7.09,7.16-4.54,5.31-6.42,7.78-3.44,4.78-4.7,6.75-2.26,3.6-2.92,4.74l-.77,1.29c-.19.3-.29.45-.31.44a2.54,2.54,0,0,1,.21-.49l.7-1.34c.6-1.17,1.54-2.83,2.77-4.83s2.8-4.34,4.64-6.85,4-5.17,6.41-7.84,4.86-5.06,7.16-7.16,4.48-3.88,6.35-5.3,3.43-2.53,4.53-3.24l1.27-.83A1.78,1.78,0,0,1,197.51,336.81Z"></path></g><g style="opacity:0.4"><path d="M228.2,385.87a2.3,2.3,0,0,1-.51-.31l-1.39-1c-.61-.43-1.34-1-2.15-1.65s-1.77-1.42-2.72-2.34l-1.53-1.42c-.53-.5-1-1.07-1.59-1.62-1.11-1.11-2.18-2.4-3.33-3.73A67.75,67.75,0,0,1,203.64,354c-.57-1.66-1.14-3.24-1.53-4.75-.21-.76-.44-1.48-.6-2.19s-.31-1.39-.45-2c-.32-1.29-.47-2.49-.64-3.53a26.64,26.64,0,0,1-.34-2.69c-.06-.69-.11-1.26-.15-1.7a2.11,2.11,0,0,1,0-.6,4.85,4.85,0,0,1,.12.59c.06.44.14,1,.24,1.69s.21,1.63.43,2.66.37,2.22.71,3.5c.15.65.31,1.32.48,2s.41,1.42.62,2.17c.41,1.5,1,3.06,1.57,4.71a77,77,0,0,0,4.83,10.29,78.55,78.55,0,0,0,6.43,9.37c1.14,1.33,2.18,2.62,3.28,3.73.53.56,1,1.13,1.55,1.63l1.5,1.44c.93.94,1.87,1.69,2.66,2.38s1.49,1.27,2.08,1.72l1.34,1.06A2.89,2.89,0,0,1,228.2,385.87Z"></path></g><g style="opacity:0.4"><path d="M244.2,335.4a8.61,8.61,0,0,1-1.66.05,17.5,17.5,0,0,1-1.95-.07c-.76-.06-1.63-.1-2.58-.24s-2-.26-3.1-.5-2.28-.51-3.51-.82a51.34,51.34,0,0,1-7.75-2.86,52,52,0,0,1-7.14-4.14c-1-.75-2-1.44-2.87-2.18s-1.66-1.41-2.36-2.07-1.3-1.28-1.84-1.83-1-1-1.3-1.46a8.55,8.55,0,0,1-1-1.31,12,12,0,0,1,1.17,1.18c.36.39.81.87,1.36,1.39s1.14,1.15,1.87,1.76,1.5,1.33,2.39,2,1.85,1.4,2.87,2.13a56.54,56.54,0,0,0,7.09,4.06,54.91,54.91,0,0,0,7.66,2.87c1.21.32,2.36.65,3.47.86s2.12.41,3.06.55,1.8.23,2.55.32,1.4.13,1.94.16A12.57,12.57,0,0,1,244.2,335.4Z"></path></g><g style="opacity:0.4"><path d="M255.41,306.26c-.06.13-8.69-3.19-19.28-7.43S217,291.06,217,290.92s8.69,3.19,19.29,7.43S255.46,306.12,255.41,306.26Z"></path></g><g style="opacity:0.4"><path d="M264.49,278.15a9.74,9.74,0,0,1-1.4-.66l-3.74-1.95c-3.16-1.64-7.54-3.86-12.45-6.18s-9.42-4.29-12.69-5.68L230.33,262a9.92,9.92,0,0,1-1.41-.65,7.42,7.42,0,0,1,1.48.47c.94.33,2.29.84,3.95,1.5,3.31,1.3,7.85,3.23,12.77,5.55s9.29,4.6,12.4,6.33c1.56.86,2.82,1.58,3.67,2.09A8.92,8.92,0,0,1,264.49,278.15Z"></path></g><g style="opacity:0.4"><path d="M283.69,425.67c0,.14-29.61,1.49-66.15,3s-66.17,2.64-66.17,2.49,29.6-1.49,66.15-3S283.69,425.52,283.69,425.67Z"></path></g><g style="opacity:0.4"><path d="M292.65,321.39c0,.14-5.62,1.73-12.63,3.55s-12.73,3.17-12.76,3,5.61-1.73,12.63-3.55S292.61,321.25,292.65,321.39Z"></path></g><g style="opacity:0.4"><path d="M288.75,380.32s-.05-.15-.1-.45-.12-.8-.2-1.32-.19-1.27-.24-2.09-.17-1.76-.19-2.79a59.57,59.57,0,0,1,.16-7.28,60.58,60.58,0,0,1,4-17.34,58,58,0,0,1,3.07-6.6c.47-.92,1-1.71,1.39-2.42a19.49,19.49,0,0,1,1.14-1.78l.76-1.1a2.23,2.23,0,0,1,.29-.36s-.05.16-.2.42l-.68,1.15c-.31.49-.67,1.09-1.06,1.81s-.87,1.52-1.32,2.45a68.8,68.8,0,0,0-2.95,6.61,65.09,65.09,0,0,0-4,17.2,67.58,67.58,0,0,0-.26,7.22c0,1,.07,2,.11,2.78s.09,1.53.15,2.1.07,1,.1,1.33A1.35,1.35,0,0,1,288.75,380.32Z"></path></g><g style="opacity:0.4"><path d="M327.61,370.22a8.69,8.69,0,0,1-.68-1.27,38.31,38.31,0,0,1-1.54-3.6,47.59,47.59,0,0,1-1.69-5.56,54.89,54.89,0,0,1-1.15-7,54,54,0,0,1-.13-7.13,48.16,48.16,0,0,1,.66-5.77A36.55,36.55,0,0,1,324,336a8.08,8.08,0,0,1,.44-1.37,6.52,6.52,0,0,1-.25,1.41c-.2.9-.45,2.21-.69,3.84a52.14,52.14,0,0,0-.55,5.74,53.31,53.31,0,0,0,1.27,14,55.08,55.08,0,0,0,1.57,5.55c.53,1.55,1,2.8,1.37,3.64A6.17,6.17,0,0,1,327.61,370.22Z"></path></g><g style="opacity:0.4"><path d="M355,364a5.08,5.08,0,0,1-.67-1,26,26,0,0,1-1.52-3,35.09,35.09,0,0,1-1.71-4.65,37.28,37.28,0,0,1-1.48-12,35.18,35.18,0,0,1,.54-4.92,27.12,27.12,0,0,1,.75-3.25,5.71,5.71,0,0,1,.41-1.16c.09,0-.39,1.7-.8,4.46a42.16,42.16,0,0,0-.42,4.89,44.81,44.81,0,0,0,.29,6,44.31,44.31,0,0,0,1.17,5.88,40.74,40.74,0,0,0,1.58,4.64C354.18,362.47,355.06,364,355,364Z"></path></g><path d="M174.52,155.56a5,5,0,0,1-6.4,6.59c-3.45-1.33-4.32-5.81-4.05-9.49s1.12-7.67-.74-10.86c-1.42-2.45-4.1-3.81-6.26-5.63a15.91,15.91,0,0,1-5.78-13,13.39,13.39,0,0,1,8.11-11.42c4.68-1.84,10.76-1,14-4.81,2.34-2.79,2.08-7,3.79-10.17,2.64-5,9.16-6.41,14.82-6.21s11.5,1.4,16.83-.51c4.44-1.6,7.86-5.16,11.94-7.55a24.75,24.75,0,0,1,35.5,30.55c-1.37,3.42-3.83,13.13-14.3,14.07" style="fill:#263238"></path><path d="M168.86,116.61l.82,7.49,11.54,112.24c1.34,13,13.61,22.26,27.55,20.72h0c14.08-1.56,24.57-13.5,23.43-26.69-1.2-13.84-2.2-28.43-2.2-28.43s17.56-4.55,19.18-28.14c.8-11.72-1.47-30.63-3.83-46.05a24.66,24.66,0,0,0-29.13-20.47Z" style="fill:#ffbe9d"></path><path d="M224.39,164.16c0-.18,1.94-.7,5.13-1.41.81-.15,1.57-.38,1.66-1a4.2,4.2,0,0,0-.76-2.38l-3-6c-4.16-8.58-7.25-15.67-6.9-15.84s4,6.66,8.16,15.25c1,2.12,2,4.13,2.88,6.07a4.77,4.77,0,0,1,.71,3.18,2,2,0,0,1-1.24,1.31,5.44,5.44,0,0,1-1.37.32C226.44,164.15,224.42,164.34,224.39,164.16Z" style="fill:#263238"></path><path d="M230,201.94a59.31,59.31,0,0,1-31.88-5.53s9.19,15.25,32.27,11Z" style="fill:#eb996e"></path><path d="M209.09,131.27c-.24.9-3.48.77-7.2,1.56s-6.68,2.09-7.25,1.35c-.26-.35.2-1.22,1.35-2.18a12.82,12.82,0,0,1,11-2.22C208.43,130.22,209.19,130.84,209.09,131.27Z" style="fill:#263238"></path><path d="M240.1,128.8c-.5.78-2.77.22-5.44.42s-4.86.93-5.45.22c-.26-.35,0-1.12.95-1.89a7.9,7.9,0,0,1,8.78-.51C240,127.7,240.32,128.42,240.1,128.8Z" style="fill:#263238"></path><path d="M245.2,117.37s-11.32,7.28-27.92,1.36c-10.89-3.88-23.17-4.93-25.56-2.54s-1.66,13-11.46,17.35c0,0,3.15,20.11-5,20.37s-10.54-40.45-10.54-40.45l22.17-3.19,21-6.66,20.59.4,16.19,2.39Z" style="fill:#263238"></path><path d="M163.67,107.73c-.15-.3,1.7-1.19,4-.57s3.49,2.27,3.22,2.46-1.59-.8-3.53-1.28S163.76,108.07,163.67,107.73Z" style="fill:#263238"></path><path d="M169.76,100.29c.38,0,.46,2.38,1.13,5.08s2,4.6,1.75,4.84-2.2-1.5-2.93-4.53S169.47,100.27,169.76,100.29Z" style="fill:#263238"></path><path d="M175,145.52c-.35-.13-13.86-3.4-12.79,10.18s14.48,9.7,14.48,9.31S175,145.52,175,145.52Z" style="fill:#ffbe9d"></path><path d="M172.13,160.19c-.06,0-.22.19-.61.4a2.34,2.34,0,0,1-1.76.18c-1.48-.42-2.86-2.6-3.12-5a7.75,7.75,0,0,1,.39-3.44,2.75,2.75,0,0,1,1.64-1.95,1.19,1.19,0,0,1,1.44.53c.22.37.15.65.23.66s.27-.25.12-.8a1.59,1.59,0,0,0-.61-.81,1.79,1.79,0,0,0-1.33-.24,3.35,3.35,0,0,0-2.31,2.3,8.1,8.1,0,0,0-.52,3.85c.31,2.73,1.91,5.18,3.92,5.59a2.56,2.56,0,0,0,2.13-.53C172.13,160.52,172.18,160.21,172.13,160.19Z" style="fill:#eb996e"></path><path d="M230.2,79.07h.3a8.69,8.69,0,0,1,.88.1,10,10,0,0,1,3.18,1.14,11.33,11.33,0,0,1,3.9,3.64,10,10,0,0,1,1.67,6.83,11.4,11.4,0,0,1-4.27,7.37,10.79,10.79,0,0,1-4.4,2,8.56,8.56,0,0,1-5.1-.69A5.6,5.6,0,0,1,223,95.32a5,5,0,0,1,.46-2.84,6.77,6.77,0,0,1,1.84-2.24,12,12,0,0,1,5.34-2.34,20.88,20.88,0,0,1,6-.23,16.74,16.74,0,0,1,10.48,5,13.87,13.87,0,0,1,4,10,15.33,15.33,0,0,1-3.73,9.07,19.19,19.19,0,0,1-6.86,5.14,30.83,30.83,0,0,1-12.11,2.44c-1.46,0-2.59,0-3.36-.06l-.87-.07a1.4,1.4,0,0,1-.3,0s.1,0,.3,0H225c.77,0,1.9,0,3.36-.06a31.6,31.6,0,0,0,11.92-2.61,18.87,18.87,0,0,0,6.63-5.07,14.77,14.77,0,0,0,3.55-8.74,13.3,13.3,0,0,0-3.83-9.56,16.14,16.14,0,0,0-10.09-4.76c-3.86-.35-8,.13-10.83,2.42a4.6,4.6,0,0,0,.92,8.21,7.89,7.89,0,0,0,4.73.66,9.94,9.94,0,0,0,4.17-1.89,10.88,10.88,0,0,0,4.15-7,9.61,9.61,0,0,0-1.52-6.57,11.29,11.29,0,0,0-3.72-3.62A11.79,11.79,0,0,0,230.2,79.07Z" style="fill:#fff"></path><path d="M211.93,168c-.14-.11.3-.87,1-1.69s1.35-1.4,1.49-1.28-.3.87-1,1.7S212.06,168.13,211.93,168Z" style="fill:#263238"></path><path d="M214.84,168.67c-.14-.1.21-.85.8-1.67s1.18-1.4,1.32-1.3-.2.86-.79,1.68S215,168.78,214.84,168.67Z" style="fill:#263238"></path><path d="M217.48,170c-.17-.05,0-1,.48-2.07s1.16-1.77,1.31-1.67-.24.94-.72,2S217.66,170.08,217.48,170Z" style="fill:#263238"></path><path d="M220.78,169.86c-.18,0-.15-.88.06-1.88s.53-1.79.7-1.75.15.88-.06,1.88S221,169.9,220.78,169.86Z" style="fill:#263238"></path><path d="M223.48,171.07c-.18,0-.16-1,.05-2.14s.51-2.06.69-2,.16,1-.05,2.13S223.66,171.1,223.48,171.07Z" style="fill:#263238"></path><path d="M226.73,171.06c-.18,0-.31-.78-.28-1.74s.19-1.72.37-1.72.31.79.28,1.74S226.91,171.06,226.73,171.06Z" style="fill:#263238"></path><path d="M229.46,172.14c-.18,0-.34-1.08-.53-2.4a6.28,6.28,0,0,1-.17-2.44c.17-.05.62,1,.82,2.35S229.64,172.14,229.46,172.14Z" style="fill:#263238"></path><path d="M232,171.11c-.18,0-.46-.74-.61-1.71s-.15-1.79,0-1.82.45.74.61,1.71S232.21,171.08,232,171.11Z" style="fill:#263238"></path><path d="M234.89,170.73c-.18,0-.43-.49-.57-1.18s-.1-1.26.08-1.3.43.49.56,1.18S235.06,170.69,234.89,170.73Z" style="fill:#263238"></path><path d="M231.22,186.23c-.06.09-.63-.27-1.63-.62a9,9,0,0,0-7.84.86c-.9.56-1.38,1-1.45.95s.31-.64,1.19-1.33a8,8,0,0,1,8.28-.9C230.77,185.67,231.26,186.17,231.22,186.23Z" style="fill:#eb996e"></path><path d="M212,140.89c.06,0,.24.21.38.71a4.62,4.62,0,0,1,0,2.19,5.48,5.48,0,0,1-1.63,2.86,5.71,5.71,0,0,1-3.78,1.42,15.06,15.06,0,0,1-6.85-1.53c-1.62-.8-2.44-1.56-2.37-1.67a15.3,15.3,0,0,1,2.66,1,18,18,0,0,0,6.52,1.17,5.08,5.08,0,0,0,3.19-1.1,5.16,5.16,0,0,0,1.55-2.33A11.77,11.77,0,0,0,212,140.89Z" style="fill:#263238"></path><path d="M243,137.55c.1-.05.66.92.45,2.63a5.71,5.71,0,0,1-1.13,2.76,4.45,4.45,0,0,1-1.39,1.21,4.72,4.72,0,0,1-1.88.56,11.42,11.42,0,0,1-6.25-1.49c-1.43-.83-2.11-1.59-2-1.69a12.82,12.82,0,0,1,2.36,1,12.94,12.94,0,0,0,5.81,1.12,3.76,3.76,0,0,0,2.64-1.33,5.79,5.79,0,0,0,1.15-2.3C243.12,138.57,242.85,137.59,243,137.55Z" style="fill:#263238"></path><path d="M226.3,174.77c0,.12-.53.53-1.62.84a9,9,0,0,1-4.39,0,8.9,8.9,0,0,1-3.88-2c-.83-.77-1.15-1.4-1-1.48s2.07,1.79,5.18,2.5S226.2,174.48,226.3,174.77Z" style="fill:#263238"></path><path d="M229,178.86s.13-.18.42-.53l1.29-1.57c.3-.34.59-.75,1-1.14l1.31-1.26c.49-.44,1-1,1.56-1.43s1.23-1,1.91-1.48A36.82,36.82,0,0,1,247.65,166c1.16-.4,2.4-.62,3.67-.92s2.6-.48,4-.59a40.1,40.1,0,0,1,8.77,0h.08l.05.08a105.68,105.68,0,0,1,4.7,10.28c1.51,3.66,3,7.53,4.5,11.58a23.5,23.5,0,0,1,1.27,13.32,17.9,17.9,0,0,1-8.51,11.32l.12-.31c4.89,12,10.26,25.11,15.86,38.82l-.28-.16a92.64,92.64,0,0,1,10.95-1,31.53,31.53,0,0,1,3.37.11,6.79,6.79,0,0,1,3.29,1,1.83,1.83,0,0,1,.34.38.79.79,0,0,1,.08.58,2,2,0,0,1-.49.81,8.81,8.81,0,0,1-1.31,1.09,26.64,26.64,0,0,1-2.84,1.7,104.89,104.89,0,0,1-11.81,5.22c-2,.74-4,1.44-6,2-1,.3-2,.59-3,.8a11.51,11.51,0,0,1-1.56.24,2.61,2.61,0,0,1-.86-.07.68.68,0,0,1-.42-.39,1.29,1.29,0,0,1-.11-.45,6.89,6.89,0,0,1,1-3c.48-.91,1-1.77,1.56-2.61,1.11-1.68,2.29-3.29,3.51-4.84l0,.25c-6-13.95-11.57-26.7-16.37-37.77l.22.12a19.24,19.24,0,0,1-11.3-1.27,23.59,23.59,0,0,1-2.4-1.24c-.72-.51-1.48-.94-2.13-1.5l-1-.79-.93-.85c-.62-.55-1.15-1.17-1.72-1.75A42.78,42.78,0,0,1,236.7,199a61.68,61.68,0,0,1-3.35-6.73,80.63,80.63,0,0,1-3.46-9.83c-.32-1.15-.53-2-.67-2.63s-.18-.91-.18-.91l.24.9c.15.59.39,1.47.73,2.61a83.66,83.66,0,0,0,3.55,9.77,61.82,61.82,0,0,0,3.38,6.68,42,42,0,0,0,5.19,7.18c.56.56,1.09,1.18,1.71,1.72l.92.83,1,.78c.65.55,1.4,1,2.12,1.47a20.08,20.08,0,0,0,2.36,1.2,18.73,18.73,0,0,0,11.07,1.21l.16,0,.06.15c4.83,11.06,10.39,23.8,16.46,37.74l.06.13-.09.12c-1.21,1.53-2.38,3.13-3.47,4.8-.55.83-1.07,1.69-1.54,2.57a6.65,6.65,0,0,0-.94,2.73c0,.21.09.39.19.4a1.79,1.79,0,0,0,.67,0,10.79,10.79,0,0,0,1.48-.22c1-.21,2-.49,3-.79,2-.6,4-1.3,5.94-2A104.81,104.81,0,0,0,295,253.62a31,31,0,0,0,2.78-1.67,7.58,7.58,0,0,0,1.22-1,1.54,1.54,0,0,0,.37-.57c0-.09,0-.16,0-.21a2.29,2.29,0,0,0-.22-.24,6.52,6.52,0,0,0-3-.84,30.34,30.34,0,0,0-3.31-.11,91.63,91.63,0,0,0-10.88,1l-.2,0-.08-.18c-5.59-13.72-11-26.85-15.83-38.84l-.08-.19.19-.11a17.46,17.46,0,0,0,8.28-11A23,23,0,0,0,273,186.58c-1.49-4.05-3-7.92-4.46-11.58a104.22,104.22,0,0,0-4.64-10.24l.13.08a40.09,40.09,0,0,0-8.69,0c-1.37.1-2.68.36-4,.56s-2.5.51-3.65.9a37.23,37.23,0,0,0-11.11,5.33l-1.91,1.45c-.61.45-1.08,1-1.57,1.41s-.91.86-1.32,1.23-.69.79-1,1.11l-1.33,1.53Z" style="fill:#263238"></path><path d="M242.77,203.7c2.5,2.34,5.54,4.9,8.8,6a14.93,14.93,0,0,0,11.12-.74,16.75,16.75,0,0,0,7.28-7.05,17.17,17.17,0,0,0,2-7.53c-.07-2.45-2-5-4.09-6.27s-4.67-1.25-7-.83c-2,.36-4.09.95-6,.28s-3.08-2.25-4.45-3.61a19.86,19.86,0,0,0-8-4.84,7.22,7.22,0,0,0-4.76-.17,5.59,5.59,0,0,0-3.19,4.17,11.68,11.68,0,0,0,.44,5.4c1.56,5.56,4.66,10.49,8,15.22" style="fill:#DB5461"></path><path d="M242.77,203.7c2.5,2.34,5.54,4.9,8.8,6a14.93,14.93,0,0,0,11.12-.74,16.75,16.75,0,0,0,7.28-7.05,17.17,17.17,0,0,0,2-7.53c-.07-2.45-2-5-4.09-6.27s-4.67-1.25-7-.83c-2,.36-4.09.95-6,.28s-3.08-2.25-4.45-3.61a19.86,19.86,0,0,0-8-4.84,7.22,7.22,0,0,0-4.76-.17,5.59,5.59,0,0,0-3.19,4.17,11.68,11.68,0,0,0,.44,5.4c1.56,5.56,4.66,10.49,8,15.22" style="opacity:0.2"></path><path d="M264,164.23a10.15,10.15,0,0,1-1.06,1.13c-.34.35-.78.78-1.31,1.24s-1.12,1-1.83,1.55a48.57,48.57,0,0,1-5.11,3.6,50.47,50.47,0,0,1-14.09,5.87,49.32,49.32,0,0,1-6.15,1.1c-.88.12-1.69.15-2.39.2a17.23,17.23,0,0,1-1.81.06,8.46,8.46,0,0,1-1.54,0,9.08,9.08,0,0,1,1.53-.15c.49,0,1.1-.07,1.8-.15s1.49-.13,2.36-.28a54.31,54.31,0,0,0,6.08-1.2,57.28,57.28,0,0,0,7.19-2.41,58.47,58.47,0,0,0,6.77-3.4,52.48,52.48,0,0,0,5.13-3.48c.72-.51,1.32-1,1.87-1.48s1-.84,1.37-1.17A7.52,7.52,0,0,1,264,164.23Z" style="fill:#263238"></path><path d="M240.19,243l16.5-25.74s26.62-9.5,28.17-6.6-1.57,6.34-1.57,6.34,5.82,1.65,5,6.27-1.75,5.31-1.75,5.31,4.45,1.1,3.45,3.11a30.41,30.41,0,0,1-3,4.46s3.21,1.83,2.53,4.06-7.21,8.86-7.21,8.86l-18.17,6.5.15,5.55-25.45-9Z" style="fill:#ffbe9d"></path><g style="opacity:0.2"><path d="M262.86,172.26c3.26,5,4.39,9.48,5.66,15.34,1,4.56,1.28,9.47-.58,13.74s-6.38,7.64-11,6.95a5.7,5.7,0,0,1-3.69-1.94,3.5,3.5,0,0,1-.35-4c1-1.59,3.24-1.74,5-2.46,3.18-1.32,5-4.88,5.11-8.32s-1.32-6.75-3.11-9.69a21.66,21.66,0,0,1-2.48-4.71,5.23,5.23,0,0,1,.82-5c1.21-1.31,3.67-1.4,4.62.11" style="fill:#fff"></path></g></g><g id="freepik--Plant--inject-442"><path d="M72.07,345.45c5.1.22,9.86,3,13.19,6.9A33.64,33.64,0,0,1,91.89,366c2.47,9.56.8,20.8-2,30.27-10.29-3.78-16.57-14.85-19.4-20.66-4.47-9.19-7-28.51,1.58-30.16" style="fill:#455a64"></path><path d="M104.65,408c-3.22-4.71-3.24-11.21-.62-16.28a21.53,21.53,0,0,1,13.06-10.31c2.53-.75,5.46-1.05,7.64.43a6.94,6.94,0,0,1,2.61,6.53,14.14,14.14,0,0,1-3,6.64c-5.08,6.76-11.23,12.36-19.66,13" style="fill:#455a64"></path><path d="M103.64,432.65c-.14,0-.7-2.4-1.26-6.41a30.42,30.42,0,0,1-.07-7.13,66.72,66.72,0,0,1,1.26-8.62,32.53,32.53,0,0,1,7-14.14,23.85,23.85,0,0,1,3.56-3.24,5.1,5.1,0,0,1,1.53-.88c.12.16-2,1.55-4.49,4.63a34.71,34.71,0,0,0-6.51,13.89,79.48,79.48,0,0,0-1.33,8.46,33.13,33.13,0,0,0-.16,7C103.51,430.14,103.81,432.63,103.64,432.65Z" style="fill:#263238"></path><path d="M75.27,360A18.07,18.07,0,0,1,76.75,363c.89,1.93,2.14,4.74,3.65,8.22,3,7,7.08,16.63,11.31,27.42s7.77,20.67,10.19,27.87c1.21,3.6,2.15,6.52,2.76,8.56a17.6,17.6,0,0,1,.85,3.19,20.19,20.19,0,0,1-1.25-3c-.8-2.18-1.84-5-3.1-8.44-2.6-7.13-6.26-16.94-10.48-27.73s-8.11-20.3-11-27.52c-1.35-3.39-2.47-6.2-3.32-8.35A18.73,18.73,0,0,1,75.27,360Z" style="fill:#263238"></path><path d="M94.36,415.94a38,38,0,0,0-31.57-14.35c-3,.18-6.63,1.16-7.62,4.05s1.23,5.89,3.58,7.85a32.4,32.4,0,0,0,35.82,3.25" style="fill:#455a64"></path><path d="M68.73,408.31a5.46,5.46,0,0,1,1.73-.05c1.12,0,2.73.18,4.71.41a42.92,42.92,0,0,1,14.94,4.51,27,27,0,0,1,6.81,5.37,26,26,0,0,1,4,5.87,25.29,25.29,0,0,1,1.69,4.43,4.91,4.91,0,0,1,.35,1.7c-.21.07-.88-2.31-2.74-5.77a27.91,27.91,0,0,0-4-5.54,27.45,27.45,0,0,0-6.6-5.09c-5.23-2.88-10.67-4-14.52-4.71S68.71,408.49,68.73,408.31Z" style="fill:#263238"></path></g><g id="freepik--Glass--inject-442"><path d="M317.21,383.86s-6.66,36.29,15.42,40.95l.7,38.08s-11.91,4.72-11.42,6.72,27.81,2.62,27.08-.38-11.58-6.14-11.58-6.14l.16-38.8s14.06-1,14.71-18.3-.12-21.92-.12-21.92S334.7,373.56,317.21,383.86Z" style="fill:#fff"></path><path d="M317.21,383.86s.17-.11.55-.31l1.66-.89c.37-.19.77-.44,1.24-.63l1.56-.62c.57-.2,1.16-.49,1.84-.68l2.15-.59a34.43,34.43,0,0,1,11.46-.71c1.13.07,2.27.32,3.46.5s2.4.51,3.62.9a37.18,37.18,0,0,1,7.5,3.09l.08,0V384a98.17,98.17,0,0,1,.39,10.47c0,3.66-.1,7.5-.24,11.49a21.8,21.8,0,0,1-3.62,11.85,16.56,16.56,0,0,1-11.29,6.68l.23-.24c0,12-.09,25.1-.14,38.8l-.19-.25a49.53,49.53,0,0,1,8.51,3.35,10.92,10.92,0,0,1,2.52,1.79,3.5,3.5,0,0,1,.49.64,1.66,1.66,0,0,1,.18.38.9.9,0,0,1,.06.51,1.15,1.15,0,0,1-.62.7,4.63,4.63,0,0,1-.73.32,27.74,27.74,0,0,1-5.94.86,101.11,101.11,0,0,1-11.68,0c-1.91-.12-3.81-.26-5.69-.56-.47-.08-.94-.17-1.4-.29a5.64,5.64,0,0,1-.7-.21,1.79,1.79,0,0,1-.71-.44.83.83,0,0,1,0-.93,2.94,2.94,0,0,1,.48-.6,9.39,9.39,0,0,1,1.13-.89,39.59,39.59,0,0,1,4.86-2.64c1.65-.77,3.31-1.49,5-2.15l-.15.23c-.25-14.06-.47-26.92-.66-38.09l.15.19a17.69,17.69,0,0,1-9.21-5.08,20.61,20.61,0,0,1-1.62-1.9c-.44-.69-.94-1.33-1.3-2l-.57-1c-.17-.35-.33-.71-.49-1.05-.35-.69-.58-1.41-.86-2.1a40.06,40.06,0,0,1-1.88-8.05,59.58,59.58,0,0,1-.48-6.93,73,73,0,0,1,.51-9.63c.14-1.1.27-1.93.36-2.49a8.08,8.08,0,0,1,.17-.84s0,.28-.11.85-.18,1.4-.3,2.49a78.58,78.58,0,0,0-.41,9.61,60,60,0,0,0,.54,6.91,38.58,38.58,0,0,0,1.91,8c.28.68.51,1.39.85,2.07.16.34.33.69.49,1l.57,1a22.63,22.63,0,0,0,1.29,2,18.6,18.6,0,0,0,1.59,1.86,17.38,17.38,0,0,0,9,4.94l.15,0v.16c.22,11.17.47,24,.75,38.09v.17l-.16.06c-1.64.66-3.29,1.38-4.92,2.15a37.83,37.83,0,0,0-4.8,2.61,8.72,8.72,0,0,0-1.05.83,2.17,2.17,0,0,0-.4.48.44.44,0,0,0-.08.38,2.83,2.83,0,0,0,1.13.47c.44.11.9.2,1.36.28,1.84.29,3.74.44,5.64.55a104.72,104.72,0,0,0,11.62,0,26.8,26.8,0,0,0,5.8-.85c.42-.14,1-.38,1-.64a1,1,0,0,0-.18-.51,3.49,3.49,0,0,0-.42-.55,10.57,10.57,0,0,0-2.39-1.68,48.14,48.14,0,0,0-8.4-3.31l-.19-.06v-.19c.06-13.7.12-26.82.17-38.8v-.22l.23,0a16.13,16.13,0,0,0,10.95-6.46,21.44,21.44,0,0,0,3.56-11.6c.15-4,.26-7.82.27-11.47A94.28,94.28,0,0,0,352,384.1l.09.13a37.18,37.18,0,0,0-7.41-3.09c-1.21-.39-2.42-.64-3.59-.91s-2.31-.45-3.43-.52a34.19,34.19,0,0,0-11.38.63l-2.15.56c-.67.17-1.26.46-1.84.65l-1.56.59c-.47.19-.87.43-1.24.6l-1.68.84Z" style="fill:#263238"></path><path d="M352.26,383.68a8.66,8.66,0,0,1-1.3.6c-.42.18-.94.39-1.56.6s-1.32.48-2.12.69a43.66,43.66,0,0,1-5.64,1.27,46,46,0,0,1-14.12.05,46,46,0,0,1-5.65-1.24c-.8-.21-1.5-.47-2.12-.68s-1.14-.4-1.57-.58a7.56,7.56,0,0,1-1.3-.6,7.64,7.64,0,0,1,1.37.4q.64.24,1.59.51c.63.18,1.33.41,2.12.59a50.63,50.63,0,0,0,5.62,1.12,55.93,55.93,0,0,0,7,.48,55.32,55.32,0,0,0,7-.52,52.29,52.29,0,0,0,5.62-1.16c.79-.19,1.49-.42,2.11-.61s1.16-.36,1.59-.51A7.29,7.29,0,0,1,352.26,383.68Z" style="fill:#263238"></path><path d="M318.49,399.46c.75,4.48,1.57,9,3.68,13.05s5.73,7.5,10.19,8.32c5.21,1,10.63-2,13.53-6.42s4.74-10.54,4-15.77a1.15,1.15,0,0,0-.92-1.1,7.18,7.18,0,0,0-3.32-.44,14.59,14.59,0,0,0-2.6,1.28c-3.82,2-8.42,1.18-12.64.36s-7.47-2.16-11.88.72" style="fill:#DB5461"></path><path d="M318.49,399.46c.75,4.48,1.57,9,3.68,13.05s5.73,7.5,10.19,8.32c5.21,1,10.63-2,13.53-6.42s4.74-10.54,4-15.77a1.15,1.15,0,0,0-.92-1.1,7.18,7.18,0,0,0-3.32-.44,14.59,14.59,0,0,0-2.6,1.28c-3.82,2-8.42,1.18-12.64.36s-7.47-2.16-11.88.72" style="opacity:0.2"></path><g style="opacity:0.2"><path d="M348.47,390.15c1,5.46.41,9.66-.59,15.12-.77,4.24-2.24,8.55-5.34,11.55s-8.15,4.28-11.85,2.06a5.28,5.28,0,0,1-2.48-3,3.25,3.25,0,0,1,1.11-3.53c1.45-1,3.39-.34,5.14-.34,3.19,0,6-2.4,7.31-5.31a16.92,16.92,0,0,0,.76-9.39,19.81,19.81,0,0,1-.46-4.9,4.87,4.87,0,0,1,2.48-4c1.5-.68,3.64.11,3.92,1.73" style="fill:#fff"></path></g></g></svg>