<svg xmlns="http://www.w3.org/2000/svg" xmlns:xlink="http://www.w3.org/1999/xlink" viewBox="0 0 382.75 207.04"><defs><clipPath id="clip-path"><circle cx="246.43" cy="34.97" r="29.69" transform="translate(4.93 95.2) rotate(-22.08)" fill="none"/></clipPath><clipPath id="clip-path-2"><circle cx="176.62" cy="154.86" r="29.69" transform="translate(-57.21 132.5) rotate(-35.78)" fill="none"/></clipPath><clipPath id="clip-path-3"><circle cx="246.41" cy="154.85" r="29.69" fill="none"/></clipPath><clipPath id="clip-path-4"><circle cx="281.43" cy="94.97" r="29.69" fill="none"/></clipPath><clipPath id="clip-path-5"><circle cx="211.94" cy="94.96" r="29.69" fill="none"/></clipPath><clipPath id="clip-path-6"><circle cx="315.36" cy="154.84" r="29.69" fill="none"/></clipPath><clipPath id="clip-path-7"><path d="M246.42,65.17A30.19,30.19,0,1,1,276.61,35h0A30.22,30.22,0,0,1,246.42,65.17Zm0-59.37A29.19,29.19,0,1,0,275.61,35,29.19,29.19,0,0,0,246.42,5.8Z" fill="none" clip-path="url(#clip-path)"/></clipPath><clipPath id="clip-path-8"><path d="M246.42,185.05a30.19,30.19,0,1,1,30.19-30.19A30.19,30.19,0,0,1,246.42,185.05Zm0-59.38a29.19,29.19,0,1,0,29.19,29.19A29.19,29.19,0,0,0,246.42,125.67Z" fill="none" clip-path="url(#clip-path-3)"/></clipPath><clipPath id="clip-path-9"><path d="M281.42,125.17A30.19,30.19,0,1,1,311.61,95h0A30.22,30.22,0,0,1,281.42,125.17Zm0-59.37A29.19,29.19,0,1,0,310.61,95,29.19,29.19,0,0,0,281.42,65.8Z" fill="none" clip-path="url(#clip-path-4)"/></clipPath><clipPath id="clip-path-10"><path d="M211.92,125.17A30.19,30.19,0,1,1,242.11,95h0A30.22,30.22,0,0,1,211.92,125.17Zm0-59.37A29.19,29.19,0,1,0,241.11,95,29.19,29.19,0,0,0,211.92,65.8Z" fill="none" clip-path="url(#clip-path-5)"/></clipPath><clipPath id="clip-path-11"><path d="M315.33,185.05a30.19,30.19,0,1,1,30.19-30.19A30.19,30.19,0,0,1,315.33,185.05Zm0-59.38a29.19,29.19,0,1,0,29.19,29.19A29.19,29.19,0,0,0,315.33,125.67Z" fill="none" clip-path="url(#clip-path-6)"/></clipPath><clipPath id="clip-path-12"><path d="M176.62,185.05a30.19,30.19,0,1,1,30.19-30.19h0A30.22,30.22,0,0,1,176.62,185.05Zm0-59.38a29.19,29.19,0,1,0,29.19,29.19h0A29.23,29.23,0,0,0,176.62,125.67Z" fill="none" clip-path="url(#clip-path-2)"/></clipPath></defs><g id="Calque_2" data-name="Calque 2"><g id="Calque_1-2" data-name="Calque 1"><g id="freepik--Floor--inject-443"><path d="M382.25,178H.5a.5.5,0,0,1,0-1H382.25a.5.5,0,0,1,0,1Z" fill="#263238"/></g><g id="freepik--Wine--inject-443"><polygon points="272.07 11.65 377.52 190.26 178.1 190.26 178.1 159.41 246.25 13.8 272.07 11.65" opacity="0.32" style="isolation:isolate"/><circle cx="246.42" cy="34.98" r="34.52" transform="matrix(0.93, -0.37, 0.37, 0.93, 4.85, 94.9)" fill="#db5461"/><path d="M246.42,70a35,35,0,1,1,35-35h0A35,35,0,0,1,246.42,70Zm0-69a34,34,0,1,0,34,34,34,34,0,0,0-34-34h0Z" fill="#263238"/><circle cx="246.43" cy="34.97" r="29.69" transform="translate(4.93 95.2) rotate(-22.08)" fill="#db5461"/><path d="M246.42,65.17A30.19,30.19,0,1,1,276.61,35h0A30.22,30.22,0,0,1,246.42,65.17Zm0-59.37A29.19,29.19,0,1,0,275.61,35,29.19,29.19,0,0,0,246.42,5.8Z" fill="#263238"/><g clip-path="url(#clip-path-7)"><path d="M219.05,37.88a29.69,29.69,0,0,1,51.64-20A29.69,29.69,0,0,0,222.07,52a28.67,28.67,0,0,0,2.4,3A29.5,29.5,0,0,1,219.05,37.88Z" opacity="0.4" style="isolation:isolate"/></g><path d="M264.8,40.7a31.49,31.49,0,0,0-4-4c-2.5-2.08-5.88-9.81-6.75-17.57-.83-7.49,1.62-11.26,1.73-11.42l.83.55s-2.35,3.67-1.56,10.76c.81,7.3,4,15,6.39,16.91a31.75,31.75,0,0,1,4.18,4.18Z" fill="#263238"/><path d="M270.27,49.45a127.44,127.44,0,0,1-11.13-7.84c-5.7-4.48-8.68-17-8.8-17.52l1-.22c0,.12,2.91,12.6,8.45,17s11,7.73,11,7.76Z" fill="#263238"/><path d="M262.63,22a2.65,2.65,0,0,1-1.39-.46c-4.35-2.61-2.76-10.85-2.69-11.2l1,.2c0,.08-1.53,7.89,2.23,10.15.53.32.94.39,1.21.21,1.06-.72.93-4.82.5-7.51l1-.15c.19,1.18,1,7.16-.93,8.48A1.55,1.55,0,0,1,262.63,22Z" fill="#263238"/><path d="M228.18,26.07l-1-.14c.49-3.61,1-6.14,1-6.16l1,.19S228.67,22.45,228.18,26.07Z" fill="#263238"/><path d="M232.82,61.68c-.19-.19-4.65-4.74-6.3-14.64-.62-3.72-.62-8.88,0-15.32l1,.09c-.61,6.36-.61,11.43,0,15.06,1.6,9.59,6,14.06,6,14.1Z" fill="#263238"/><path d="M253.48,63.45c-9.53-4.56-14.42-20.17-14.63-20.83l1-.3c0,.16,5,15.86,14.11,20.23Z" fill="#263238"/><circle cx="246.42" cy="154.86" r="34.52" fill="#db5461"/><path d="M246.42,189.88a35,35,0,1,1,35-35A35,35,0,0,1,246.42,189.88Zm0-69a34,34,0,1,0,34,34h0a34,34,0,0,0-34-34h0Z" fill="#263238"/><circle cx="246.41" cy="154.85" r="29.69" fill="#db5461"/><path d="M246.42,185.05a30.19,30.19,0,1,1,30.19-30.19A30.19,30.19,0,0,1,246.42,185.05Zm0-59.38a29.19,29.19,0,1,0,29.19,29.19A29.19,29.19,0,0,0,246.42,125.67Z" fill="#263238"/><g clip-path="url(#clip-path-8)"><path d="M219.05,157.75a29.69,29.69,0,0,1,51.64-20,29.69,29.69,0,1,0-48.56,34.17,28.49,28.49,0,0,0,2.34,2.92A29.63,29.63,0,0,1,219.05,157.75Z" opacity="0.4" style="isolation:isolate"/></g><path d="M264.8,160.58a30.24,30.24,0,0,0-4-4c-2.5-2.08-5.88-9.81-6.75-17.57-.83-7.48,1.62-11.26,1.73-11.42l.83.56s-2.35,3.66-1.56,10.75c.81,7.31,4,15,6.39,16.91a34.38,34.38,0,0,1,4.18,4.18Z" fill="#263238"/><path d="M270.27,169.31a132.85,132.85,0,0,1-11.13-7.86c-5.82-4.58-8.68-17-8.8-17.53l1-.22c0,.13,2.91,12.61,8.45,17s11,7.73,11,7.77Z" fill="#263238"/><path d="M262.63,141.85a2.76,2.76,0,0,1-1.39-.45c-4.35-2.62-2.76-10.86-2.69-11.2l1,.19c0,.08-1.53,7.9,2.23,10.15.53.32.94.39,1.21.21,1.06-.72.93-4.82.5-7.5l1-.16c.19,1.18,1,7.16-.93,8.49A1.61,1.61,0,0,1,262.63,141.85Z" fill="#263238"/><path d="M228.18,145.94l-1-.14c.49-3.6,1-6.13,1-6.16l1,.19S228.67,142.36,228.18,145.94Z" fill="#263238"/><path d="M232.82,181.55c-.19-.19-4.65-4.74-6.3-14.64-.62-3.72-.62-8.88,0-15.32l1,.1c-.61,6.35-.61,11.42,0,15.06,1.6,9.58,6,14.05,6,14.1Z" fill="#263238"/><path d="M253.48,183.29c-9.53-4.56-14.42-20.17-14.63-20.83l1-.29c0,.16,5,15.85,14.11,20.22Z" fill="#263238"/><circle cx="281.43" cy="94.98" r="34.52" fill="#db5461"/><path d="M281.42,130a35,35,0,1,1,35-35,35,35,0,0,1-35,35Zm0-69a34,34,0,1,0,34,34,34,34,0,0,0-34-34h0Z" fill="#263238"/><circle cx="281.43" cy="94.97" r="29.69" fill="#db5461"/><path d="M281.42,125.17A30.19,30.19,0,1,1,311.61,95h0A30.22,30.22,0,0,1,281.42,125.17Zm0-59.37A29.19,29.19,0,1,0,310.61,95,29.19,29.19,0,0,0,281.42,65.8Z" fill="#263238"/><g clip-path="url(#clip-path-9)"><path d="M254.05,97.88a29.69,29.69,0,0,1,51.64-20A29.69,29.69,0,0,0,257.07,112a28.67,28.67,0,0,0,2.4,3A29.5,29.5,0,0,1,254.05,97.88Z" opacity="0.4" style="isolation:isolate"/></g><path d="M253.08,101.61l-.4-.92c.18-.08,18.11-7.87,27.79-16.34S293.15,74.1,293.27,74l.5.87s-3,1.75-12.65,10.2S253.26,101.53,253.08,101.61Z" fill="#263238"/><path d="M275.66,97.5l-.4-.92c11.31-4.85,27.66-16.66,27.82-16.78l.59.82C303.5,80.73,287.07,92.61,275.66,97.5Z" fill="#263238"/><path d="M290.93,100.45l-.44-.9c1.61-.8,3.24-1.66,4.84-2.56l.49.87C294.21,98.8,292.56,99.67,290.93,100.45Z" fill="#263238"/><path d="M257.33,109.45h-1.21l.07-1c.12,0,12,.77,28.82-6.36l.39.93C271.43,108.92,260.81,109.45,257.33,109.45Z" fill="#263238"/><circle cx="211.92" cy="94.98" r="34.52" fill="#db5461"/><path d="M211.92,130a35,35,0,1,1,35-35,35,35,0,0,1-35,35Zm0-69a34,34,0,1,0,34,34,34,34,0,0,0-34-34h0Z" fill="#263238"/><circle cx="211.94" cy="94.96" r="29.69" fill="#db5461"/><path d="M211.92,125.17A30.19,30.19,0,1,1,242.11,95h0A30.22,30.22,0,0,1,211.92,125.17Zm0-59.37A29.19,29.19,0,1,0,241.11,95,29.19,29.19,0,0,0,211.92,65.8Z" fill="#263238"/><g clip-path="url(#clip-path-10)"><path d="M184.55,97.88a29.69,29.69,0,0,1,51.64-20A29.69,29.69,0,0,0,187.57,112a28.67,28.67,0,0,0,2.4,3A29.5,29.5,0,0,1,184.55,97.88Z" opacity="0.4" style="isolation:isolate"/></g><path d="M197.08,108.62l-.34-.94c3.36-1.22,6.87-2.34,10.44-3.32,11.84-3.27,32-2.49,32.17-2.48v1c-.2,0-20.17-.78-31.87,2.44C203.9,106.3,200.41,107.45,197.08,108.62Z" fill="#263238"/><path d="M188.24,112.27l-.45-.9s1.29-.64,3.58-1.6l.38.92C189.5,111.64,188.25,112.26,188.24,112.27Z" fill="#263238"/><path d="M204.18,102.45l-.31-1a113.26,113.26,0,0,1,35.46-4.14v1A111.88,111.88,0,0,0,204.18,102.45Z" fill="#263238"/><path d="M188.33,86.76l-.61-.79a65.37,65.37,0,0,1,36.84-11.6v1A64.25,64.25,0,0,0,188.33,86.76Z" fill="#263238"/><circle cx="315.37" cy="154.86" r="34.52" fill="#db5461"/><path d="M315.33,189.88a35,35,0,1,1,35-35A35,35,0,0,1,315.33,189.88Zm0-69a34,34,0,1,0,34,34h0a34.06,34.06,0,0,0-34-34Z" fill="#263238"/><circle cx="315.36" cy="154.84" r="29.69" fill="#db5461"/><path d="M315.33,185.05a30.19,30.19,0,1,1,30.19-30.19A30.19,30.19,0,0,1,315.33,185.05Zm0-59.38a29.19,29.19,0,1,0,29.19,29.19A29.19,29.19,0,0,0,315.33,125.67Z" fill="#263238"/><g clip-path="url(#clip-path-11)"><path d="M288,157.75a29.69,29.69,0,0,1,51.64-20,29.69,29.69,0,1,0-48.56,34.17,28.49,28.49,0,0,0,2.34,2.92A29.63,29.63,0,0,1,288,157.75Z" opacity="0.4" style="isolation:isolate"/></g><path d="M300.53,168.45l-.34-.94c3.36-1.22,6.87-2.33,10.44-3.32,11.84-3.26,32-2.49,32.17-2.48v1c-.2,0-20.17-.78-31.86,2.45C307.33,166.17,303.87,167.28,300.53,168.45Z" fill="#263238"/><path d="M291.69,172.14l-.44-.89c.05,0,1.28-.65,3.57-1.6l.39.92C293,171.51,291.71,172.13,291.69,172.14Z" fill="#263238"/><path d="M307.63,162.32l-.3-.95a112.7,112.7,0,0,1,35.47-4.13v1A111.67,111.67,0,0,0,307.63,162.32Z" fill="#263238"/><path d="M291.78,146.64l-.62-.79A65.33,65.33,0,0,1,328,134.25v1A64.1,64.1,0,0,0,291.78,146.64Z" fill="#263238"/><circle cx="176.62" cy="154.86" r="34.52" fill="#db5461"/><path d="M176.62,189.88a35,35,0,1,1,35-35h0A35.05,35.05,0,0,1,176.62,189.88Zm0-69a34,34,0,1,0,34,34h0a34.06,34.06,0,0,0-34-34Z" fill="#263238"/><circle cx="176.62" cy="154.86" r="29.69" transform="translate(-57.21 132.5) rotate(-35.78)" fill="#db5461"/><path d="M176.62,185.05a30.19,30.19,0,1,1,30.19-30.19h0A30.22,30.22,0,0,1,176.62,185.05Zm0-59.38a29.19,29.19,0,1,0,29.19,29.19h0A29.23,29.23,0,0,0,176.62,125.67Z" fill="#263238"/><g clip-path="url(#clip-path-12)"><path d="M149.24,157.75a29.69,29.69,0,0,1,51.64-20,29.69,29.69,0,1,0-48.56,34.17,28.49,28.49,0,0,0,2.34,2.92A29.63,29.63,0,0,1,149.24,157.75Z" opacity="0.4" style="isolation:isolate"/></g><path d="M161.77,168.45l-.34-.94c3.37-1.22,6.88-2.33,10.44-3.32,11.85-3.26,32-2.49,32.18-2.48v1c-.21,0-20.18-.78-31.87,2.45C168.6,166.17,165.11,167.28,161.77,168.45Z" fill="#263238"/><path d="M152.93,172.14l-.44-.89s1.29-.65,3.57-1.6l.39.92C154.2,171.51,153,172.14,152.93,172.14Z" fill="#263238"/><path d="M168.88,162.32l-.31-.95a113.05,113.05,0,0,1,35.48-4.13v1A111.67,111.67,0,0,0,168.88,162.32Z" fill="#263238"/><path d="M153,146.64l-.62-.79a65.33,65.33,0,0,1,36.85-11.6v1A64.25,64.25,0,0,0,153,146.64Z" fill="#263238"/><ellipse cx="103.17" cy="191.2" rx="65.16" ry="15.84" opacity="0.32" style="isolation:isolate"/><path d="M72.33,30.58l-.62-14.95h-5l-.62,14.95a1.69,1.69,0,0,1-1.69,1.69h0A1.69,1.69,0,0,0,62.71,34V62.16h13V34A1.69,1.69,0,0,0,74,32.27h0a1.69,1.69,0,0,1-1.69-1.69Z" fill="#263238"/><path d="M75.73,62.66h-13a.5.5,0,0,1-.5-.5V34a2.19,2.19,0,0,1,2.19-2.18,1.21,1.21,0,0,0,1.19-1.19l.62-15a.5.5,0,0,1,.5-.48h5a.5.5,0,0,1,.5.48l.62,15h0A1.21,1.21,0,0,0,74,31.77,2.19,2.19,0,0,1,76.23,34V62.16A.5.5,0,0,1,75.73,62.66Zm-12.52-1h12V34A1.18,1.18,0,0,0,74,32.77h0a2.21,2.21,0,0,1-2.19-2.18l-.6-14.46H67.17l-.6,14.47a2.2,2.2,0,0,1-2.19,2.17,1.18,1.18,0,0,0-1.19,1.17h0Z" fill="#263238"/><rect x="66.09" y="14.42" width="6.26" height="3.38" fill="#263238"/><path d="M72.33,18.3H66.07a.5.5,0,0,1-.5-.5V14.45a.52.52,0,0,1,.5-.5h6.26a.52.52,0,0,1,.5.5v3.38A.51.51,0,0,1,72.33,18.3Zm-5.76-1h5.26V14.92H66.57Z" fill="#263238"/><rect x="62.71" y="37.33" width="8.5" height="21.46" fill="#fff"/><path d="M71.21,59.29h-8.5a.5.5,0,0,1-.5-.5V37.33a.5.5,0,0,1,.5-.5h8.5a.5.5,0,0,1,.5.5V58.79A.5.5,0,0,1,71.21,59.29Zm-8-1h7.5V37.83h-7.5Z" fill="#263238"/><path d="M112.81,61.67H51.4s-24,25-24,71.32,28.19,64,28.19,64h53.1s28.18-17.72,28.18-64S112.81,61.67,112.81,61.67Z" fill="#db5461"/><path d="M108.66,197.54H55.56a.5.5,0,0,1-.23-.09c-.29-.18-28.42-18.4-28.42-64.47S50.84,61.57,51.08,61.32a.48.48,0,0,1,.36-.16h61.41a.48.48,0,0,1,.36.16c.24.25,24.17,25.66,24.17,71.66s-28.17,64.3-28.46,64.47A.62.62,0,0,1,108.66,197.54Zm-53-1h52.8c2-1.33,27.83-19.57,27.83-63.55,0-43.73-21.77-68.65-23.75-70.82h-61c-2,2.17-23.75,27.09-23.75,70.82.08,44,25.94,62.22,27.92,63.55Z" fill="#263238"/><path d="M102.05,197.54H62.16a.53.53,0,0,1-.32-.12C61.63,197.24,40.5,179,40.5,133s18-71.36,18.14-71.61a.49.49,0,0,1,.4-.21h46.13a.49.49,0,0,1,.4.21c.18.25,18.14,25.65,18.14,71.61s-21.13,64.25-21.38,64.46A.55.55,0,0,1,102.05,197.54Zm-39.7-1h39.51c1.78-1.62,20.85-19.93,20.85-63.55,0-43.46-16.1-68.32-17.8-70.82H59.33c-1.7,2.5-17.81,27.39-17.81,70.82,0,43.66,19,61.93,20.81,63.55Z" fill="#263238"/><path d="M90.59,197.54h-17a.49.49,0,0,1-.44-.28c-.09-.18-9.06-18.35-9.06-64.27s7.62-71.21,7.7-71.46a.49.49,0,0,1,.47-.36H91.89a.49.49,0,0,1,.47.36c.08.25,7.7,25.58,7.7,71.46s-9,64.09-9.06,64.27A.49.49,0,0,1,90.59,197.54Zm-16.65-1H90.27c1.1-2.42,8.82-20.95,8.82-63.55,0-42.8-6.64-67.61-7.55-70.82H72.67c-.91,3.21-7.55,28-7.55,70.82C65.12,175.59,72.84,194.12,73.94,196.54Z" fill="#263238"/><path d="M36.7,174.45a72.32,72.32,0,0,0,4.59,7.72h81.63a72.32,72.32,0,0,0,4.59-7.72Z" fill="#263238"/><path d="M122.92,182.63H41.33a.52.52,0,0,1-.41-.21,74.42,74.42,0,0,1-4.62-7.78.48.48,0,0,1,0-.49.49.49,0,0,1,.42-.24h90.81a.49.49,0,0,1,.42.24.48.48,0,0,1,0,.49,73.82,73.82,0,0,1-4.62,7.81A.49.49,0,0,1,122.92,182.63Zm-81.36-1h81.09a73.43,73.43,0,0,0,4-6.72H37.53A73.72,73.72,0,0,0,41.56,181.63Z" fill="#263238"/><path d="M47.85,190.31A44.54,44.54,0,0,0,55.56,197h53.1a44.85,44.85,0,0,0,7.7-6.73Z" fill="#263238"/><path d="M108.66,197.54H55.56a.5.5,0,0,1-.23-.09,44.38,44.38,0,0,1-7.8-6.81.49.49,0,0,1-.1-.54.51.51,0,0,1,.46-.3h68.44a.51.51,0,0,1,.46.3.49.49,0,0,1-.1.54,44.38,44.38,0,0,1-7.8,6.81A.5.5,0,0,1,108.66,197.54Zm-53-1h52.81a45.62,45.62,0,0,0,6.68-5.73H49a45,45,0,0,0,6.67,5.73Z" fill="#263238"/><path d="M117.8,68a56.86,56.86,0,0,0-5-6.36H51.4a56.86,56.86,0,0,0-5,6.36Z" fill="#263238"/><path d="M117.8,68.53H46.41a.51.51,0,0,1-.44-.27.47.47,0,0,1,0-.51,55.51,55.51,0,0,1,5-6.42.48.48,0,0,1,.36-.16h61.41a.48.48,0,0,1,.36.16,55.51,55.51,0,0,1,5,6.42.47.47,0,0,1,0,.51A.5.5,0,0,1,117.8,68.53Zm-70.43-1h69.47a57.78,57.78,0,0,0-4.25-5.36h-61a57.89,57.89,0,0,0-4.26,5.36Z" fill="#263238"/><path d="M126.7,83.93c-1.27-2.84-2.57-5.42-3.85-7.72H41.33c-1.28,2.3-2.58,4.88-3.85,7.72Z" fill="#263238"/><path d="M126.7,84.45H37.51a.5.5,0,0,1-.42-.23.51.51,0,0,1,0-.48C38.3,81.06,39.6,78.45,41,76a.51.51,0,0,1,.44-.26h81.49a.51.51,0,0,1,.44.26c1.36,2.46,2.66,5.07,3.87,7.75a.51.51,0,0,1,0,.48A.5.5,0,0,1,126.7,84.45Zm-88.37-1h87.6c-1.06-2.32-2.19-4.57-3.37-6.72H41.65C40.48,78.86,39.33,81.11,38.33,83.45Z" fill="#263238"/><path d="M99.66,59a7.9,7.9,0,0,1-.48-4.82,9.38,9.38,0,0,1,3.37-5.31l.73,6L106.65,52l-1.93,5.06s.73.48,3.38.48a18.83,18.83,0,0,1,6,1.45,22.93,22.93,0,0,1-6,2.17C105.21,61.68,99.66,59,99.66,59Z" fill="#db5461"/><path d="M107.33,61.76c-3.09,0-7.67-2.18-7.89-2.28a.45.45,0,0,1-.21-.2,8.29,8.29,0,0,1-.55-5.15,9.88,9.88,0,0,1,3.57-5.63.53.53,0,0,1,.5-.06.5.5,0,0,1,.3.4l.61,5.1,2.67-2.28a.5.5,0,0,1,.61,0,.49.49,0,0,1,.18.58l-1.75,4.6a10.42,10.42,0,0,0,2.73.27,19.07,19.07,0,0,1,6.22,1.49.49.49,0,0,1,.31.44.52.52,0,0,1-.27.46,23.55,23.55,0,0,1-6.18,2.22A4.84,4.84,0,0,1,107.33,61.76ZM100,58.65c.91.42,5.54,2.46,8,2.05a20.17,20.17,0,0,0,4.85-1.61,15.62,15.62,0,0,0-4.77-1c-2.67,0-3.51-.47-3.65-.56a.49.49,0,0,1-.19-.6l1.22-3.22-1.88,1.61a.52.52,0,0,1-.51.09.51.51,0,0,1-.31-.41l-.61-5.08a8.26,8.26,0,0,0-2.5,4.37A8.09,8.09,0,0,0,100,58.65Z" fill="#263238"/><circle cx="82.18" cy="54.93" r="2.53" fill="#fff"/><path d="M82.18,58a3,3,0,1,1,3-3A3,3,0,0,1,82.18,58Zm0-5.06a2,2,0,1,0,2,2A2,2,0,0,0,82.18,52.9Z" fill="#263238"/><circle cx="86.04" cy="54.33" r="2.53" fill="#fff"/><path d="M86,57.36a3,3,0,1,1,3-3A3,3,0,0,1,86,57.36Zm0-5.07a2,2,0,1,0,2,2A2,2,0,0,0,86,52.29Z" fill="#263238"/><circle cx="87" cy="57.94" r="2.53" fill="#fff"/><path d="M87,61a3,3,0,1,1,3-3A3,3,0,0,1,87,61Zm0-5.06a2,2,0,1,0,2,2A2,2,0,0,0,87,55.91Z" fill="#263238"/><circle cx="90.86" cy="57.22" r="2.53" fill="#fff"/><path d="M90.86,60.25a3,3,0,1,1,3-3A3,3,0,0,1,90.86,60.25Zm0-5.06a2,2,0,1,0,2,2A2,2,0,0,0,90.86,55.19Z" fill="#263238"/><circle cx="83.14" cy="57.94" r="2.53" fill="#fff"/><path d="M83.14,61a3,3,0,1,1,3-3A3,3,0,0,1,83.14,61Zm0-5.06a2,2,0,1,0,2,2A2,2,0,0,0,83.14,55.91Z" fill="#263238"/><path d="M97.49,58.45A2.53,2.53,0,1,1,95,55.91a2.53,2.53,0,0,1,2.53,2.54Z" fill="#fff"/><path d="M95,61.45a3,3,0,1,1,3-3A3,3,0,0,1,95,61.45Zm0-5.07a2,2,0,1,0,2,2,2,2,0,0,0-2-2Z" fill="#263238"/><circle cx="91.22" cy="53.48" r="2.53" fill="#fff"/><path d="M91.22,56.51a3,3,0,1,1,3-3A3,3,0,0,1,91.22,56.51Zm0-5.06a2,2,0,1,0,2,2A2,2,0,0,0,91.22,51.45Z" fill="#263238"/><circle cx="88.57" cy="59.75" r="2.53" fill="#fff"/><path d="M88.57,62.78a3,3,0,1,1,3-3A3,3,0,0,1,88.57,62.78Zm0-5.06a2,2,0,1,0,2,2A2,2,0,0,0,88.57,57.72Z" fill="#263238"/><circle cx="95.56" cy="53.96" r="2.53" fill="#fff"/><path d="M95.56,57a3,3,0,1,1,3-3A3,3,0,0,1,95.56,57Zm0-5.07a2,2,0,1,0,2,2,2,2,0,0,0-2-2Z" fill="#263238"/><circle cx="99.9" cy="59.27" r="2.53" fill="#fff"/><path d="M99.9,62.3a3,3,0,1,1,3-3A3,3,0,0,1,99.9,62.3Zm0-5.06a2,2,0,1,0,2,2A2,2,0,0,0,99.9,57.24Z" fill="#263238"/><path d="M80.85,58.67a2.53,2.53,0,1,1-2.53-2.54,2.53,2.53,0,0,1,2.53,2.54Z" fill="#fff"/><path d="M78.33,61.7a3,3,0,1,1,3-3A3,3,0,0,1,78.33,61.7Zm0-5.07a2,2,0,1,0,2,2A2,2,0,0,0,78.33,56.63Z" fill="#263238"/></g></g></g></svg>