<svg xmlns="http://www.w3.org/2000/svg" xmlns:xlink="http://www.w3.org/1999/xlink" viewBox="0 0 500 500"><defs><clipPath id="freepik--clip-path--inject-443"><circle cx="311.09" cy="250.54" r="29.69" transform="translate(-71.35 135.29) rotate(-22.08)" style="fill:#DB5461"></circle></clipPath><clipPath id="freepik--clip-path-2--inject-443"><circle cx="241.29" cy="370.41" r="29.69" transform="translate(-191.25 279.11) rotate(-45)" style="fill:#DB5461"></circle></clipPath><clipPath id="freepik--clip-path-3--inject-443"><path d="M253.86,152.35a38.39,38.39,0,0,0-6.19-2.82c-5.19-1.44-17.28,1.73-17.28,1.73s-3.53,1.51-7.66,3.68l-.41.64-4.9,13.54,2.88.58-3.74,3.17,3.46,33.7,29.67-34-4-5.76,5.76-.58Z" style="fill:#263238"></path></clipPath><clipPath id="freepik--clip-path-4--inject-443"><circle cx="311.09" cy="370.41" r="29.69" transform="translate(-104 618.77) rotate(-80.87)" style="fill:#DB5461"></circle></clipPath><clipPath id="freepik--clip-path-5--inject-443"><circle cx="346.09" cy="310.54" r="29.69" transform="translate(-91.34 152.85) rotate(-22.08)" style="fill:#DB5461"></circle></clipPath><clipPath id="freepik--clip-path-6--inject-443"><circle cx="276.59" cy="310.54" r="29.69" transform="translate(-96.43 126.72) rotate(-22.08)" style="fill:#DB5461"></circle></clipPath><clipPath id="freepik--clip-path-7--inject-443"><circle cx="380.04" cy="370.41" r="29.69" transform="translate(-66.93 656.51) rotate(-76.89)" style="fill:#DB5461"></circle></clipPath><clipPath id="freepik--clip-path-8--inject-443"><path d="M311.09,280.72a30.19,30.19,0,1,1,30.19-30.18A30.22,30.22,0,0,1,311.09,280.72Zm0-59.37a29.19,29.19,0,1,0,29.19,29.19A29.22,29.22,0,0,0,311.09,221.35Z" style="fill:#263238;clip-path:url(#freepik--clip-path--inject-443)"></path></clipPath><clipPath id="freepik--clip-path-9--inject-443"><path d="M311.09,400.6a30.19,30.19,0,1,1,30.19-30.19A30.23,30.23,0,0,1,311.09,400.6Zm0-59.38a29.19,29.19,0,1,0,29.19,29.19A29.22,29.22,0,0,0,311.09,341.22Z" style="fill:#263238;clip-path:url(#freepik--clip-path-4--inject-443)"></path></clipPath><clipPath id="freepik--clip-path-10--inject-443"><path d="M346.09,340.72a30.19,30.19,0,1,1,30.19-30.18A30.22,30.22,0,0,1,346.09,340.72Zm0-59.37a29.19,29.19,0,1,0,29.19,29.19A29.22,29.22,0,0,0,346.09,281.35Z" style="fill:#263238;clip-path:url(#freepik--clip-path-5--inject-443)"></path></clipPath><clipPath id="freepik--clip-path-11--inject-443"><path d="M276.59,340.72a30.19,30.19,0,1,1,30.19-30.18A30.22,30.22,0,0,1,276.59,340.72Zm0-59.37a29.19,29.19,0,1,0,29.19,29.19A29.22,29.22,0,0,0,276.59,281.35Z" style="fill:#263238;clip-path:url(#freepik--clip-path-6--inject-443)"></path></clipPath><clipPath id="freepik--clip-path-12--inject-443"><path d="M380,400.6a30.19,30.19,0,1,1,30.19-30.19A30.22,30.22,0,0,1,380,400.6Zm0-59.38a29.19,29.19,0,1,0,29.19,29.19A29.22,29.22,0,0,0,380,341.22Z" style="fill:#263238;clip-path:url(#freepik--clip-path-7--inject-443)"></path></clipPath><clipPath id="freepik--clip-path-13--inject-443"><path d="M241.29,400.6a30.19,30.19,0,1,1,30.19-30.19A30.22,30.22,0,0,1,241.29,400.6Zm0-59.38a29.19,29.19,0,1,0,29.19,29.19A29.22,29.22,0,0,0,241.29,341.22Z" style="fill:#263238;clip-path:url(#freepik--clip-path-2--inject-443)"></path></clipPath><clipPath id="freepik--clip-path-14--inject-443"><path d="M220,207.07a.4.4,0,0,1-.15,0,.49.49,0,0,1-.35-.42l-3.46-33.7a.52.52,0,0,1,.18-.44l2.95-2.5-1.86-.37a.5.5,0,0,1-.34-.24.52.52,0,0,1,0-.42l4.9-13.54a.41.41,0,0,1,.05-.09l.4-.65a.61.61,0,0,1,.19-.17c4.11-2.15,7.66-3.68,7.7-3.7.57-.15,12.36-3.2,17.61-1.75a40.37,40.37,0,0,1,6.3,2.86.5.5,0,0,1,.26.53l-2.45,13.89a.5.5,0,0,1-.45.41l-4.91.49,3.55,5.06a.51.51,0,0,1,0,.62l-29.67,34A.48.48,0,0,1,220,207.07Zm-2.94-34,3.32,32.29,28.65-32.83-3.81-5.44a.48.48,0,0,1,0-.49.51.51,0,0,1,.4-.29l5.39-.54,2.32-13.16a35.27,35.27,0,0,0-5.77-2.6c-5-1.39-16.91,1.69-17,1.73h0s-3.43,1.48-7.43,3.57l-.31.48-4.68,12.95,2.31.46a.5.5,0,0,1,.23.87Z" style="fill:#263238;clip-path:url(#freepik--clip-path-3--inject-443)"></path></clipPath></defs><g id="freepik--Floor--inject-443"><path d="M446.92,393.5H65.17a.5.5,0,0,1,0-1H446.92a.5.5,0,1,1,0,1Z" style="fill:#263238"></path></g><g id="freepik--Wine--inject-443"><polygon points="336.74 227.2 442.19 405.81 242.77 405.81 242.77 374.96 310.92 229.35 336.74 227.2" style="opacity:0.32"></polygon><circle cx="311.09" cy="250.54" r="34.52" transform="translate(-71.22 134.84) rotate(-22.01)" style="fill:#DB5461"></circle><path d="M311.09,285.55a35,35,0,1,1,35-35A35,35,0,0,1,311.09,285.55Zm0-69a34,34,0,1,0,34,34A34,34,0,0,0,311.09,216.52Z" style="fill:#263238"></path><circle cx="311.09" cy="250.54" r="29.69" transform="translate(-71.35 135.29) rotate(-22.08)" style="fill:#DB5461"></circle><path d="M311.09,280.72a30.19,30.19,0,1,1,30.19-30.18A30.22,30.22,0,0,1,311.09,280.72Zm0-59.37a29.19,29.19,0,1,0,29.19,29.19A29.22,29.22,0,0,0,311.09,221.35Z" style="fill:#263238"></path><g style="clip-path:url(#freepik--clip-path-8--inject-443)"><path d="M283.72,253.43a29.69,29.69,0,0,1,51.64-20,29.69,29.69,0,1,0-46.22,37.08A29.52,29.52,0,0,1,283.72,253.43Z" style="opacity:0.4"></path></g><path d="M329.47,256.25a31.3,31.3,0,0,0-4-4c-2.5-2.08-5.88-9.81-6.75-17.57-.83-7.49,1.62-11.26,1.73-11.42l.83.55s-2.35,3.67-1.56,10.76c.81,7.3,4,15,6.39,16.91a32.5,32.5,0,0,1,4.18,4.18Z" style="fill:#263238"></path><path d="M334.94,265c-.05,0-5.43-3.36-11.13-7.84s-8.68-17-8.8-17.52l1-.22c0,.12,2.91,12.6,8.45,17s11,7.73,11,7.76Z" style="fill:#263238"></path><path d="M327.3,237.53a2.71,2.71,0,0,1-1.39-.46c-4.35-2.61-2.76-10.85-2.69-11.2l1,.2c0,.08-1.53,7.89,2.23,10.15.53.32.94.39,1.21.21,1.06-.72.93-4.82.5-7.51l1-.15c.19,1.18,1,7.16-.93,8.48A1.52,1.52,0,0,1,327.3,237.53Z" style="fill:#263238"></path><path d="M292.85,241.62l-1-.14c.49-3.61,1-6.14,1-6.16l1,.19S293.34,238,292.85,241.62Z" style="fill:#263238"></path><path d="M297.49,277.23c-.19-.19-4.65-4.74-6.3-14.64-.62-3.72-.62-8.88,0-15.32l1,.09c-.61,6.36-.61,11.43,0,15.06,1.6,9.59,6,14.06,6,14.1Z" style="fill:#263238"></path><path d="M318.15,279c-9.53-4.56-14.42-20.17-14.63-20.83l1-.3c0,.16,5,15.86,14.11,20.23Z" style="fill:#263238"></path><circle cx="311.09" cy="370.41" r="34.52" style="fill:#DB5461"></circle><path d="M311.09,405.43a35,35,0,1,1,35-35A35.05,35.05,0,0,1,311.09,405.43Zm0-69a34,34,0,1,0,34,34A34,34,0,0,0,311.09,336.39Z" style="fill:#263238"></path><circle cx="311.09" cy="370.41" r="29.69" transform="translate(-104 618.77) rotate(-80.87)" style="fill:#DB5461"></circle><path d="M311.09,400.6a30.19,30.19,0,1,1,30.19-30.19A30.23,30.23,0,0,1,311.09,400.6Zm0-59.38a29.19,29.19,0,1,0,29.19,29.19A29.22,29.22,0,0,0,311.09,341.22Z" style="fill:#263238"></path><g style="clip-path:url(#freepik--clip-path-9--inject-443)"><path d="M283.72,373.3a29.69,29.69,0,0,1,51.64-20,29.69,29.69,0,1,0-46.22,37.09A29.58,29.58,0,0,1,283.72,373.3Z" style="opacity:0.4"></path></g><path d="M329.47,376.13a30.29,30.29,0,0,0-4-4c-2.5-2.08-5.88-9.81-6.75-17.57-.83-7.48,1.62-11.26,1.73-11.42l.83.56s-2.35,3.66-1.56,10.75c.81,7.31,4,15,6.39,16.91a33.24,33.24,0,0,1,4.18,4.18Z" style="fill:#263238"></path><path d="M334.94,384.86A134,134,0,0,1,323.81,377c-5.82-4.58-8.68-17-8.8-17.53l1-.22c0,.13,2.91,12.61,8.45,17s11,7.73,11,7.77Z" style="fill:#263238"></path><path d="M327.3,357.4a2.79,2.79,0,0,1-1.39-.45c-4.35-2.62-2.76-10.86-2.69-11.2l1,.19c0,.08-1.53,7.9,2.23,10.15.53.32.94.39,1.21.21,1.06-.72.93-4.82.5-7.5l1-.16c.19,1.18,1,7.16-.93,8.49A1.59,1.59,0,0,1,327.3,357.4Z" style="fill:#263238"></path><path d="M292.85,361.49l-1-.14c.49-3.6,1-6.13,1-6.16l1,.19S293.34,357.91,292.85,361.49Z" style="fill:#263238"></path><path d="M297.49,397.1c-.19-.19-4.65-4.74-6.3-14.64-.62-3.72-.62-8.88,0-15.32l1,.1c-.61,6.35-.61,11.42,0,15.06,1.6,9.58,6,14.05,6,14.1Z" style="fill:#263238"></path><path d="M318.15,398.84c-9.53-4.56-14.42-20.17-14.63-20.83l1-.29c0,.16,5,15.85,14.11,20.22Z" style="fill:#263238"></path><circle cx="346.09" cy="310.54" r="34.52" transform="translate(-91.15 152.33) rotate(-22.01)" style="fill:#DB5461"></circle><path d="M346.09,345.55a35,35,0,1,1,35-35A35,35,0,0,1,346.09,345.55Zm0-69a34,34,0,1,0,34,34A34,34,0,0,0,346.09,276.52Z" style="fill:#263238"></path><circle cx="346.09" cy="310.54" r="29.69" transform="translate(-91.34 152.85) rotate(-22.08)" style="fill:#DB5461"></circle><path d="M346.09,340.72a30.19,30.19,0,1,1,30.19-30.18A30.22,30.22,0,0,1,346.09,340.72Zm0-59.37a29.19,29.19,0,1,0,29.19,29.19A29.22,29.22,0,0,0,346.09,281.35Z" style="fill:#263238"></path><g style="clip-path:url(#freepik--clip-path-10--inject-443)"><path d="M318.72,313.43a29.69,29.69,0,0,1,51.64-20,29.69,29.69,0,1,0-46.22,37.08A29.52,29.52,0,0,1,318.72,313.43Z" style="opacity:0.4"></path></g><path d="M317.75,317.16l-.4-.92c.18-.08,18.11-7.87,27.79-16.34s12.68-10.25,12.8-10.32l.5.87s-3,1.75-12.65,10.2S317.93,317.08,317.75,317.16Z" style="fill:#263238"></path><path d="M340.33,313.05l-.4-.92c11.31-4.85,27.66-16.66,27.82-16.78l.59.82C368.17,296.28,351.74,308.16,340.33,313.05Z" style="fill:#263238"></path><path d="M355.6,316l-.44-.9c1.61-.8,3.24-1.66,4.84-2.56l.49.87C358.88,314.35,357.23,315.22,355.6,316Z" style="fill:#263238"></path><path d="M322,325c-.77,0-1.19,0-1.21,0l.07-1c.12,0,12,.77,28.82-6.36l.39.93C336.1,324.47,325.48,325,322,325Z" style="fill:#263238"></path><circle cx="276.59" cy="310.54" r="34.52" transform="translate(-96.22 126.28) rotate(-22.01)" style="fill:#DB5461"></circle><path d="M276.59,345.55a35,35,0,1,1,35-35A35,35,0,0,1,276.59,345.55Zm0-69a34,34,0,1,0,34,34A34,34,0,0,0,276.59,276.52Z" style="fill:#263238"></path><circle cx="276.59" cy="310.54" r="29.69" transform="translate(-96.43 126.72) rotate(-22.08)" style="fill:#DB5461"></circle><path d="M276.59,340.72a30.19,30.19,0,1,1,30.19-30.18A30.22,30.22,0,0,1,276.59,340.72Zm0-59.37a29.19,29.19,0,1,0,29.19,29.19A29.22,29.22,0,0,0,276.59,281.35Z" style="fill:#263238"></path><g style="clip-path:url(#freepik--clip-path-11--inject-443)"><path d="M249.22,313.43a29.69,29.69,0,0,1,51.64-20,29.69,29.69,0,1,0-46.22,37.08A29.52,29.52,0,0,1,249.22,313.43Z" style="opacity:0.4"></path></g><path d="M261.75,324.17l-.34-.94c3.36-1.22,6.87-2.34,10.44-3.32,11.84-3.27,32-2.49,32.17-2.48l0,1c-.2,0-20.17-.78-31.87,2.44C268.57,321.85,265.08,323,261.75,324.17Z" style="fill:#263238"></path><path d="M252.91,327.82l-.45-.9s1.29-.64,3.58-1.6l.38.92C254.17,327.19,252.92,327.81,252.91,327.82Z" style="fill:#263238"></path><path d="M268.85,318l-.31-.95A113.22,113.22,0,0,1,304,312.91l0,1A111.75,111.75,0,0,0,268.85,318Z" style="fill:#263238"></path><path d="M253,302.31l-.61-.79a65.36,65.36,0,0,1,36.84-11.6v1A64.26,64.26,0,0,0,253,302.31Z" style="fill:#263238"></path><circle cx="380.04" cy="370.41" r="34.52" style="fill:#DB5461"></circle><path d="M380,405.43a35,35,0,1,1,35-35A35.06,35.06,0,0,1,380,405.43Zm0-69a34,34,0,1,0,34,34A34.05,34.05,0,0,0,380,336.39Z" style="fill:#263238"></path><circle cx="380.04" cy="370.41" r="29.69" transform="translate(-66.93 656.51) rotate(-76.89)" style="fill:#DB5461"></circle><path d="M380,400.6a30.19,30.19,0,1,1,30.19-30.19A30.22,30.22,0,0,1,380,400.6Zm0-59.38a29.19,29.19,0,1,0,29.19,29.19A29.22,29.22,0,0,0,380,341.22Z" style="fill:#263238"></path><g style="clip-path:url(#freepik--clip-path-12--inject-443)"><path d="M352.67,373.3a29.69,29.69,0,0,1,51.64-20,29.69,29.69,0,1,0-46.22,37.09A29.58,29.58,0,0,1,352.67,373.3Z" style="opacity:0.4"></path></g><path d="M365.2,384l-.34-.94c3.36-1.22,6.87-2.33,10.44-3.32,11.84-3.26,32-2.49,32.17-2.48l0,1c-.2,0-20.17-.78-31.86,2.45C372,381.72,368.54,382.83,365.2,384Z" style="fill:#263238"></path><path d="M356.36,387.69l-.44-.89c.05,0,1.28-.65,3.57-1.6l.39.92C357.63,387.06,356.38,387.68,356.36,387.69Z" style="fill:#263238"></path><path d="M372.3,377.87l-.3-.95a112.64,112.64,0,0,1,35.47-4.13l0,1A111.65,111.65,0,0,0,372.3,377.87Z" style="fill:#263238"></path><path d="M356.45,362.19l-.62-.79a65.33,65.33,0,0,1,36.85-11.6v1A64.17,64.17,0,0,0,356.45,362.19Z" style="fill:#263238"></path><circle cx="241.29" cy="370.41" r="34.52" style="fill:#DB5461"></circle><path d="M241.29,405.43a35,35,0,1,1,35-35A35.06,35.06,0,0,1,241.29,405.43Zm0-69a34,34,0,1,0,34,34A34.06,34.06,0,0,0,241.29,336.39Z" style="fill:#263238"></path><circle cx="241.29" cy="370.41" r="29.69" transform="translate(-191.25 279.11) rotate(-45)" style="fill:#DB5461"></circle><path d="M241.29,400.6a30.19,30.19,0,1,1,30.19-30.19A30.22,30.22,0,0,1,241.29,400.6Zm0-59.38a29.19,29.19,0,1,0,29.19,29.19A29.22,29.22,0,0,0,241.29,341.22Z" style="fill:#263238"></path><g style="clip-path:url(#freepik--clip-path-13--inject-443)"><path d="M213.91,373.3a29.69,29.69,0,0,1,51.64-20,29.69,29.69,0,1,0-46.22,37.09A29.58,29.58,0,0,1,213.91,373.3Z" style="opacity:0.4"></path></g><path d="M226.44,384l-.34-.94c3.37-1.22,6.88-2.33,10.44-3.32,11.85-3.26,32-2.49,32.18-2.48l0,1c-.21,0-20.18-.78-31.87,2.45C233.27,381.72,229.78,382.83,226.44,384Z" style="fill:#263238"></path><path d="M217.6,387.69l-.44-.89c.05,0,1.29-.65,3.57-1.6l.39.92C218.87,387.06,217.62,387.69,217.6,387.69Z" style="fill:#263238"></path><path d="M233.55,377.87l-.31-.95a113.09,113.09,0,0,1,35.48-4.13l0,1A111.53,111.53,0,0,0,233.55,377.87Z" style="fill:#263238"></path><path d="M217.69,362.19l-.62-.79a65.33,65.33,0,0,1,36.85-11.6v1A64.21,64.21,0,0,0,217.69,362.19Z" style="fill:#263238"></path><ellipse cx="167.84" cy="406.75" rx="65.16" ry="15.84" style="opacity:0.32"></ellipse><path d="M137,246.13l-.62-14.95h-5l-.62,14.95a1.69,1.69,0,0,1-1.69,1.69h0a1.69,1.69,0,0,0-1.69,1.68v28.21h13V249.5a1.69,1.69,0,0,0-1.69-1.68h0A1.69,1.69,0,0,1,137,246.13Z" style="fill:#263238"></path><path d="M140.4,278.21h-13a.5.5,0,0,1-.5-.5V249.5a2.19,2.19,0,0,1,2.19-2.18,1.2,1.2,0,0,0,1.19-1.19l.62-15a.5.5,0,0,1,.5-.48h5a.5.5,0,0,1,.5.48l.62,15v0a1.2,1.2,0,0,0,1.19,1.19,2.19,2.19,0,0,1,2.19,2.18v28.21A.5.5,0,0,1,140.4,278.21Zm-12.52-1h12V249.5a1.18,1.18,0,0,0-1.19-1.18,2.2,2.2,0,0,1-2.19-2.18l-.6-14.46h-4.06l-.6,14.47a2.2,2.2,0,0,1-2.19,2.17,1.18,1.18,0,0,0-1.19,1.18Z" style="fill:#263238"></path><rect x="130.76" y="229.97" width="6.26" height="3.38" style="fill:#263238"></rect><path d="M137,233.85h-6.26a.5.5,0,0,1-.5-.5V230a.51.51,0,0,1,.5-.5H137a.51.51,0,0,1,.5.5v3.38A.5.5,0,0,1,137,233.85Zm-5.76-1h5.26v-2.38h-5.26Z" style="fill:#263238"></path><rect x="127.38" y="252.88" width="8.5" height="21.46" style="fill:#fff"></rect><path d="M135.88,274.84h-8.5a.5.5,0,0,1-.5-.5V252.88a.5.5,0,0,1,.5-.5h8.5a.5.5,0,0,1,.5.5v21.46A.5.5,0,0,1,135.88,274.84Zm-8-1h7.5V253.38h-7.5Z" style="fill:#263238"></path><path d="M177.48,277.22H116.07s-24,25-24,71.32,28.19,64,28.19,64h53.1s28.18-17.72,28.18-64S177.48,277.22,177.48,277.22Z" style="fill:#DB5461"></path><path d="M173.33,413.09h-53.1A.5.5,0,0,1,120,413c-.29-.18-28.42-18.4-28.42-64.47s23.93-71.41,24.17-71.66a.48.48,0,0,1,.36-.16h61.41a.48.48,0,0,1,.36.16c.24.25,24.17,25.66,24.17,71.66S173.88,412.83,173.59,413A.5.5,0,0,1,173.33,413.09Zm-53-1h52.8c2-1.33,27.83-19.57,27.83-63.55,0-43.73-21.77-68.65-23.75-70.82h-61c-2,2.17-23.75,27.09-23.75,70.82C92.54,392.52,118.4,410.76,120.38,412.09Z" style="fill:#263238"></path><path d="M166.72,413.09H126.83a.55.55,0,0,1-.32-.12c-.21-.18-21.34-18.4-21.34-64.43s18-71.36,18.14-71.61a.49.49,0,0,1,.4-.21h46.13a.49.49,0,0,1,.4.21c.18.25,18.14,25.65,18.14,71.61S167.25,412.79,167,413A.55.55,0,0,1,166.72,413.09Zm-39.7-1h39.51c1.78-1.62,20.85-19.93,20.85-63.55,0-43.46-16.1-68.32-17.8-70.82H124c-1.7,2.5-17.81,27.39-17.81,70.82C106.17,392.2,125.24,410.47,127,412.09Z" style="fill:#263238"></path><path d="M155.26,413.09h-17a.49.49,0,0,1-.44-.28c-.09-.18-9.06-18.35-9.06-64.27s7.62-71.21,7.7-71.46a.5.5,0,0,1,.47-.36h19.63a.49.49,0,0,1,.47.36c.08.25,7.7,25.58,7.7,71.46s-9,64.09-9.06,64.27A.49.49,0,0,1,155.26,413.09Zm-16.65-1h16.33c1.1-2.42,8.82-20.95,8.82-63.55,0-42.8-6.64-67.61-7.55-70.82H137.34c-.91,3.21-7.55,28-7.55,70.82C129.79,391.14,137.51,409.67,138.61,412.09Z" style="fill:#263238"></path><path d="M101.37,390a72.58,72.58,0,0,0,4.59,7.72h81.63a72.58,72.58,0,0,0,4.59-7.72Z" style="fill:#263238"></path><path d="M187.59,398.18H106a.51.51,0,0,1-.41-.21,74.9,74.9,0,0,1-4.62-7.78.5.5,0,0,1,0-.49.49.49,0,0,1,.42-.24h90.81a.49.49,0,0,1,.42.24.5.5,0,0,1,0,.49A74.19,74.19,0,0,1,188,398,.51.51,0,0,1,187.59,398.18Zm-81.36-1h81.09a71.51,71.51,0,0,0,4-6.72H102.2A72.38,72.38,0,0,0,106.23,397.18Z" style="fill:#263238"></path><path d="M112.52,405.86a44.75,44.75,0,0,0,7.71,6.73h53.1a45,45,0,0,0,7.7-6.73Z" style="fill:#263238"></path><path d="M173.33,413.09h-53.1A.5.5,0,0,1,120,413a44.57,44.57,0,0,1-7.8-6.81.49.49,0,0,1-.1-.54.51.51,0,0,1,.46-.3H181a.51.51,0,0,1,.46.3.49.49,0,0,1-.1.54,44.57,44.57,0,0,1-7.8,6.81A.5.5,0,0,1,173.33,413.09Zm-53-1h52.81a45.29,45.29,0,0,0,6.68-5.73H113.7A44.92,44.92,0,0,0,120.37,412.09Z" style="fill:#263238"></path><path d="M182.47,283.58a57.3,57.3,0,0,0-5-6.36H116.07a57.3,57.3,0,0,0-5,6.36Z" style="fill:#263238"></path><path d="M182.47,284.08H111.08a.5.5,0,0,1-.44-.27.49.49,0,0,1,0-.51,55,55,0,0,1,5-6.42.48.48,0,0,1,.36-.16h61.41a.48.48,0,0,1,.36.16,55,55,0,0,1,5,6.42.47.47,0,0,1,0,.51A.48.48,0,0,1,182.47,284.08Zm-70.43-1h69.47a58.77,58.77,0,0,0-4.25-5.36h-61A58.77,58.77,0,0,0,112,283.08Z" style="fill:#263238"></path><path d="M191.37,299.48c-1.27-2.84-2.57-5.42-3.85-7.72H106c-1.28,2.3-2.58,4.88-3.85,7.72Z" style="fill:#263238"></path><path d="M191.37,300H102.18a.5.5,0,0,1-.42-.23.54.54,0,0,1,0-.48c1.21-2.68,2.51-5.29,3.87-7.75a.5.5,0,0,1,.44-.26h81.49a.5.5,0,0,1,.44.26c1.36,2.46,2.66,5.07,3.87,7.75a.51.51,0,0,1,0,.48A.5.5,0,0,1,191.37,300ZM103,299H190.6c-1.06-2.32-2.19-4.57-3.37-6.72H106.32C105.15,294.41,104,296.66,103,299Z" style="fill:#263238"></path><path d="M164.33,274.58a7.92,7.92,0,0,1-.48-4.82,9.38,9.38,0,0,1,3.37-5.31l.73,6,3.37-2.89-1.93,5.06s.73.48,3.38.48a18.83,18.83,0,0,1,6,1.45,23.15,23.15,0,0,1-6,2.17C169.88,277.23,164.33,274.58,164.33,274.58Z" style="fill:#DB5461"></path><path d="M172,277.31c-3.09,0-7.67-2.18-7.89-2.28a.51.51,0,0,1-.21-.2,8.29,8.29,0,0,1-.55-5.15,9.87,9.87,0,0,1,3.57-5.63.53.53,0,0,1,.5-.06.5.5,0,0,1,.3.4l.61,5.1,2.67-2.28a.5.5,0,0,1,.61,0,.49.49,0,0,1,.18.58l-1.75,4.6a10.41,10.41,0,0,0,2.73.27,19.06,19.06,0,0,1,6.22,1.49.49.49,0,0,1,.31.44.52.52,0,0,1-.27.46,23.41,23.41,0,0,1-6.18,2.22A4.57,4.57,0,0,1,172,277.31Zm-7.3-3.11c.91.42,5.54,2.46,8,2.05a20.37,20.37,0,0,0,4.85-1.61,15.77,15.77,0,0,0-4.77-1c-2.67,0-3.51-.47-3.65-.56a.49.49,0,0,1-.19-.6l1.22-3.22-1.88,1.61a.52.52,0,0,1-.51.09.51.51,0,0,1-.31-.41l-.61-5.08a8.23,8.23,0,0,0-2.5,4.37A8.09,8.09,0,0,0,164.7,274.2Z" style="fill:#263238"></path><circle cx="146.85" cy="270.48" r="2.53" style="fill:#fff"></circle><path d="M146.85,273.51a3,3,0,1,1,3-3A3,3,0,0,1,146.85,273.51Zm0-5.06a2,2,0,1,0,2,2A2,2,0,0,0,146.85,268.45Z" style="fill:#263238"></path><circle cx="150.71" cy="269.88" r="2.53" style="fill:#fff"></circle><path d="M150.71,272.91a3,3,0,1,1,3-3A3,3,0,0,1,150.71,272.91Zm0-5.07a2,2,0,1,0,2,2A2,2,0,0,0,150.71,267.84Z" style="fill:#263238"></path><circle cx="151.67" cy="273.49" r="2.53" style="fill:#fff"></circle><path d="M151.67,276.52a3,3,0,1,1,3-3A3,3,0,0,1,151.67,276.52Zm0-5.06a2,2,0,1,0,2,2A2,2,0,0,0,151.67,271.46Z" style="fill:#263238"></path><circle cx="155.53" cy="272.77" r="2.53" style="fill:#fff"></circle><path d="M155.53,275.8a3,3,0,1,1,3-3A3,3,0,0,1,155.53,275.8Zm0-5.06a2,2,0,1,0,2,2A2,2,0,0,0,155.53,270.74Z" style="fill:#263238"></path><circle cx="147.81" cy="273.49" r="2.53" style="fill:#fff"></circle><path d="M147.81,276.52a3,3,0,1,1,3-3A3,3,0,0,1,147.81,276.52Zm0-5.06a2,2,0,1,0,2,2A2,2,0,0,0,147.81,271.46Z" style="fill:#263238"></path><path d="M162.16,274a2.53,2.53,0,1,1-2.53-2.54A2.53,2.53,0,0,1,162.16,274Z" style="fill:#fff"></path><path d="M159.63,277a3,3,0,1,1,3-3A3,3,0,0,1,159.63,277Zm0-5.07a2,2,0,1,0,2,2A2,2,0,0,0,159.63,271.94Z" style="fill:#263238"></path><circle cx="155.89" cy="269.03" r="2.53" style="fill:#fff"></circle><path d="M155.89,272.06a3,3,0,1,1,3-3A3,3,0,0,1,155.89,272.06Zm0-5.06a2,2,0,1,0,2,2A2,2,0,0,0,155.89,267Z" style="fill:#263238"></path><circle cx="153.24" cy="275.3" r="2.53" style="fill:#fff"></circle><path d="M153.24,278.33a3,3,0,1,1,3-3A3,3,0,0,1,153.24,278.33Zm0-5.06a2,2,0,1,0,2,2A2,2,0,0,0,153.24,273.27Z" style="fill:#263238"></path><circle cx="160.23" cy="269.51" r="2.53" style="fill:#fff"></circle><path d="M160.23,272.55a3,3,0,1,1,3-3A3,3,0,0,1,160.23,272.55Zm0-5.07a2,2,0,1,0,2,2A2,2,0,0,0,160.23,267.48Z" style="fill:#263238"></path><circle cx="164.57" cy="274.82" r="2.53" style="fill:#fff"></circle><path d="M164.57,277.85a3,3,0,1,1,3-3A3,3,0,0,1,164.57,277.85Zm0-5.06a2,2,0,1,0,2,2A2,2,0,0,0,164.57,272.79Z" style="fill:#263238"></path><path d="M145.52,274.22a2.53,2.53,0,1,1-2.53-2.54A2.53,2.53,0,0,1,145.52,274.22Z" style="fill:#fff"></path><path d="M143,277.25a3,3,0,1,1,3-3A3,3,0,0,1,143,277.25Zm0-5.07a2,2,0,1,0,2,2A2,2,0,0,0,143,272.18Z" style="fill:#263238"></path></g></svg>