<svg xmlns="http://www.w3.org/2000/svg" viewBox="0 0 7449.62 1870.11"><g id="Calque_2" data-name="Calque 2"><g id="Calque_2-2" data-name="Calque 2"><path d="M2338.84,308.14a18.48,18.48,0,0,1,16,9.34q31.38,55.18,69.24,132.26,41.11,83.75,83.74,175.85t84.5,187.27q32,72.67,59.94,136.9c6.45,14.79,27.44,14.78,33.86,0q27.82-64.22,59.22-136.87,41.1-95.13,83.74-187.27t83.73-175.85q37.86-77.08,69.25-132.26a18.46,18.46,0,0,1,16-9.34h145.78a18.46,18.46,0,0,1,18.33,16.28Q3175.14,433,3186.68,554q12.38,130.17,22.46,266.44t18.6,274.06q7.91,127.64,13.82,249.36a18.46,18.46,0,0,1-18.44,19.36H3071.54a18.46,18.46,0,0,1-18.45-17.82q-6-175.8-14.14-361.29-7-159-19.61-309.86c-1.57-18.82-27.05-23.39-35.09-6.31q-5.07,10.78-10.49,22.33Q2950.93,739,2925,796.11t-52.52,118q-26.66,60.92-51.77,118t-46.44,106.58q-18,41.88-31.72,73.39a18.43,18.43,0,0,1-16.93,11.11H2606.77a18.44,18.44,0,0,1-16.94-11.12q-13.68-31.61-31.71-74.14-21.35-50.25-46.44-107.34t-51.77-118q-26.65-60.89-52.52-117.24t-48.72-105.82q-5.39-11.62-10.41-22.38c-8-17.12-33.53-12.56-35.11,6.27q-12.72,151.29-19.69,310.72-8.11,185.49-14.12,361.29a18.46,18.46,0,0,1-18.45,17.82H2109.3a18.45,18.45,0,0,1-18.43-19.35q5.91-121.9,13.8-251.66,8.52-140.06,18.6-277.86t22.48-267.2q11.48-119.92,24.32-222.88a18.45,18.45,0,0,1,18.31-16.16Z" fill="#03253a"/><path d="M4081.56,567a18.47,18.47,0,0,1,17.8,23.36q-120.93,439.87-279.33,798.8-30.48,68.52-62.49,117.24t-71.64,80.69a255.31,255.31,0,0,1-88.4,46.44q-48.78,14.45-112.78,14.46a396.11,396.11,0,0,1-84.6-9.13q-29.05-6.33-48.21-13.4a18.47,18.47,0,0,1-11.64-21.41l25.5-112.43a18.44,18.44,0,0,1,23.57-13.52q45.33,14.6,89.62,14.6,71.86,0,112.41-34.26,38.15-32.23,67.49-97.52a18.5,18.5,0,0,0-.43-16.12q-85-164.26-163.39-357.58-76-187.4-136.24-396.66A18.46,18.46,0,0,1,3376.54,567H3534a18.45,18.45,0,0,1,17.92,14q14.28,58,34,124.52,22.16,74.63,48.15,151.49t55,153q19.65,51.51,39.3,98.12c6.57,15.59,29,14.83,34.45-1.18q39.76-115.79,75.29-243.87,40.35-145.5,73.85-282.05A18.48,18.48,0,0,1,3929.91,567Z" fill="#03253a"/><path d="M4876.22,467.13a18.44,18.44,0,0,1,17.06,11.42q14.49,35.25,38.38,88.18,27.9,61.86,62.63,135.07t70.93,150.91q36.22,77.71,69.42,145.63t58.86,119.23q4.69,9.39,8.94,17.79c8.36,16.52,33.11,11.83,34.85-6.61q15.36-162.81,24.87-348.48c7.27-142,13.84-298.77,19.71-454.3a18.46,18.46,0,0,1,18.44-17.76h67a18.46,18.46,0,0,1,18.44,19.35c-8.83,183.16-18.85,366.8-30,535s-24.93,329-41.25,483a18.46,18.46,0,0,1-18.36,16.5h-58.95a18.45,18.45,0,0,1-15.86-9q-43-72.32-91.39-165.3-51.42-98.86-102.08-205.24t-98.28-209.77q-36.95-80.18-67.05-148.09c-6.49-14.63-27.25-14.63-33.74,0q-30.12,67.9-67.06,148.09-47.62,103.35-98.3,209.77t-102.05,205.24q-48.39,93-91.39,165.3a18.45,18.45,0,0,1-15.86,9h-63.48a18.46,18.46,0,0,1-18.36-16.5q-24.51-231-41.25-483c-11.18-168.16-21.18-351.8-30-535a18.47,18.47,0,0,1,18.44-19.35h64A18.47,18.47,0,0,1,4401.87,326c5.87,155.53,12.43,312.3,19.7,454.3q9.51,185.79,24.89,348.68c1.73,18.42,26.44,23.13,34.83,6.64q4.32-8.49,9.11-18,25.76-51.33,59.12-119.23t69.73-145.63q36.34-77.73,71.23-150.91t62.91-135.07q24-53,38.56-88.21a18.43,18.43,0,0,1,17-11.39Z" fill="#03253a"/><path d="M5745.82,384.4q0,34.73-21.12,55.08t-51.31,20.38q-30.23,0-51.31-20.38T5601,384.4q0-34.71,21.13-55.09t51.31-20.37q30.16,0,51.31,20.37T5745.82,384.4Zm-39.14,976.65H5641.6a16.51,16.51,0,0,1-16.51-16.51V597.33a16.51,16.51,0,0,1,16.51-16.51h65.08a16.51,16.51,0,0,1,16.51,16.51v747.21A16.52,16.52,0,0,1,5706.68,1361.05Z" fill="#03253a"/><path d="M5982.76,620.66a16.48,16.48,0,0,1,12.32-16q41.39-10.8,105.39-23.87,73.92-15.06,181.1-15.09,89,0,148.65,25.65t95.07,73.2q35.45,47.53,50.56,113.94t15.09,146.38v419.64a16.51,16.51,0,0,1-16.51,16.51h-65.07a16.51,16.51,0,0,1-16.51-16.51V956.6q0-83-11.32-140.35t-37.73-93.57q-26.43-36.21-69.42-52.06t-107.91-15.85q-69.44,0-120,7.54-35.19,5.28-53.19,9.78a16.49,16.49,0,0,0-12.46,16v656.44a16.51,16.51,0,0,1-16.51,16.51h-65.07a16.51,16.51,0,0,1-16.51-16.51Z" fill="#03253a"/><path d="M6794.65,970.18q0-102.61,29.43-178.83t77-127.53q47.55-51.29,108.67-76.21a331,331,0,0,1,126-24.9q143.35,0,228.63,93.57t85.27,288.24q0,12.11-.76,24.15-.24,3.89-.57,7.6a16.5,16.5,0,0,1-16.45,15H6916.06a16.49,16.49,0,0,0-16.49,17.42q7.83,130.71,70.14,202.91,66.39,77,211.28,77,80,0,126.77-15.1,30.27-9.75,49.82-17.64a16.52,16.52,0,0,1,22.34,11.84l11.17,52.11a16.5,16.5,0,0,1-9.47,18.56q-22.81,10-67.07,22.67-58.11,16.58-136.58,16.59-102.65,0-175.06-30.18T6883.69,1263q-46.8-54.33-67.91-129T6794.65,970.18Zm536.65-61.87a16.52,16.52,0,0,0,16.49-17.46q-6.27-109.73-56.63-172.7-54.33-67.9-153.93-67.91-52.84,0-94.32,21.13A239.58,239.58,0,0,0,6970.47,728q-31,35.47-48.3,82.25A334.15,334.15,0,0,0,6903.35,890a16.51,16.51,0,0,0,16.42,18.31Z" fill="#03253a"/><path d="M1887.51,1858.69c0-33.6-9.85-59.1-29.27-75.78-16.32-14-35.79-18.47-49.45-19.71-.35,0-.69,0-1,0h-77.12a11.42,11.42,0,0,1-11.42-11.42v-145.5c0-33.13-9.59-58.41-28.52-75.13-18.61-16.42-41.58-20.14-55.63-20.7v-.15h-156.9a11.41,11.41,0,0,1-11.41-11.41V1353.36c0-33.14-9.6-58.41-28.52-75.13-25.92-22.88-60.16-21.13-67.21-20.49-.33,0-.66,0-1,0H1225.69a11.42,11.42,0,0,1-11.42-11.42V1100.89c0-33.13-9.59-58.41-28.52-75.13-25.86-22.83-60.16-21.11-67.21-20.48-.32,0-.65,0-1,0H973.23a11.42,11.42,0,0,1-11.42-11.42V917.22l0-1c-1.1-12.73-5-31.23-17.54-47.27l.4-.39L595.11,519.07a11.42,11.42,0,0,0-16.15,0l-62.24,62.25a11.41,11.41,0,0,0,0,16.14L851.47,932.22a11.41,11.41,0,0,1,3.35,8.07v91.81l0,1c1.17,13.67,5.55,33.44,19.75,50,1.23,1.43,2.52,2.81,3.83,4.12.25.26.53.49.78.74s.48.53.73.78c1.32,1.31,2.71,2.6,4.13,3.83,16.32,14,35.8,18.46,49.45,19.7a9.23,9.23,0,0,0,1.05,0h13.61c.73,0,1.46,0,2.2,0h11.42v0l134,0a11.43,11.43,0,0,1,11.42,11.42V1269.2c0,31.06,8.46,55.27,25.14,72h0c.56.56,1.14,1.11,1.72,1.66.79.74,1.59,1.47,2.41,2.17,16.32,14,35.8,18.47,49.45,19.71.35,0,.69,0,1,0l27.23,0v0l134.06,0a11.41,11.41,0,0,1,11.41,11.42v145.47h0a130.57,130.57,0,0,0,4.61,35.93c.08.28.15.57.23.85.15.5.32,1,.47,1.47.33,1,.65,2.1,1,3.12.13.39.29.76.43,1.14.4,1.1.8,2.21,1.24,3.28.07.19.16.36.24.54a79.22,79.22,0,0,0,13.88,22.41c.17.19.36.37.54.57.81.89,1.63,1.79,2.49,2.64h0c1.33,1.32,2.72,2.61,4.13,3.82,16.53,14.2,36.29,18.58,50,19.76h0l27.76,0v0l134,0a11.42,11.42,0,0,1,11.42,11.42v145.88h0a130.62,130.62,0,0,0,4.61,35.93c.08.28.14.57.22.85.15.5.32,1,.48,1.47.32,1,.64,2.1,1,3.12,0,.15.11.29.16.43a80.63,80.63,0,0,0,15.64,26.94c.17.19.36.37.53.56.81.9,1.64,1.79,2.5,2.65h0c1,1,2,1.9,3,2.82.38.33.75.68,1.14,1a73.92,73.92,0,0,0,7.76,5.81c14.44,9.48,30.15,12.85,41.69,13.9.34,0,.69,0,1,0l27.24,0v0l156.89,0a11.41,11.41,0,0,0,11.42-11.41Zm-754.43-564a11.45,11.45,0,0,1,11.1-14.11h204.14a11.42,11.42,0,0,1,11.42,11.42v38.48a11.42,11.42,0,0,1-11.42,11.42H1188.87a11.27,11.27,0,0,1-1.16-.06C1166,1339.76,1141.13,1329.33,1133.08,1294.73ZM935,1089.42c-21.71-2.12-46.57-12.56-54.63-47.16a11.45,11.45,0,0,1,11.1-14.1h204.44a11.41,11.41,0,0,1,11.42,11.41v38.48a11.42,11.42,0,0,1-11.42,11.42H936.12C935.73,1089.47,935.34,1089.45,935,1089.42Zm505.22,504.92c-21.71-2.12-46.57-12.55-54.63-47.15a11.45,11.45,0,0,1,11.1-14.11h204.15a11.43,11.43,0,0,1,11.42,11.42V1583a11.42,11.42,0,0,1-11.42,11.42H1441.33A11.27,11.27,0,0,1,1440.17,1594.34Zm252.61,252.43c-21.61-2.11-46.33-12.46-54.51-46.67a11.44,11.44,0,0,1,11.09-14.15h156.85a11.12,11.12,0,0,1,1.16.06c21.71,2.12,46.58,12.55,54.63,47.15a11.44,11.44,0,0,1-11.1,14.1H1719.2v-.43H1694A11.46,11.46,0,0,1,1692.78,1846.77Z" fill="#03253a"/><path d="M1276.93,246a114.92,114.92,0,0,0-1.42-17.62c-1.51-9.68-9.91-24-23.51-41.6q-3.88-5-8.33-10.43l-.59-.73c-.95-1.14-1.91-2.3-2.89-3.46l-.56-.67q-5.1-6-10.79-12.46l-.47-.54q-1.75-2-3.57-4l-.43-.48q-2.89-3.21-5.92-6.51l-.37-.39-4-4.38L1211.5,140l-4.28-4.54-.19-.21q-9.18-9.69-19.24-19.91l-2.69-2.72q-5.08-5.15-10.38-10.41l-2.62-2.63h0c-1.77-1.78-3.53-3.53-5.28-5.27C1113.92,41.81,1070,4.75,1048.57,1.42h0c-1.1-.17-2.19-.32-3.26-.46l-.73-.09c-1-.13-2.09-.25-3.11-.35l-.58-.05c-.93-.09-1.84-.16-2.74-.22l-.56,0c-1-.06-2-.11-3-.14l-.7,0c-1,0-2,0-2.93,0h-.56c-.87,0-1.73,0-2.58,0-.39,0-.76,0-1.15.06-.64,0-1.28.05-1.91.09l-1.25.1c-.58,0-1.16.09-1.73.15l-1.27.14-1.63.19-1.26.19c-.53.07-1.06.15-1.58.24l-1.22.22c-.52.1-1,.19-1.54.3l-1.18.25-1.52.35-1.12.28L1008,3l-1.06.3-1.53.47-1,.31-1.61.57L1002,5q-1,.36-1.89.75l-.47.18q-2.34,1-4.55,2.09l-.53.28-1.63.85-.66.37-1.43.83-.69.42-1.34.83-.69.45c-.44.28-.87.57-1.29.86l-.67.47-1.25.9-.63.47c-.42.31-.83.63-1.23.95l-.59.47c-.42.33-.83.68-1.24,1l-.51.43-1.29,1.14-.41.36-1.43,1.34-.2.19c-1.65,1.59-3.21,3.24-4.68,4.93l-.07.08q-.69.78-1.35,1.59l-.23.27c-.39.47-.77.95-1.14,1.42l-.28.36c-.35.45-.7.9-1,1.36l-.3.41c-.33.44-.66.88-1,1.33l-.3.42-.94,1.34-.28.42-.91,1.38-.24.38c-.31.48-.62,1-.92,1.45-.06.1-.13.2-.19.31-.33.53-.64,1.06-1,1.59l-.1.17c-1.77,3-3.34,6-4.74,9l-.08.17c-.25.52-.49,1-.73,1.56l-.12.27c-.22.48-.44,1-.65,1.45l-.14.32c-.2.46-.4.92-.59,1.38l-.15.35c-.19.45-.38.89-.56,1.34l-.14.33L954,57.31c0,.09-.07.19-.11.28-.19.47-.37.94-.54,1.4a1.8,1.8,0,0,0-.08.21c-.19.5-.38,1-.56,1.48l0,.1c-1,2.64-1.82,5.13-2.55,7.4,0,0,0,.09,0,.14l-.38,1.18,0,.18c-.12.37-.23.73-.34,1.09l-.06.19c-.12.36-.23.72-.33,1.07l0,.09c-.27.86-.51,1.68-.74,2.43l-.07.22-.21.7c0,.13-.09.26-.13.4l-.15.49-.15.47c0,.12-.08.25-.11.36s-.15.45-.22.66l0,.1c-3.51,10.54-6.26,41.89-18.37,69.7-6.3,14.46-15.12,28-27.9,37.09-13.53,9.66-69.49,54.29-135.4,107.32l-.87.7-14.93,12-14.28,11.51L724.61,325l-2,1.63-6.41,5.18c-83.39,67.28-169.79,137.41-201.42,163.1l-1.55,1.26-4.09,3.32-2.22,1.81-1.81,1.47v-.55h0l-1.3,1.6-1.6,1.3h.55l-3.47,4.27-2.91,3.57-.46.57c-1.08,1.33-2.25,2.78-3.51,4.32l-.54.68c-.8,1-1.62,2-2.48,3-.19.25-.39.49-.6.74l-4.45,5.49-.68.83c-68.13,83.93-276.61,341-298.9,372.26-18.36,25.69-54.38,35.4-80.3,40.7l-5.15,1-3,.56-3.68.7-2.17.42A113.79,113.79,0,0,0,78,947.13c-4,1.32-11.36,3.28-20.09,6.7l-.71.28c-2.06.81-4.2,1.71-6.37,2.7l-.31.14c-.93.43-1.87.88-2.82,1.34q-2.37,1.15-4.76,2.46c-1.49.81-3,1.67-4.48,2.58l-1.12.69c-.78.49-1.56,1-2.33,1.51q-3.2,2.12-6.29,4.56c-1,.77-1.92,1.56-2.86,2.38q-1.85,1.59-3.61,3.31a75.49,75.49,0,0,0-7.08,8c-.56.73-1.11,1.48-1.65,2.23a70.75,70.75,0,0,0-6,10.23c-6.44,13.4-9.42,30.49-6,52.37,3.5,22.47,44.14,69.75,100.79,126.14,15.05,15.12,29.45,29.1,42.9,41.53l3.28,3,3.76,3.42q5.57,5,10.89,9.7l2.49,2.16q2,1.74,4,3.41l2.69,2.28c12.41,10.42,23.57,18.88,33.15,24.92l.36.23a109.24,109.24,0,0,0,11.49,6.37c1.26.59,2.48,1.12,3.66,1.58q.55.23,1.11.42a33.5,33.5,0,0,0,6.39,1.74c1.11.17,2.22.33,3.31.47l.7.08c1,.14,2.1.25,3.14.35l.54,0c.94.09,1.87.16,2.8.22l.51,0,3,.15.64,0c1,0,2,0,3,0h.25c1,0,2,0,2.91,0l1-.05,2-.1,1.18-.09,1.81-.16,1.2-.13,1.7-.2,1.21-.18,1.63-.25,1.18-.21,1.58-.31,1.14-.24,1.56-.36,1.09-.27,1.55-.42,1-.29,1.58-.49.91-.3c.57-.19,1.13-.39,1.68-.59.25-.09.5-.17.74-.27.68-.25,1.35-.51,2-.79l.35-.13q2.36-1,4.57-2.1l.47-.25c.57-.29,1.13-.58,1.69-.89l.61-.34,1.48-.85.66-.4,1.37-.85.67-.44,1.31-.87.65-.46,1.27-.91.61-.46c.43-.32.84-.64,1.26-1l.56-.45c.43-.34.85-.69,1.26-1l.5-.42c.44-.38.88-.76,1.31-1.15l.38-.34c.5-.45,1-.91,1.46-1.37l.17-.16c1.66-1.6,3.22-3.25,4.7-4.94l.06-.07c.46-.53.91-1.06,1.35-1.6l.23-.27L307,1248l.29-.36,1-1.35c.1-.14.2-.28.31-.41.32-.45.65-.89,1-1.33.1-.15.21-.29.31-.43.31-.45.62-.89.92-1.34l.29-.42c.31-.45.61-.91.9-1.37l.26-.39.91-1.44.19-.32c.33-.52.64-1,.95-1.58a1.74,1.74,0,0,0,.11-.18c1.77-3,3.34-6,4.74-8.95l.09-.2c.24-.51.48-1,.71-1.53a2.92,2.92,0,0,0,.14-.31c.22-.47.43-.94.63-1.4.06-.12.11-.24.16-.36.2-.45.39-.9.58-1.34.05-.13.11-.25.16-.38l.54-1.3c.05-.13.1-.26.16-.38q.25-.66.51-1.29c.05-.12.1-.24.14-.36.18-.44.34-.88.51-1.31,0-.1.08-.2.11-.29.18-.47.35-.94.52-1.4a.87.87,0,0,0,.07-.17c.77-2.11,1.47-4.12,2.08-6l.06-.19c.13-.39.26-.78.38-1.16,0-.11.07-.22.11-.33.1-.33.21-.66.31-1l.12-.38.27-.87.12-.4c.09-.28.18-.56.26-.83,0-.12.07-.24.11-.35l.24-.78c.06-.19.11-.38.17-.57s.16-.51.23-.75.13-.44.2-.65l.12-.38c.06-.23.13-.44.19-.65l.09-.28.21-.67.06-.17c.09-.27.17-.53.25-.78,4.4-13.19,7.59-59,29.46-89.62.22-.33.45-.64.69-1,.64-.88,1.3-1.75,2-2.6a70.14,70.14,0,0,1,14.14-13.6c20.43-14.59,137.55-108.88,239.6-191.41l9.48-7.67,11-8.92,1.2-1L652.47,871,669,857.6l6.78-5.48,10.91-8.85,7-5.71,3.45-2.79,6.74-5.46,12.8-10.38,14.06-11.41,1-.85c2.47-2,4.85-3.94,7.15-5.79.24-.21.49-.4.73-.6,15.78-12.81,27.11-22,32.12-26.09v.55h0l.51-.63.79-1,.9-.73.7-.57h-.55c27.72-34.11,292.71-360.36,318-395.77a71.41,71.41,0,0,1,14.93-15.18c1.13-.87,2.29-1.71,3.47-2.52q2.65-1.81,5.44-3.47c1.85-1.1,3.74-2.14,5.66-3.14l1.93-1c29.08-14.37,64.1-17.24,75.36-21,6.21-2.07,21-5.75,36-14.14,19-10.64,38.51-28.85,41.52-61,.15-1.62.27-3.28.33-5C1276.9,248.49,1276.93,247.25,1276.93,246Z" fill="#d84a5e"/><path d="M193.44,1183.35l.29.2a89.18,89.18,0,0,0,9.07,5.9c1,.56,2,1.06,2.91,1.51l.89.41a28.19,28.19,0,0,0,5.14,1.78c.91.21,1.81.39,2.7.57l.56.11c.86.17,1.72.33,2.56.47l.44.07c.77.12,1.53.24,2.29.34l.41.06c.83.11,1.64.2,2.45.28l.52.06c.82.08,1.63.15,2.43.2h.2c.81.06,1.61.1,2.39.13l.84,0,1.68,0h1c.5,0,1,0,1.49,0l1,0,1.41-.07,1-.08,1.35-.12,1-.1,1.32-.17.94-.13,1.3-.21.91-.16,1.3-.26.85-.18,1.32-.32.77-.19c.48-.12.94-.26,1.41-.39l.63-.18c.57-.17,1.13-.35,1.69-.54l.29-.09c1.33-.45,2.61-.94,3.87-1.47l.4-.17,1.43-.64.53-.25,1.26-.62.57-.29,1.17-.62.57-.32,1.12-.65.56-.34,1.1-.68.53-.34,1.08-.73.49-.34c.37-.25.73-.52,1.09-.78l.43-.32c.39-.28.77-.58,1.14-.87l.34-.26c.43-.35.85-.69,1.27-1l.15-.12c1.45-1.22,2.82-2.49,4.13-3.8l.06-.06q.61-.62,1.2-1.23l.2-.21,1-1.11.25-.28c.32-.35.62-.7.93-1l.27-.33.87-1,.27-.34c.29-.35.56-.7.84-1l.26-.33.82-1.08.23-.3.82-1.14.18-.25c.3-.41.59-.83.87-1.24l.1-.15c1.62-2.37,3.08-4.75,4.39-7.09l.09-.17c.23-.4.45-.81.67-1.21.05-.08.09-.17.13-.25.21-.37.41-.75.6-1.12l.15-.28c.19-.36.37-.72.55-1.08l.15-.3.52-1,.15-.31c.17-.34.33-.69.5-1l.13-.28c.17-.35.33-.71.49-1l.11-.24.51-1.12.06-.14c.76-1.69,1.44-3.3,2.05-4.81l.06-.15c.13-.31.25-.63.37-.93l.11-.27c.1-.27.21-.53.31-.79l.12-.3.27-.7c0-.11.08-.22.13-.33l.25-.67c0-.09.08-.19.11-.28l.24-.63.18-.45c.07-.21.15-.41.23-.61s.13-.35.2-.52.08-.21.11-.31.14-.35.2-.52l.09-.23.21-.54.06-.14c.08-.22.17-.43.25-.62,4.35-10.61,12.19-48.8,31.86-72.8l.62-.75c.58-.69,1.17-1.36,1.78-2a57.71,57.71,0,0,1,12.37-10.41c17.58-10.85,206.05-157,294.46-219.18l8.21-5.78,9.54-6.72,1-.73,13.08-9.21,14.34-10.1,5.87-4.14,9.46-6.66,6.1-4.31,3-2.1,5.83-4.12L728,769l12.19-8.6.9-.63,6.19-4.37c.21-.16.42-.3.64-.45l.38-.28-13.68,11.11-.61.5-5.89,4.77-.85.69-11.58,9.4-10.54,8.55-5.55,4.5c-.94.76-1.89,1.52-2.84,2.3l-5.8,4.7-9,7.28L676.35,813l-13.64,11-12.43,10.07-1,.8-9.07,7.34-7.81,6.31c-84,68-263.07,210.54-279.89,222.56-4.43,3.16-15.37,17.88-18.73,22.11-.56.7-1.1,1.41-1.64,2.14l-.56.78c-18,25.25-20.64,62.95-24.26,73.81-.07.2-.14.41-.21.64l0,.14c-.06.18-.12.36-.18.56s0,.15-.07.23-.11.34-.16.52-.07.21-.1.32-.11.35-.16.53-.13.41-.19.63l-.15.46c-.06.21-.12.43-.19.64l-.09.29-.21.69c0,.11-.07.22-.1.33s-.15.47-.23.72l-.1.31c-.08.26-.17.53-.25.8l-.09.27c-.1.32-.21.64-.31,1l-.05.15q-.76,2.32-1.72,4.94a.78.78,0,0,1-.05.14c-.14.38-.28.76-.43,1.15l-.09.24-.42,1.08-.12.29c-.13.35-.28.71-.42,1.07l-.13.31c-.15.36-.29.71-.45,1.07a2.88,2.88,0,0,1-.13.31c-.15.37-.31.74-.47,1.11,0,.1-.09.19-.13.29-.17.39-.34.77-.52,1.16l-.12.26c-.19.41-.38.83-.58,1.25l-.08.17c-1.16,2.42-2.45,4.9-3.9,7.37l-.09.15-.78,1.3-.16.26-.75,1.19-.21.32c-.25.37-.49.75-.75,1.13l-.23.34-.76,1.1-.26.36c-.26.36-.52.73-.79,1.09-.09.11-.17.23-.25.34l-.85,1.11-.24.3c-.31.4-.62.79-.94,1.17l-.18.23-1.12,1.31-.05.06c-1.22,1.39-2.51,2.75-3.87,4.06l-.14.14c-.39.38-.79.75-1.2,1.12l-.32.28-1.08,1-.4.34-1,.86-.47.37-1,.79-.51.38c-.34.25-.69.51-1,.75l-.54.38-1.07.72-.55.36-1.13.7-.55.33-1.21.7-.51.28-1.39.73-.39.21c-1.22.61-2.47,1.19-3.76,1.72l-.29.12c-.54.22-1.09.44-1.65.65l-.61.22c-.46.16-.92.33-1.39.48-.24.09-.5.17-.75.25l-1.3.4-.83.24L256,1232l-.89.22-1.28.3-.94.19-1.31.26-1,.17-1.34.21-1,.14-1.4.17-1,.11-1.49.13-1,.07-1.68.09-.84,0c-.79,0-1.59,0-2.39,0h-.21c-.8,0-1.62,0-2.44,0h-.53l-2.46-.12-.42,0c-.76,0-1.53-.12-2.3-.19l-.45,0c-.85-.08-1.72-.18-2.59-.28l-.57-.08c-.9-.11-1.81-.24-2.73-.38a27.84,27.84,0,0,1-5.26-1.43l-.91-.35c-1-.38-2-.81-3-1.3a88.78,88.78,0,0,1-9.46-5.25l-.3-.19A261,261,0,0,1,177.55,1204l-2.22-1.87-3.27-2.81L170,1197.5c-2.92-2.55-5.92-5.22-9-8l-3.1-2.82-2.7-2.49c-11.08-10.24-22.94-21.75-35.33-34.2-46.65-46.44-80.12-85.37-83-103.88-2.16-13.85-1.82-24.72.91-34.06a2.92,2.92,0,0,1,5.38-.51S95.07,1113.43,193.44,1183.35Z" fill="#fff"/><path d="M1234.28,212.75c-12.83-19.87-46.23-52.34-81.87-84.29-34.18-35.83-69.33-69.91-90.29-82.47C1011,15.34,983.56,73.68,983.56,73.68c40.68-41.32,77.53-2.32,77.53-2.32s28.69,27.32,64.43,61.55l0,.05c44.06,42.93,83.48,81.66,83.48,81.66s40.21,35.53.28,77.57C1209.23,292.19,1266.62,262.81,1234.28,212.75Z" fill="#fff"/></g></g></svg>